<svg xmlns="http://www.w3.org/2000/svg" width="46.001" height="46.001" viewBox="0 0 46.001 46.001">
    <path data-name="Path 1757" d="M45.1 2.922H22.685L20.026.263A.9.9 0 0 0 19.391 0H9.164a.9.9 0 0 0-.9.9v3.233H5.031a.9.9 0 0 0-.9.9v3.233H.9a.9.9 0 0 0-.9.9v26.3a.9.9 0 0 0 .9.9h13.6v1.8h-1.7a.9.9 0 0 0-.634 1.535l6.065 6.048a.9.9 0 0 0 1.269 0l6.065-6.048a.9.9 0 0 0-.634-1.535h-1.7v-1.8h13.6a.9.9 0 0 0 .9-.9v-3.24h3.239a.9.9 0 0 0 .9-.9v-3.233h3.23a.9.9 0 0 0 .9-.9V3.82a.9.9 0 0 0-.9-.9zM18.868 43.834l-3.891-3.881h.423a.9.9 0 0 0 .9-.9V26.3h5.141v12.754a.9.9 0 0 0 .9.9h.422zm17.071-9.272h-12.7V25.4a.9.9 0 0 0-.9-.9H15.4a.9.9 0 0 0-.9.9v9.164H1.8v-24.5h8.956l2.659 2.659a.9.9 0 0 0 .635.263h21.888zm4.133-4.133h-2.337V12.086a.9.9 0 0 0-.9-.9H14.419L11.76 8.529a.9.9 0 0 0-.635-.263H5.93V5.93h8.956l2.659 2.659a.9.9 0 0 0 .635.263h21.891v21.577zM44.2 26.3h-2.332V7.953a.9.9 0 0 0-.9-.9H18.552L15.893 4.4a.9.9 0 0 0-.635-.263h-5.195V1.8h8.956l2.659 2.659a.9.9 0 0 0 .635.263H44.2V26.3z" style="fill:#f88a1c"/>
</svg>
