<svg xmlns="http://www.w3.org/2000/svg" width="24" height="23.997" viewBox="0 0 24 23.997">
    <g data-name="ic_active _risk">
        <g data-name="Layer 14">
            <path data-name="Path 2455" d="M26.4 8.254a.61.61 0 0 0-.407-.281l-1.476-.289a18.839 18.839 0 0 1-9.6-5.015.618.618 0 0 0-.854 0 18.839 18.839 0 0 1-9.6 5.015l-1.477.306a.61.61 0 0 0-.407.281.618.618 0 0 0-.065.492L3.832 13.1a22.15 22.15 0 0 0 7.406 10.961l2.871 2.3a.61.61 0 0 0 .765 0l2.871-2.3A22.15 22.15 0 0 0 25.152 13.1l1.314-4.356a.618.618 0 0 0-.065-.492zM14.492 21.887a1.651 1.651 0 1 1 1.627-1.647 1.651 1.651 0 0 1-1.627 1.647zm2.253-12.343-.525 6.617a1.733 1.733 0 0 1-3.457 0l-.525-6.617a2.261 2.261 0 1 1 4.506 0z" transform="translate(-2.49 -2.499)" style="fill:#fff"/>
        </g>
    </g>
</svg>
