<svg xmlns="http://www.w3.org/2000/svg" width="20" height="20" viewBox="0 0 20 20">
    <g data-name="Group 177">
        <g data-name="Group 175">
            <path data-name="Path 744" d="M169.691 0a3.691 3.691 0 1 0 3.691 3.691A3.691 3.691 0 0 0 169.691 0zm1.695 3.111-2.03 2.03a.615.615 0 0 1-.87 0l-.87-.87a.615.615 0 1 1 .87-.87l.435.435 1.6-1.6a.615.615 0 0 1 .87.87z" transform="translate(-159.691)" style="fill:#898989"/>
            <path data-name="Path 745" d="M1.23 220.034H.615a.615.615 0 0 1-.615-.615v-7.793a.615.615 0 0 1 .615-.615h.615a.615.615 0 0 1 .615.615v7.793a.615.615 0 0 1-.615.615z" transform="translate(0 -203.356)" style="fill:#898989"/>
            <path data-name="Path 746" d="M468.23 220.034h-.615a.615.615 0 0 1-.615-.615v-7.793a.615.615 0 0 1 .615-.615h.615a.615.615 0 0 1 .615.615v7.793a.615.615 0 0 1-.615.615z" transform="translate(-448.846 -203.356)" style="fill:#898989"/>
        </g>
        <g data-name="Group 176">
            <path data-name="Path 747" d="m86.894 238.012-2.874-3.2a.82.82 0 0 0-.995-.177l-2.688 1.423a2.75 2.75 0 0 1-2.622-4.834l.372-.207H75v7.1l5.086 3.815a3.076 3.076 0 0 0 2.864.441l2.9-1.258.784-.474a1.555 1.555 0 0 0 .72-1.018 1.8 1.8 0 0 0-.458-1.6z" transform="translate(-71.922 -222.537)" style="fill:#898989"/>
        </g>
        <path data-name="Path 748" d="M140.023 231.011a.615.615 0 0 0-.3.077l-2.169 1.2a1.519 1.519 0 0 0 1.446 2.676l2.4-1.273a2.461 2.461 0 0 1 2.984.532l2.65 2.955a3.034 3.034 0 0 1 .749 1.429 5.487 5.487 0 0 0 1.3-.543v-7.054z" transform="translate(-132.164 -222.243)" style="fill:#898989"/>
    </g>
</svg>
