<svg xmlns="http://www.w3.org/2000/svg" width="20" height="20" viewBox="0 0 20 20">
    <g data-name="Group 306">
        <path data-name="Path 1443" d="M18.431 1.176h-1.764V.392a.392.392 0 0 0-.784 0v.784h-2.354V.392a.392.392 0 0 0-.784 0v.784h-2.353V.392a.392.392 0 0 0-.784 0v.784H7.255V.392a.392.392 0 0 0-.784 0v.784H4.118V.392a.392.392 0 1 0-.784 0v.784H1.569A1.57 1.57 0 0 0 0 2.745v15.686A1.57 1.57 0 0 0 1.569 20h16.862A1.57 1.57 0 0 0 20 18.431V2.745a1.57 1.57 0 0 0-1.569-1.569zM.784 2.745a.785.785 0 0 1 .784-.784h1.765v.784a.392.392 0 1 0 .784 0v-.784h2.354v.784a.392.392 0 0 0 .784 0v-.784h2.353v.784a.392.392 0 0 0 .784 0v-.784h2.353v.784a.392.392 0 0 0 .784 0v-.784h2.353v.784a.392.392 0 0 0 .784 0v-.784h1.765a.785.785 0 0 1 .784.784v1.961H.784zm17.647 16.471H1.569a.785.785 0 0 1-.784-.784V5.49h18.431v12.941a.785.785 0 0 1-.785.785z" style="fill:#898989"/>
        <path data-name="Path 1444" d="M83.137 160h-2.745a.392.392 0 0 0-.392.392v2.745a.392.392 0 0 0 .392.392h2.745a.392.392 0 0 0 .392-.392v-2.745a.392.392 0 0 0-.392-.392zm-.392 2.745h-1.961v-1.961h1.961z" transform="translate(-76.863 -153.725)" style="fill:#898989"/>
        <path data-name="Path 1445" d="M83.137 270h-2.745a.392.392 0 0 0-.392.392v2.745a.392.392 0 0 0 .392.392h2.745a.392.392 0 0 0 .392-.392v-2.745a.392.392 0 0 0-.392-.392zm-.392 2.745h-1.961v-1.961h1.961z" transform="translate(-76.863 -259.412)" style="fill:#898989"/>
        <path data-name="Path 1446" d="M83.137 380h-2.745a.392.392 0 0 0-.392.392v2.745a.392.392 0 0 0 .392.392h2.745a.392.392 0 0 0 .392-.392v-2.745a.392.392 0 0 0-.392-.392zm-.392 2.745h-1.961v-1.961h1.961z" transform="translate(-76.863 -365.098)" style="fill:#898989"/>
        <path data-name="Path 1447" d="M213.137 160h-2.745a.392.392 0 0 0-.392.392v2.745a.392.392 0 0 0 .392.392h2.745a.392.392 0 0 0 .392-.392v-2.745a.392.392 0 0 0-.392-.392zm-.392 2.745h-1.961v-1.961h1.961z" transform="translate(-201.765 -153.725)" style="fill:#898989"/>
        <path data-name="Path 1448" d="M213.137 270h-2.745a.392.392 0 0 0-.392.392v2.745a.392.392 0 0 0 .392.392h2.745a.392.392 0 0 0 .392-.392v-2.745a.392.392 0 0 0-.392-.392zm-.392 2.745h-1.961v-1.961h1.961z" transform="translate(-201.765 -259.412)" style="fill:#898989"/>
        <path data-name="Path 1449" d="M213.137 380h-2.745a.392.392 0 0 0-.392.392v2.745a.392.392 0 0 0 .392.392h2.745a.392.392 0 0 0 .392-.392v-2.745a.392.392 0 0 0-.392-.392zm-.392 2.745h-1.961v-1.961h1.961z" transform="translate(-201.765 -365.098)" style="fill:#898989"/>
        <path data-name="Path 1450" d="M340.392 163.529h2.745a.392.392 0 0 0 .392-.392v-2.745a.392.392 0 0 0-.392-.392h-2.745a.392.392 0 0 0-.392.392v2.745a.392.392 0 0 0 .392.392zm.392-2.745h1.961v1.961h-1.961z" transform="translate(-326.667 -153.725)" style="fill:#898989"/>
        <path data-name="Path 1451" d="M340.392 273.529h2.745a.392.392 0 0 0 .392-.392v-2.745a.392.392 0 0 0-.392-.392h-2.745a.392.392 0 0 0-.392.392v2.745a.392.392 0 0 0 .392.392zm.392-2.745h1.961v1.961h-1.961z" transform="translate(-326.667 -259.412)" style="fill:#898989"/>
        <path data-name="Path 1452" d="m342.859 400.115-1.684 1.683-.507-.507a.392.392 0 0 0-.555.555l.784.784a.392.392 0 0 0 .555 0l1.961-1.961a.392.392 0 1 0-.555-.555z" transform="translate(-326.666 -384.314)" style="fill:#898989"/>
    </g>
</svg>
