<svg xmlns="http://www.w3.org/2000/svg" width="17.969" height="20" viewBox="0 0 17.969 20">
    <path data-name="Path 1085" d="M17.813 1.953h-1.758v-.586a1.367 1.367 0 0 0-2.734 0v.586h-1.954v-.586a1.367 1.367 0 0 0-2.734 0v.586H6.68v-.586a1.367 1.367 0 0 0-2.734 0v.586H2.188a1.173 1.173 0 0 0-1.172 1.172v15.7A1.173 1.173 0 0 0 2.188 20h15.625a1.173 1.173 0 0 0 1.172-1.172V3.125a1.173 1.173 0 0 0-1.172-1.172zM14.1 1.367a.586.586 0 0 1 1.172 0v.586H14.1zm-4.687 0a.586.586 0 1 1 1.172 0v.586H9.414zm-4.687 0a.586.586 0 0 1 1.172 0v.586H4.727zM2.188 2.734h1.757v.2A1.369 1.369 0 0 0 5.313 4.3a.391.391 0 1 0 0-.781.587.587 0 0 1-.586-.586v-.2h3.906v.2A1.369 1.369 0 0 0 10 4.3a.391.391 0 0 0 0-.781.587.587 0 0 1-.586-.586v-.2h3.906v.2A1.369 1.369 0 0 0 14.688 4.3a.391.391 0 0 0 0-.781.587.587 0 0 1-.588-.589v-.2h3.711a.391.391 0 0 1 .391.391v1.957H1.8V3.125a.391.391 0 0 1 .388-.391zm15.625 16.485H2.188a.391.391 0 0 1-.391-.391V5.859H18.2v12.969a.391.391 0 0 1-.387.391z" style="fill:#898989" transform="translate(-1.016)"/>
    <path data-name="Path 1086" d="M16.641 7.031H3.359a.391.391 0 0 0-.391.391v10.234a.391.391 0 0 0 .391.391h13.282a.391.391 0 0 0 .391-.391V7.422a.391.391 0 0 0-.391-.391zm-.391 10.235H3.75V7.813h12.5z" style="fill:#898989" transform="translate(-1.016)"/>
    <path data-name="Path 1087" d="M8.348 14.935a1.285 1.285 0 0 0 1.815 0l2.976-2.976a1.283 1.283 0 0 0-1.815-1.815l-2.068 2.068-.581-.581a1.283 1.283 0 0 0-1.815 1.815zm-.936-2.751a.5.5 0 0 1 .71 0l.857.857a.391.391 0 0 0 .552 0l2.346-2.341a.5.5 0 0 1 .71.71l-2.976 2.972a.5.5 0 0 1-.71 0l-1.488-1.488a.5.5 0 0 1 0-.71z" style="fill:#898989" transform="translate(-1.016)"/>
</svg>
