<svg xmlns="http://www.w3.org/2000/svg" width="24" height="24" viewBox="0 0 24 24">
    <g data-name="Group 177">
        <g data-name="Group 175">
            <path data-name="Path 744" d="M170.219 0a4.219 4.219 0 1 0 4.219 4.219A4.219 4.219 0 0 0 170.219 0zm1.937 3.556-2.32 2.32a.7.7 0 0 1-.994 0l-.994-.994a.7.7 0 0 1 .994-.994l.5.5 1.823-1.823a.7.7 0 0 1 .994.994z" transform="translate(-158.219)" style="fill:#fff"/>
            <path data-name="Path 745" d="M1.406 221.323H.7a.7.7 0 0 1-.7-.7v-8.906a.7.7 0 0 1 .7-.7h.7a.7.7 0 0 1 .7.7v8.906a.7.7 0 0 1-.694.7z" transform="translate(0 -201.12)" style="fill:#fff"/>
            <path data-name="Path 746" d="M468.406 221.323h-.7a.7.7 0 0 1-.7-.7v-8.906a.7.7 0 0 1 .7-.7h.7a.7.7 0 0 1 .7.7v8.906a.7.7 0 0 1-.7.7z" transform="translate(-445.109 -201.12)" style="fill:#fff"/>
        </g>
        <g data-name="Group 176">
            <path data-name="Path 747" d="m88.594 239.012-3.284-3.662a.938.938 0 0 0-1.137-.2l-3.073 1.623a3.143 3.143 0 0 1-3-5.525l.425-.236H75v8.109l5.813 4.36a3.515 3.515 0 0 0 3.273.5l3.313-1.438.9-.542a1.777 1.777 0 0 0 .823-1.163 2.063 2.063 0 0 0-.524-1.827z" transform="translate(-71.482 -220.183)" style="fill:#fff"/>
        </g>
        <path data-name="Path 748" d="M140.487 231.011a.7.7 0 0 0-.341.089l-2.479 1.377a1.737 1.737 0 0 0 1.656 3.053l2.748-1.455a2.812 2.812 0 0 1 3.41.608l3.029 3.377a3.468 3.468 0 0 1 .856 1.633 6.271 6.271 0 0 0 1.481-.62v-8.062z" transform="translate(-130.362 -220.182)" style="fill:#fff"/>
    </g>
</svg>
