<svg xmlns="http://www.w3.org/2000/svg" width="17.777" height="24" viewBox="0 0 17.777 24">
    <path data-name="Path 2672" d="m172.636 8.236-5.148-5.148a.7.7 0 0 0-.075-.064v5.287h5.287a.679.679 0 0 0-.064-.075zm-8.592 7.343h-.181a1.173 1.173 0 0 0-1.172 1.172v3.028a1.173 1.173 0 0 0 1.172 1.172h.181a1.173 1.173 0 0 0 1.172-1.172v-3.028a1.173 1.173 0 0 0-1.172-1.172zm0 0" transform="translate(-155.065 -2.881)" style="fill:#fff"/>
    <path data-name="Path 2673" d="M11.644 6.836a.7.7 0 0 1-.7-.7V0H.7a.7.7 0 0 0-.7.7v22.6a.7.7 0 0 0 .7.7h16.374a.7.7 0 0 0 .7-.7V6.836zm2.726 9.011-1.71.234a.7.7 0 0 1-.363-.046l-.74-.3v.5l1.33 1.116 1.161.426a.7.7 0 1 1-.485 1.32l-1.277-.469a.7.7 0 0 1-.21-.122l-.721-.605a2.582 2.582 0 0 1-2.377 1.58H8.8A2.582 2.582 0 0 1 6.421 17.9l-.721.6a.708.708 0 0 1-.21.122l-1.277.469a.7.7 0 1 1-.484-1.32l1.161-.426 1.33-1.116v-.5l-.74.3a.7.7 0 0 1-.363.046l-1.71-.234a.7.7 0 1 1 .193-1.388l1.523.209 1.1-.452v-.34a2.6 2.6 0 0 1 .026-.36h-.872a.7.7 0 0 1-.591-.322l-.851-1.32a.7.7 0 1 1 1.181-.768l.644 1h1.163a2.589 2.589 0 0 1 .559-.449v-1.073a1.406 1.406 0 1 1 2.812 0v1.076a2.6 2.6 0 0 1 .559.449h1.163l.644-1a.7.7 0 0 1 1.182.762l-.851 1.32a.7.7 0 0 1-.591.322h-.869a2.574 2.574 0 0 1 .026.36v.34l1.1.452 1.523-.209a.7.7 0 1 1 .191 1.393zm0 0" style="fill:#fff"/>
</svg>
