<svg xmlns="http://www.w3.org/2000/svg" width="14.47" height="20" viewBox="0 0 14.47 20">
    <path data-name="Path 837" d="M8.631 5.856a.391.391 0 0 0-.391.391v.392a.391.391 0 1 0 .781 0v-.393a.391.391 0 0 0-.39-.39z" style="fill:#898989" transform="translate(-2.765)"/>
    <path data-name="Path 838" d="M11.369 7.029a.391.391 0 0 0 .391-.391v-.392a.391.391 0 0 0-.781 0v.392a.391.391 0 0 0 .39.391z" style="fill:#898989" transform="translate(-2.765)"/>
    <path data-name="Path 839" d="M12.933 11.739a1.136 1.136 0 0 1-1.1-.844l-.009-.035a3.752 3.752 0 0 0 1.9-3.241V3.724a3.724 3.724 0 1 0-7.449 0v3.9a3.751 3.751 0 0 0 1.9 3.239l-.009.035a1.136 1.136 0 0 1-1.1.844 4.265 4.265 0 0 0-4.3 3.921v3.95a.391.391 0 0 0 .39.387h13.688a.391.391 0 0 0 .391-.391V15.66a4.265 4.265 0 0 0-4.3-3.921zm.166.786-1.384 1.831-1.129-1 1.4-1.081a2.107 2.107 0 0 0 1.108.253zm-3.557 3.553h.915l.532 3.141H9.011zm.916-.781h-.917l-.152-.878.61-.543.61.543zM7.057 3.724a2.943 2.943 0 0 1 5.887 0v.59h-1.712a1.689 1.689 0 0 1-1.344-.672L9.332 2.9a.391.391 0 0 0-.691.14 1.678 1.678 0 0 1-1.584 1.274zm0 3.895V5.095a2.458 2.458 0 0 0 2.057-1.182l.148.2a2.474 2.474 0 0 0 1.969.985h1.712v2.519a2.943 2.943 0 1 1-5.887 0zm4.043 3.556a1.91 1.91 0 0 0 .29.57L10 12.818l-1.394-1.073a1.91 1.91 0 0 0 .29-.57 3.7 3.7 0 0 0 2.204 0zm-3.095 1.1 1.4 1.081-1.129 1L6.9 12.525a2.111 2.111 0 0 0 1.109-.253zM3.546 15.66a3.33 3.33 0 0 1 2.494-2.979l1.876 2.483a.391.391 0 0 0 .571.056l.213-.19.114.658-.6 3.531H5.861v-1.963a.391.391 0 1 0-.781 0v1.963H3.546zm12.907 3.559H14.92v-1.963a.391.391 0 1 0-.781 0v1.963h-2.357l-.6-3.531.114-.658.215.191a.391.391 0 0 0 .571-.056l1.876-2.483a3.33 3.33 0 0 1 2.493 2.978v3.559z" style="fill:#898989" transform="translate(-2.765)"/>
    <path data-name="Path 840" d="M10.831 9.038a.391.391 0 0 0-.553-.552.394.394 0 0 1-.557 0 .391.391 0 1 0-.552.552 1.175 1.175 0 0 0 1.662 0z" style="fill:#898989" transform="translate(-2.765)"/>
</svg>
