<svg xmlns="http://www.w3.org/2000/svg" width="20" height="20" viewBox="0 0 20 20">
    <defs>
        <clipPath id="2fiyeai4xa">
            <path data-name="Rectangle 466" style="fill:#898989" d="M0 0h20v20H0z"/>
        </clipPath>
    </defs>
    <g style="clip-path:url(#2fiyeai4xa)">
        <path data-name="Path 1018" d="M7.647 10.783h.784a.391.391 0 0 0 0-.781h-.394v-.394a.391.391 0 1 0-.781 0v.461a1.175 1.175 0 0 0 .391 2.283.394.394 0 1 1 0 .788h-.785a.391.391 0 1 0 0 .781h.394v.394a.391.391 0 0 0 .781 0v-.461a1.175 1.175 0 0 0-.391-2.283.394.394 0 1 1 0-.788z" style="fill:#898989"/>
        <path data-name="Path 1019" d="M20 8.039A7.647 7.647 0 0 0 5.514 4.617a7.647 7.647 0 1 0 8.969 10.767A7.651 7.651 0 0 0 20 8.039zm-8.01 9.235-.454-.624a.391.391 0 0 0-.632.459l.454.625a6.821 6.821 0 0 1-3.321 1.081v-.775a.391.391 0 0 0-.781 0v.775a6.821 6.821 0 0 1-3.321-1.081l.454-.625a.391.391 0 0 0-.632-.459l-.454.624a6.9 6.9 0 0 1-2.055-2.824l.737-.24a.391.391 0 0 0-.241-.743l-.737.24a6.877 6.877 0 0 1 0-3.493l.737.24a.391.391 0 0 0 .241-.743l-.737-.239A6.9 6.9 0 0 1 3.3 6.648l.454.624a.391.391 0 1 0 .632-.459l-.454-.625a6.821 6.821 0 0 1 3.324-1.081v.775a.391.391 0 0 0 .781 0v-.775a6.821 6.821 0 0 1 3.321 1.081l-.454.625a.391.391 0 1 0 .632.459l.454-.624a6.9 6.9 0 0 1 2.055 2.823l-.737.239a.391.391 0 0 0 .241.743l.738-.24a6.879 6.879 0 0 1 0 3.493l-.738-.24a.391.391 0 0 0-.241.743l.737.239a6.9 6.9 0 0 1-2.055 2.824zM9.972 4.676a4.12 4.12 0 0 1 5.259 6.311 7.665 7.665 0 0 0-5.259-6.311zm4.915 9.746a7.612 7.612 0 0 0 .406-2.462 4.9 4.9 0 1 0-6.266-7.52 7.669 7.669 0 0 0-2.493-.04 6.913 6.913 0 0 1 1.475-1.676l.455.626a.391.391 0 1 0 .636-.459l-.46-.627a6.8 6.8 0 0 1 3.323-1.079v.775a.391.391 0 1 0 .781 0v-.776a6.8 6.8 0 0 1 3.323 1.079l-.456.627a.391.391 0 1 0 .632.459l.455-.627a6.9 6.9 0 0 1 2.05 2.827l-.734.238a.391.391 0 0 0 .241.743l.735-.239a6.831 6.831 0 0 1 0 3.492l-.737-.239a.391.391 0 0 0-.241.743l.737.24a6.872 6.872 0 0 1-3.865 3.893z" style="fill:#898989"/>
        <path data-name="Path 1020" d="M7.647 7.06a4.9 4.9 0 1 0 4.9 4.9 4.907 4.907 0 0 0-4.9-4.9zm0 9.021a4.12 4.12 0 1 1 4.12-4.12 4.125 4.125 0 0 1-4.12 4.12z" style="fill:#898989"/>
    </g>
</svg>
