<svg xmlns="http://www.w3.org/2000/svg" width="20" height="20" viewBox="0 0 20 20">
    <g data-name="Group 129">
        <path data-name="Path 479" d="M20 1.178A1.176 1.176 0 0 0 18.825 0H7.059a1.176 1.176 0 0 0-1.176 1.178v9.551L2.84 5.83a1.177 1.177 0 0 0-1.618-.378l-.666.414a1.174 1.174 0 0 0-.379 1.619l5.589 8.995a.387.387 0 0 0 .117.12v2.229A1.176 1.176 0 0 0 7.059 20h9.413a.4.4 0 0 0 .276-.114l3.138-3.138a.4.4 0 0 0 .114-.273V1.178zM7.879 16.909l-1.037-.638.925-.575zm-1.655-1.174L2.7 10.069l1.335-.83 3.521 5.666zm-4.349-7 1.335-.83.416.669-1.335.83zM.968 6.53l.666-.414a.394.394 0 0 1 .542.127l.622 1-1.335.83-.622-1a.393.393 0 0 1 .127-.543zm5.7 12.3v-1.75l1.476.907a.394.394 0 0 0 .206.055 1.848 1.848 0 0 0 1.849-1.849v-.8a.493.493 0 0 1 .971-.123l.5 1.958a.564.564 0 0 0 1.072.062 1.907 1.907 0 0 1 1.769-1.214.391.391 0 0 0 0-.781 2.7 2.7 0 0 0-2.225 1.19l-.364-1.411a1.275 1.275 0 0 0-2.509.318v.8A1.067 1.067 0 0 1 8.69 17.2L8.486 15a.394.394 0 0 0-.057-.17l-1.764-2.844V1.178a.394.394 0 0 1 .394-.394h11.766a.394.394 0 0 1 .394.394v14.906h-2.747a.391.391 0 0 0-.391.391v2.747H7.059a.394.394 0 0 1-.394-.394zm10.2-.159v-1.8h1.8z" transform="translate(0 -.003)" style="fill:#898989"/>
        <path data-name="Path 480" d="M201.214 53.344h9.809a.391.391 0 0 0 .391-.391V50.6a.391.391 0 0 0-.391-.391h-9.809a.391.391 0 0 0-.391.391v2.354a.391.391 0 0 0 .391.39zm.391-2.354h9.027v1.573H201.6z" transform="translate(-192.983 -48.246)" style="fill:#898989"/>
        <path data-name="Path 481" d="M201.214 161.439h9.809a.391.391 0 1 0 0-.782h-9.809a.391.391 0 0 0 0 .782z" transform="translate(-192.983 -154.382)" style="fill:#898989"/>
        <path data-name="Path 482" d="M201.214 211.643h9.809a.391.391 0 1 0 0-.782h-9.809a.391.391 0 0 0 0 .782z" transform="translate(-192.983 -202.624)" style="fill:#898989"/>
        <path data-name="Path 483" d="M211.413 261.456a.391.391 0 0 0-.391-.391h-9.809a.391.391 0 0 0 0 .782h9.809a.391.391 0 0 0 .391-.391z" transform="translate(-192.983 -250.867)" style="fill:#898989"/>
        <path data-name="Path 484" d="M206.707 311.269h-5.493a.391.391 0 0 0 0 .782h5.493a.391.391 0 0 0 0-.782z" transform="translate(-192.98 -299.11)" style="fill:#898989"/>
    </g>
</svg>
