<svg xmlns="http://www.w3.org/2000/svg" width="20" height="20" viewBox="0 0 20 20">
    <defs>
        <clipPath id="hyhadew42a">
            <path data-name="Rectangle 108" style="fill:#898989" d="M0 0h20v20H0z"/>
        </clipPath>
    </defs>
    <g style="clip-path:url(#hyhadew42a)">
        <path data-name="Path 382" d="M5.274 6.05a1.4 1.4 0 1 0 1.4 1.4 1.4 1.4 0 0 0-1.4-1.4zm0 2.015a.617.617 0 1 1 .617-.617.618.618 0 0 1-.617.617z" style="fill:#898989"/>
        <path data-name="Path 383" d="M5.274 13.471a1.4 1.4 0 1 0 1.4 1.4 1.4 1.4 0 0 0-1.4-1.4zm0 2.015a.617.617 0 1 1 .617-.617.618.618 0 0 1-.617.617z" style="fill:#898989"/>
        <path data-name="Path 384" d="M5.274 9.76a1.4 1.4 0 1 0 1.4 1.4 1.4 1.4 0 0 0-1.4-1.4zm0 2.015a.617.617 0 1 1 .617-.617.618.618 0 0 1-.617.617z" style="fill:#898989"/>
        <path data-name="Path 385" d="M11.732 7.057H7.779a.391.391 0 1 0 0 .781h3.953a.391.391 0 0 0 0-.781z" style="fill:#898989"/>
        <path data-name="Path 386" d="M19.57 12.99a4.388 4.388 0 0 0-3.982-4.371V3.205a1.205 1.205 0 0 0-1.2-1.2h-4.3A2.075 2.075 0 0 0 5.935 2h-4.3a1.205 1.205 0 0 0-1.2 1.2v15.6a1.205 1.205 0 0 0 1.2 1.2h12.75a1.185 1.185 0 0 0 1.2-1.131v-1.508a4.388 4.388 0 0 0 3.985-4.371zm-4.763-9.785v5.414a4.33 4.33 0 0 0-.968.2v-4.68a.391.391 0 0 0-.391-.391h-1.5v-.966h2.433a.423.423 0 0 1 .423.423zm-3.379 7.563H7.779a.391.391 0 1 0 0 .781h3.288a4.408 4.408 0 0 0 .017 2.929h-3.3a.391.391 0 1 0 0 .781h3.677a4.413 4.413 0 0 0 1.6 1.557v.655H2.96V4.53h10.1v4.634a4.413 4.413 0 0 0-1.63 1.6zM6.355 2.782a.391.391 0 0 0 .384-.464 1.294 1.294 0 1 1 2.542 0 .391.391 0 0 0 .384.464h1.505v.966H4.848v-.966zm8.03 16.436H1.634a.423.423 0 0 1-.423-.423V3.205a.423.423 0 0 1 .423-.423h2.433v.966h-1.5a.391.391 0 0 0-.391.391v13.723a.391.391 0 0 0 .391.391h10.88a.391.391 0 0 0 .391-.391v-.7a4.332 4.332 0 0 0 .968.2v1.508a.417.417 0 0 1-.422.349zM15.2 16.6a3.607 3.607 0 1 1 3.591-3.607A3.6 3.6 0 0 1 15.2 16.6z" style="fill:#898989"/>
        <path data-name="Path 387" d="M15.926 12.783h-.338v-.828a.391.391 0 1 0-.781 0v1.219a.391.391 0 0 0 .391.391h.729a.391.391 0 1 0 0-.781z" style="fill:#898989"/>
    </g>
</svg>
