<svg xmlns="http://www.w3.org/2000/svg" width="20" height="20" viewBox="0 0 20 20">
    <defs>
        <clipPath id="7jq6wtgmda">
            <path data-name="Rectangle 577" style="fill:#898989" d="M0 0h20v20H0z"/>
        </clipPath>
    </defs>
    <g style="clip-path:url(#7jq6wtgmda)">
        <path data-name="Path 1320" d="M18.438 2.383h-1.211V1.6A1.173 1.173 0 0 0 16.055.43h-.391a1.173 1.173 0 0 0-1.172 1.17v.781H13.32V1.6A1.173 1.173 0 0 0 12.148.43h-.391a1.173 1.173 0 0 0-1.171 1.17v.781H9.414V1.6A1.173 1.173 0 0 0 8.242.43h-.39A1.173 1.173 0 0 0 6.68 1.6v.781H5.508V1.6A1.173 1.173 0 0 0 4.336.43h-.391A1.173 1.173 0 0 0 2.773 1.6v.781h-1.21A1.564 1.564 0 0 0 0 3.945v14.063a1.564 1.564 0 0 0 1.563 1.562h16.875A1.564 1.564 0 0 0 20 18.008V3.945a1.564 1.564 0 0 0-1.562-1.562zM15.273 1.6a.391.391 0 0 1 .391-.391h.391a.391.391 0 0 1 .391.391v2.345a.391.391 0 0 1-.391.391h-.391a.391.391 0 0 1-.391-.391zm-3.906 0a.391.391 0 0 1 .391-.391h.391a.391.391 0 0 1 .391.391v2.345a.391.391 0 0 1-.391.391h-.391a.391.391 0 0 1-.391-.391zm-3.906 0a.391.391 0 0 1 .391-.391h.391a.391.391 0 0 1 .391.391v2.345a.391.391 0 0 1-.391.391h-.391a.391.391 0 0 1-.391-.391zm-3.906 0a.391.391 0 0 1 .391-.391h.391a.391.391 0 0 1 .391.391v2.345a.391.391 0 0 1-.391.391h-.392a.391.391 0 0 1-.391-.391zm15.664 16.408a.782.782 0 0 1-.781.781H1.563a.782.782 0 0 1-.781-.781V3.945a.782.782 0 0 1 .781-.781h1.21v.781a1.173 1.173 0 0 0 1.172 1.172h.391a1.173 1.173 0 0 0 1.172-1.172v-.781H6.68v.781a1.173 1.173 0 0 0 1.172 1.172h.391a1.173 1.173 0 0 0 1.171-1.172v-.781h1.172v.781a1.173 1.173 0 0 0 1.172 1.172h.391a1.173 1.173 0 0 0 1.171-1.172v-.781h1.172v.781a1.173 1.173 0 0 0 1.172 1.172h.391a1.173 1.173 0 0 0 1.172-1.172v-.781h1.211a.782.782 0 0 1 .781.781z" style="fill:#898989"/>
        <path data-name="Path 1321" d="M17.617 6.289H2.383a.391.391 0 0 0-.391.391v10.547a.391.391 0 0 0 .391.391h15.234a.391.391 0 0 0 .391-.391V6.68a.391.391 0 0 0-.391-.391zm-.391 10.547H2.773V7.07h14.454z" style="fill:#898989"/>
        <path data-name="Path 1322" d="M4.336 11.367H6.68a.391.391 0 0 0 .391-.391V8.633a.391.391 0 0 0-.391-.391H4.336a.391.391 0 0 0-.391.391v2.344a.391.391 0 0 0 .391.39zm.391-2.344h1.562v1.562H4.727z" style="fill:#898989"/>
        <path data-name="Path 1323" d="M8.828 11.367h2.344a.391.391 0 0 0 .391-.391V8.633a.391.391 0 0 0-.391-.391H8.828a.391.391 0 0 0-.391.391v2.344a.391.391 0 0 0 .391.39zm.391-2.344h1.562v1.562H9.219z" style="fill:#898989"/>
        <path data-name="Path 1324" d="M13.32 11.367h2.344a.391.391 0 0 0 .391-.391V8.633a.391.391 0 0 0-.391-.391H13.32a.391.391 0 0 0-.391.391v2.344a.391.391 0 0 0 .391.39zm.391-2.344h1.563v1.562h-1.563z" style="fill:#898989"/>
        <path data-name="Path 1325" d="M4.336 15.664H6.68a.391.391 0 0 0 .391-.391V12.93a.391.391 0 0 0-.391-.391H4.336a.391.391 0 0 0-.391.391v2.344a.391.391 0 0 0 .391.39zm.391-2.344h1.562v1.563H4.727z" style="fill:#898989"/>
        <path data-name="Path 1326" d="M8.828 15.664h2.344a.391.391 0 0 0 .391-.391V12.93a.391.391 0 0 0-.391-.391H8.828a.391.391 0 0 0-.391.391v2.344a.391.391 0 0 0 .391.39zm.391-2.344h1.562v1.563H9.219z" style="fill:#898989"/>
        <path data-name="Path 1327" d="M13.32 15.664h2.344a.391.391 0 0 0 .391-.391V12.93a.391.391 0 0 0-.391-.391H13.32a.391.391 0 0 0-.391.391v2.344a.391.391 0 0 0 .391.39zm.391-2.344h1.563v1.563h-1.563z" style="fill:#898989"/>
    </g>
</svg>
