<svg xmlns="http://www.w3.org/2000/svg" width="20" height="20" viewBox="0 0 20 20">
    <defs>
        <clipPath id="lpbaw8unna">
            <path d="M0-682.665h20v20H0z" transform="translate(0 682.665)"/>
        </clipPath>
    </defs>
    <g style="clip-path:url(#lpbaw8unna)">
        <path d="m-214.051-187.919-6.46-5.672" transform="translate(221.36 200.932)" style="fill:none;stroke:#898989;stroke-linecap:round;stroke-linejoin:round;stroke-miterlimit:10"/>
    </g>
    <path d="M-68.363 0-70.5 1.873" transform="translate(80.204 11.163)" style="fill:none;stroke:#898989;stroke-linecap:round;stroke-linejoin:round;stroke-miterlimit:10"/>
    <g style="clip-path:url(#lpbaw8unna)">
        <path d="m0-187 6.283-5.15a2.177 2.177 0 0 1 2.761 0l6.268 5.137" transform="translate(.864 205.342)" style="fill:none;stroke:#898989;stroke-linecap:round;stroke-linejoin:round;stroke-miterlimit:10"/>
        <path d="m-339.932-36.519-.743-.609a2.177 2.177 0 0 0-2.761 0l-5.935 4.865a1.282 1.282 0 0 0-.821 1.2v9.348a1.281 1.281 0 0 0 1.28 1.281h13.712a1.281 1.281 0 0 0 1.28-1.281v-6.168" transform="translate(350.582 39.205)" style="fill:none;stroke:#898989;stroke-linecap:round;stroke-linejoin:round;stroke-miterlimit:10"/>
        <path d="M-174.061 0a5.252 5.252 0 0 0-5.253 5.251 5.225 5.225 0 0 0 .882 2.913l-.455 1.318 1.3-.339a5.235 5.235 0 0 0 3.527 1.359 5.252 5.252 0 0 0 5.253-5.251A5.252 5.252 0 0 0-174.061 0z" transform="translate(188.417 1.232)" style="fill:none;stroke:#898989;stroke-linecap:round;stroke-linejoin:round;stroke-miterlimit:10"/>
        <path d="M0 0h3.09" style="fill:none;stroke:#898989;stroke-linecap:round;stroke-linejoin:round;stroke-miterlimit:10" transform="translate(6.982 16.603)"/>
        <path d="M0 0h3.09" style="fill:none;stroke:#898989;stroke-linecap:round;stroke-linejoin:round;stroke-miterlimit:10" transform="translate(12.887 5.718)"/>
        <path d="M0 0h3.09" style="fill:none;stroke:#898989;stroke-linecap:round;stroke-linejoin:round;stroke-miterlimit:10" transform="translate(12.887 7.492)"/>
    </g>
</svg>
