<svg xmlns="http://www.w3.org/2000/svg" width="15.779" height="20" viewBox="0 0 15.779 20">
    <path data-name="Path 1196" d="M15.82 13.852a11.656 11.656 0 0 0-3.536-1.167l-.4-.083v-.718a4.254 4.254 0 0 0 2.359-3.537h.241a1.377 1.377 0 0 0 .391-2.7v-.332A4.9 4.9 0 0 0 11.671.743l.049-.288A.391.391 0 0 0 11.335 0H8.666a.391.391 0 0 0-.386.455l.048.287a4.9 4.9 0 0 0-3.207 4.573v.333a1.377 1.377 0 0 0 .391 2.7h.241a4.254 4.254 0 0 0 2.359 3.537v.715l-.4.083a11.659 11.659 0 0 0-3.532 1.169 3.956 3.956 0 0 0-2.07 3.6v2.157A.391.391 0 0 0 2.5 20h15a.391.391 0 0 0 .391-.391v-2.157a3.956 3.956 0 0 0-2.07-3.6zm-10.572.336a9.171 9.171 0 0 1 1.2-.409V16.8a.391.391 0 0 0 .391.391h6.331a.391.391 0 0 0 .391-.391v-3.02a9.17 9.17 0 0 1 1.2.409v5.031h-9.5zm9.839-7.22a.6.6 0 0 1-.6.6h-.232V6.372h.232a.6.6 0 0 1 .599.596zM10.873.781l-.263 1.564H9.39L9.127.781zM5.9 5.315a4.112 4.112 0 0 1 2.561-3.786L8.674 2.8a.391.391 0 0 0 .385.326h1.881a.391.391 0 0 0 .385-.326l.214-1.272A4.112 4.112 0 0 1 14.1 5.315v.276H5.9zm-.986 1.653a.6.6 0 0 1 .6-.6h.232v1.197h-.234a.6.6 0 0 1-.598-.597zm1.611 1.109V6.372h6.95v1.705a3.475 3.475 0 0 1-6.95 0zM10 12.325a4.257 4.257 0 0 0 1.107-.146v.735a1.107 1.107 0 0 1-2.214 0v-.735a4.259 4.259 0 0 0 1.107.146zM7.876 13.45l.3-.062a1.889 1.889 0 0 0 3.656 0l.3.062c.208.043.426.089.65.139v2.818H7.225v-2.819c.224-.05.443-.1.65-.139zm-4.984 4a3.162 3.162 0 0 1 1.575-2.859v4.626H2.892zm14.217 1.766h-1.575v-4.623a3.162 3.162 0 0 1 1.575 2.859z" style="fill:#898989" transform="translate(-2.11)"/>
    <path data-name="Path 1197" d="M8.569 4.749h2.862a.391.391 0 0 0 0-.781H8.569a.391.391 0 1 0 0 .781z" style="fill:#898989" transform="translate(-2.11)"/>
</svg>
