<svg xmlns="http://www.w3.org/2000/svg" width="20" height="20" viewBox="0 0 20 20">
    <defs>
        <clipPath id="c9e6f6rsta">
            <path d="M0-682.665h20v20H0z" transform="translate(0 682.665)"/>
        </clipPath>
    </defs>
    <g style="clip-path:url(#c9e6f6rsta)">
        <path d="M-334.629-509.442a7.856 7.856 0 0 1-2.246.326 7.852 7.852 0 0 1-7.853-7.851 7.852 7.852 0 0 1 7.853-7.851 7.852 7.852 0 0 1 7.853 7.851 7.881 7.881 0 0 1-.166 1.614" transform="translate(345.119 525.47)" style="fill:none;stroke:#898989;stroke-linecap:round;stroke-linejoin:round;stroke-miterlimit:10"/>
        <path d="M-272.5-393.864a6.1 6.1 0 0 1-2.094.368 6.136 6.136 0 0 1-6.13-6.128 6.136 6.136 0 0 1 6.13-6.128 6.136 6.136 0 0 1 6.13 6.128 6.115 6.115 0 0 1-.205 1.575" transform="translate(282.84 408.127)" style="fill:none;stroke:#898989;stroke-linecap:round;stroke-linejoin:round;stroke-miterlimit:10"/>
        <path d="M0 0v2.984h1.445" style="fill:none;stroke:#898989;stroke-linecap:round;stroke-linejoin:round;stroke-miterlimit:10" transform="translate(8.244 5.52)"/>
        <path d="M0 0v.613" style="fill:none;stroke:#898989;stroke-linecap:round;stroke-linejoin:round;stroke-miterlimit:10" transform="translate(8.244 2.498)"/>
        <path d="M0 0v.613" style="fill:none;stroke:#898989;stroke-linecap:round;stroke-linejoin:round;stroke-miterlimit:10" transform="translate(8.244 13.897)"/>
        <path d="M-20.323 0h-.613" transform="translate(34.575 8.504)" style="fill:none;stroke:#898989;stroke-linecap:round;stroke-linejoin:round;stroke-miterlimit:10"/>
        <path d="M-20.323 0h-.613" transform="translate(23.172 8.504)" style="fill:none;stroke:#898989;stroke-linecap:round;stroke-linejoin:round;stroke-miterlimit:10"/>
        <path d="m-14.372 0-.434.434" transform="translate(26.864 4.257)" style="fill:none;stroke:#898989;stroke-linecap:round;stroke-linejoin:round;stroke-miterlimit:10"/>
        <path d="m-14.37 0-.43.434" transform="translate(18.8 12.318)" style="fill:none;stroke:#898989;stroke-linecap:round;stroke-linejoin:round;stroke-miterlimit:10"/>
        <path d="m-14.37-14.366-.43-.434" transform="translate(18.8 19.057)" style="fill:none;stroke:#898989;stroke-linecap:round;stroke-linejoin:round;stroke-miterlimit:10"/>
        <path d="M-153.587-307.065a4.64 4.64 0 0 1-4.635-4.634 4.64 4.64 0 0 1 4.635-4.634 4.64 4.64 0 0 1 4.635 4.634 4.64 4.64 0 0 1-4.635 4.634z" transform="translate(168.56 326.412)" style="fill:none;stroke:#898989;stroke-linecap:round;stroke-linejoin:round;stroke-miterlimit:10"/>
        <path d="m0-24.26.64.523.786-1.255" transform="translate(14.261 38.953)" style="fill:none;stroke:#898989;stroke-linecap:round;stroke-linejoin:round;stroke-miterlimit:10"/>
    </g>
</svg>
