<svg xmlns="http://www.w3.org/2000/svg" width="21" height="20.992" viewBox="0 0 21 20.992">
    <g data-name="Group 369">
        <path data-name="Line 190" transform="translate(17.393 3.585)" style="stroke-miterlimit:2.613;fill:none;stroke:#898989;stroke-linecap:round;stroke-linejoin:round" d="M0 0v5.819"/>
        <path data-name="Path 2319" d="M244.219 123.794h-1.369c-.838 0-1.453-1.526-3.515-2.141a1.037 1.037 0 0 1-.747-1.336h0a1.226 1.226 0 0 1 1.5-.666l1.894.565" transform="translate(-228.737 -114.642)" style="fill-rule:evenodd;stroke-miterlimit:2.613;fill:none;stroke:#898989;stroke-linecap:round;stroke-linejoin:round"/>
        <path data-name="Rectangle 890" transform="translate(15.653 3.415)" style="stroke-miterlimit:2.613;fill:none;stroke:#898989;stroke-linecap:round;stroke-linejoin:round" d="M0 0h4.847v6.16H0z"/>
        <path data-name="Path 2320" d="M88.613 16.583a4.064 4.064 0 1 1 .851-2.091" transform="translate(-77.955 -9.501)" style="stroke-miterlimit:22.926;fill-rule:evenodd;fill:none;stroke:#898989;stroke-linecap:round;stroke-linejoin:round"/>
        <path data-name="Path 2321" d="m165.237 70.151-.216-.09a.8.8 0 0 0-.611 1.476l.216.09.216.09a.8.8 0 0 1-.611 1.476l-.216-.09" transform="translate(-157.16 -67.062)" style="stroke-miterlimit:22.926;fill-rule:evenodd;fill:none;stroke:#898989;stroke-linecap:round;stroke-linejoin:round"/>
        <path data-name="Line 191" transform="translate(7.466 6.389)" style="stroke-miterlimit:22.926;fill:none;stroke:#898989;stroke-linecap:round;stroke-linejoin:round" d="M0 .613V0"/>
        <path data-name="Line 192" transform="translate(7.466 2.129)" style="stroke-miterlimit:22.926;fill:none;stroke:#898989;stroke-linecap:round;stroke-linejoin:round" d="M0 .613V0"/>
        <path data-name="Line 193" transform="translate(3.607 13.533)" style="stroke-miterlimit:2.613;fill:none;stroke:#898989;stroke-linecap:round;stroke-linejoin:round" d="M0 5.819V0"/>
        <path data-name="Path 2322" d="M133.431 336.8h1.369c.838 0 1.453 1.526 3.515 2.141a1.037 1.037 0 0 1 .747 1.336h0a1.226 1.226 0 0 1-1.5.666l-1.894-.565" transform="translate(-127.913 -323.017)" style="fill-rule:evenodd;stroke-miterlimit:2.613;fill:none;stroke:#898989;stroke-linecap:round;stroke-linejoin:round"/>
        <path data-name="Path 2323" d="M134.553 386.905c1.633-.108 3.02-1.133 4.418-1.854 1.659-.889 3.106.8 1.462 1.678-3.951 2.116-6.446 4.073-11.171 1.857" transform="translate(-123.914 -369.064)" style="fill-rule:evenodd;stroke-miterlimit:2.613;fill:none;stroke:#898989;stroke-linecap:round;stroke-linejoin:round"/>
        <path data-name="Rectangle 891" transform="translate(.5 13.362)" style="stroke-miterlimit:2.613;fill:none;stroke:#898989;stroke-linecap:round;stroke-linejoin:round" d="M0 0h4.847v6.16H0z"/>
        <path data-name="Line 194" transform="translate(7.466 8.833)" style="stroke-miterlimit:22.926;fill:none;stroke:#898989;stroke-linecap:round;stroke-linejoin:round" d="M0 3.038V0"/>
        <path data-name="Path 2324" d="m150.283 258.662 1.263 1.466 1.263-1.466" transform="translate(-144.08 -248.054)" style="stroke-miterlimit:22.926;fill-rule:evenodd;fill:none;stroke:#898989;stroke-linecap:round;stroke-linejoin:round"/>
        <path data-name="Path 2325" d="M276.37 63.695a22.044 22.044 0 0 0-4.506-.763" transform="translate(-260.719 -60.28)" style="stroke-miterlimit:22.926;fill-rule:evenodd;fill:none;stroke:#898989;stroke-linecap:round;stroke-linejoin:round"/>
    </g>
</svg>
