<svg xmlns="http://www.w3.org/2000/svg" width="20" height="20" viewBox="0 0 20 20">
    <defs>
        <clipPath id="00ywn9y4ja">
            <path d="M0-682.665h20v20H0z" transform="translate(0 682.665)" style="fill:#898989"/>
        </clipPath>
    </defs>
    <path d="M134.581-422.718h-2.295v-2.234h2.295z" transform="translate(-128.414 432.497)" style="fill:none;stroke:#898989;stroke-linecap:round;stroke-linejoin:round;stroke-miterlimit:10"/>
    <path d="M134.581-291.582h-2.295v-2.234h2.295z" transform="translate(-128.414 305.201)" style="fill:none;stroke:#898989;stroke-linecap:round;stroke-linejoin:round;stroke-miterlimit:10"/>
    <path d="M134.581-160.448h-2.295v-2.234h2.295z" transform="translate(-128.414 177.89)" style="fill:none;stroke:#898989;stroke-linecap:round;stroke-linejoin:round;stroke-miterlimit:10"/>
    <g style="clip-path:url(#00ywn9y4ja)">
        <path d="M-205.953-80.973v-2.444h-6.216V-67.9h6.216" transform="translate(220.274 87.513)" style="fill:none;stroke:#898989;stroke-linecap:round;stroke-linejoin:round;stroke-miterlimit:10"/>
    </g>
    <path d="M308-619.171h4.4v-2.317H308z" transform="translate(-298.99 623.29)" style="fill:none;stroke:#898989;stroke-linecap:round;stroke-linejoin:round;stroke-miterlimit:10"/>
    <path d="M0 0v9.445" style="fill:none;stroke:#898989;stroke-linecap:round;stroke-linejoin:round;stroke-miterlimit:10" transform="translate(10.187 7.424)"/>
    <g style="clip-path:url(#00ywn9y4ja)">
        <path d="M0 0v1.264" style="fill:none;stroke:#898989;stroke-linecap:round;stroke-linejoin:round;stroke-miterlimit:10" transform="translate(11.102 .391)"/>
        <path d="M71.993-476.87h-6.177v-13.99h6.177z" transform="translate(-63.888 496.479)" style="fill:none;stroke:#898989;stroke-linecap:round;stroke-linejoin:round;stroke-miterlimit:10"/>
        <path d="M423.595-442.085h-5.836v-12.94h5.836z" transform="translate(-405.52 461.695)" style="fill:none;stroke:#898989;stroke-linecap:round;stroke-linejoin:round;stroke-miterlimit:10"/>
    </g>
    <path d="M0 0h1.66" style="fill:none;stroke:#898989;stroke-linecap:round;stroke-linejoin:round;stroke-miterlimit:10" transform="translate(14.324 9.255)"/>
    <path d="M0 0h1.66" style="fill:none;stroke:#898989;stroke-linecap:round;stroke-linejoin:round;stroke-miterlimit:10" transform="translate(14.324 11.214)"/>
    <path d="M0 0h1.66" style="fill:none;stroke:#898989;stroke-linecap:round;stroke-linejoin:round;stroke-miterlimit:10" transform="translate(14.324 13.172)"/>
    <g style="clip-path:url(#00ywn9y4ja)">
        <path d="M-56.589-119.078v-3.594H-58.3v3.594" transform="translate(72.6 138.687)" style="fill:none;stroke:#898989;stroke-linecap:round;stroke-linejoin:round;stroke-miterlimit:10"/>
        <path d="M0 0h17.966" style="fill:none;stroke:#898989;stroke-linecap:round;stroke-linejoin:round;stroke-miterlimit:10" transform="translate(1.017 19.609)"/>
    </g>
</svg>
