<svg xmlns="http://www.w3.org/2000/svg" width="21" height="21" viewBox="0 0 21 21">
    <path data-name="Path 2941" d="M50 10h13.574a1.561 1.561 0 0 1 1.548 1.576v15.253" transform="translate(-47.549 -9.5)" style="fill-rule:evenodd;fill:none;stroke:#898989;stroke-linecap:round;stroke-linejoin:round;stroke-miterlimit:22.926"/>
    <path data-name="Path 2942" d="M14.878 30h13.5A1.626 1.626 0 0 0 30 28.374v-.813H16.5v.813a1.626 1.626 0 0 1-3.252 0V11.626a1.626 1.626 0 0 0-3.252 0v.813h3.049" style="fill-rule:evenodd;fill:none;stroke:#898989;stroke-linecap:round;stroke-linejoin:round;stroke-miterlimit:22.926" transform="translate(-9.5 -9.5)"/>
    <path data-name="Rectangle 1290" transform="translate(5.35 3.427)" style="fill:none;stroke:#898989;stroke-linecap:round;stroke-linejoin:round;stroke-miterlimit:22.926" d="M0 0h10.976v4.487H0z"/>
    <path data-name="Rectangle 1291" transform="translate(11.314 8.721)" style="fill:none;stroke:#898989;stroke-linecap:round;stroke-linejoin:round;stroke-miterlimit:22.926" d="M0 0h4.39v2.991H0z"/>
    <path data-name="Rectangle 1292" transform="translate(11.314 13.362)" style="fill:none;stroke:#898989;stroke-linecap:round;stroke-linejoin:round;stroke-miterlimit:22.926" d="M0 0h4.39v2.991H0z"/>
    <path data-name="Line 254" transform="translate(8.693 4.808)" style="fill:none;stroke:#898989;stroke-linecap:round;stroke-linejoin:round;stroke-miterlimit:22.926" d="M0 0h4.39"/>
    <path data-name="Line 255" transform="translate(13.65 6.749)" style="fill:none;stroke:#898989;stroke-linecap:round;stroke-linejoin:round;stroke-miterlimit:22.926" d="M0 2.254V0"/>
    <path data-name="Line 256" transform="translate(13.65 11.427)" style="fill:none;stroke:#898989;stroke-linecap:round;stroke-linejoin:round;stroke-miterlimit:22.926" d="M0 0v2.254"/>
    <path data-name="Path 2943" d="M202.648 219.5H198.5v-7.53" transform="translate(-190.659 -204.011)" style="fill-rule:evenodd;fill:none;stroke:#898989;stroke-linecap:round;stroke-linejoin:round;stroke-miterlimit:22.926"/>
    <path data-name="Path 2944" d="m178.5 202.946.976-.976.976.976" transform="translate(-171.274 -193.733)" style="fill-rule:evenodd;fill:none;stroke:#898989;stroke-linecap:round;stroke-linejoin:round;stroke-miterlimit:22.926"/>
</svg>
