<svg xmlns="http://www.w3.org/2000/svg" width="42" height="42" viewBox="0 0 42 42">
    <defs>
        <clipPath id="w57cj8n7ta">
            <path data-name="Rectangle 327" transform="translate(.167)" style="fill:#cacaca" d="M0 0h42v42H0z"/>
        </clipPath>
    </defs>
    <g transform="translate(-.167)" style="clip-path:url(#w57cj8n7ta)">
        <path data-name="Path 661" d="M1.87 7.857a8.373 8.373 0 0 0 2.2 3.866l.976.964L12.7 5.029l-.976-.964a8.378 8.378 0 0 0-3.866-2.2L.511.012a.41.41 0 0 0-.5.5z" transform="translate(-.018)" style="fill:#cacaca"/>
        <path data-name="Path 662" d="m7.608 15.2 7.658-7.658-3.726-3.68-7.658 7.658z" transform="translate(2.894 2.896)" style="fill:#cacaca"/>
        <path data-name="Path 663" d="m13.658 21.317 7.657-7.657 4.59 4.59-7.657 7.657z" transform="translate(10.226 10.245)" style="fill:#cacaca"/>
        <path data-name="Path 664" d="m24.937 17.278-7.659 7.658 2.522 2.52a5.415 5.415 0 0 0 7.658-7.656z" transform="translate(12.941 12.958)" style="fill:#cacaca"/>
        <path data-name="Path 665" d="M18.945 22.549a1.23 1.23 0 0 1 1.74 0l4.239 4.238 1.865-1.865L24.37 22.5a1.231 1.231 0 0 1 1.74-1.74l2.419 2.419 1.9-1.9-4.239-4.238a1.23 1.23 0 1 1 1.74-1.74l4.239 4.238 1.9-1.9-2.419-2.419a1.23 1.23 0 0 1 1.74-1.74l2.419 2.419 1.9-1.9-4.243-4.229a1.23 1.23 0 0 1 1.74-1.74l4.238 4.238 1.741-1.743a2.78 2.78 0 0 0 0-3.932L35.407.814a2.781 2.781 0 0 0-3.933 0L.814 31.475a2.78 2.78 0 0 0 0 3.932l5.778 5.778a2.781 2.781 0 0 0 3.932 0l1.743-1.743-2.418-2.419a1.231 1.231 0 0 1 1.74-1.74l2.42 2.417 1.9-1.9-4.239-4.238a1.231 1.231 0 0 1 1.74-1.74l4.239 4.238 1.9-1.9-2.419-2.419a1.231 1.231 0 0 1 1.74-1.74l2.419 2.419 1.9-1.9-4.239-4.238a1.23 1.23 0 0 1 0-1.74z" transform="translate(-.018)" style="fill:#cacaca"/>
    </g>
</svg>
