<svg xmlns="http://www.w3.org/2000/svg" width="15.234" height="20" viewBox="0 0 15.234 20">
    <path data-name="Path 388" d="M4.617 20h11.719a1.76 1.76 0 0 0 1.758-1.758V5.859h-4.1a1.76 1.76 0 0 1-1.76-1.759V0H4.617a1.76 1.76 0 0 0-1.758 1.758v16.484A1.76 1.76 0 0 0 4.617 20zM6.961 8.242h7.031a.586.586 0 0 1 0 1.172H6.961a.586.586 0 0 1 0-1.172zm0 2.344h7.031a.586.586 0 0 1 0 1.172H6.961a.586.586 0 0 1 0-1.172zm0 2.344h7.031a.586.586 0 0 1 0 1.172H6.961a.586.586 0 0 1 0-1.172zm0 2.344h4.687a.586.586 0 1 1 0 1.172H6.961a.586.586 0 0 1 0-1.172z" transform="translate(-2.859)" style="fill:#fff"/>
    <path data-name="Path 389" d="M16.1 4.756h3.76L15.516.412V4.17a.586.586 0 0 0 .584.586z" transform="translate(-4.969 -.069)" style="fill:#fff"/>
</svg>
