<svg xmlns="http://www.w3.org/2000/svg" width="21" height="21" viewBox="0 0 21 21">
    <g data-name="Group 357">
        <g data-name="Group 356">
            <path d="M15.306 70.245h13.47A1.224 1.224 0 0 1 30 71.469v8.571H10v-8.571a1.224 1.224 0 0 1 1.224-1.224h.408" transform="translate(-9.5 -67.296)" style="fill:none;stroke:#898989;stroke-linecap:round;stroke-linejoin:round;stroke-miterlimit:10"/>
            <path d="M25.918 314.49h2.857A1.224 1.224 0 0 0 30 313.266v-2.041H10v2.041a1.224 1.224 0 0 0 1.224 1.224h2.857" transform="translate(-9.5 -298.48)" style="fill:none;stroke:#898989;stroke-linecap:round;stroke-linejoin:round;stroke-miterlimit:10"/>
            <path transform="translate(3.357 14.378)" style="fill:none;stroke:#898989;stroke-linecap:round;stroke-linejoin:round;stroke-miterlimit:10" d="M0 0h14.286"/>
            <path d="M53.023 20.612h-2.047a.813.813 0 0 1-.813-.813v-8.986a.813.813 0 0 1 .813-.813h2.047a.813.813 0 0 1 .813.813V19.8a.813.813 0 0 1-.813.812z" transform="translate(-48.03 -9.5)" style="fill:none;stroke:#898989;stroke-linecap:round;stroke-linejoin:round;stroke-miterlimit:10"/>
            <path transform="translate(7.439 4.582)" style="fill:none;stroke:#898989;stroke-linecap:round;stroke-linejoin:round;stroke-miterlimit:10" d="M0 0h11.429v2.857H0z"/>
            <path transform="translate(7.439 9.071)" style="fill:none;stroke:#898989;stroke-linecap:round;stroke-linejoin:round;stroke-miterlimit:10" d="M0 0h2.286v2.041H0z"/>
            <path transform="translate(9.724 9.071)" style="fill:none;stroke:#898989;stroke-linecap:round;stroke-linejoin:round;stroke-miterlimit:10" d="M0 0h2.286v2.041H0z"/>
            <path transform="translate(12.01 9.071)" style="fill:none;stroke:#898989;stroke-linecap:round;stroke-linejoin:round;stroke-miterlimit:10" d="M0 0h2.286v2.041H0z"/>
            <path transform="translate(14.296 9.071)" style="fill:none;stroke:#898989;stroke-linecap:round;stroke-linejoin:round;stroke-miterlimit:10" d="M0 0h2.286v2.041H0z"/>
            <path transform="translate(16.582 9.071)" style="fill:none;stroke:#898989;stroke-linecap:round;stroke-linejoin:round;stroke-miterlimit:10" d="M0 0h2.286v2.041H0z"/>
            <path d="M121.432 357.51h-10.211a.813.813 0 0 1-.813-.813v-5.309h11.837v5.312a.813.813 0 0 1-.813.81z" transform="translate(-105.826 -337.01)" style="fill:none;stroke:#898989;stroke-linecap:round;stroke-linejoin:round;stroke-miterlimit:10"/>
            <path transform="translate(6.622 16.418)" style="fill:none;stroke:#898989;stroke-linecap:round;stroke-linejoin:round;stroke-miterlimit:10" d="M0 0h7.755"/>
            <path transform="translate(6.622 18.459)" style="fill:none;stroke:#898989;stroke-linecap:round;stroke-linejoin:round;stroke-miterlimit:10" d="M0 0h7.755"/>
        </g>
    </g>
</svg>
