<svg xmlns="http://www.w3.org/2000/svg" width="20" height="20" viewBox="0 0 20 20">
  <g id="ic_dashboard" transform="translate(-1 -1)">
    <path id="Path_2708" data-name="Path 2708" d="M1,20.926H21v1.327H1ZM4,9.645a1,1,0,0,0-1,1V19.6H7V10.641a1,1,0,0,0-1-1Zm6,5.309a1,1,0,0,0-1,1V19.6h4v-3.65a1,1,0,0,0-1-1Zm6,1.991a1,1,0,0,0-1,1V19.6h4V17.94a1,1,0,0,0-1-1ZM9.2,11.025a4.6,4.6,0,0,0,3.133,3.086,5.008,5.008,0,0,0,1.333.179,4.656,4.656,0,0,0,4.667-4.645.665.665,0,0,0-.667-.664H15.333a1,1,0,0,1-1-1V5.664A.665.665,0,0,0,13.667,5,4.651,4.651,0,0,0,9.2,11.025Z" transform="translate(0 -1.253)" fill="#898989"/>
    <path id="Path_2709" data-name="Path 2709" d="M16.333,6.493h4A.677.677,0,0,0,21,5.807,4.738,4.738,0,0,0,16.333,1a.677.677,0,0,0-.667.687V5.47C15.667,6.184,15.967,6.493,16.333,6.493ZM1,1h9.333V2.373H1ZM1,3.747H7V5.12H1Z" fill="#898989"/>
  </g>
</svg>
