<svg xmlns="http://www.w3.org/2000/svg" width="21" height="21" viewBox="0 0 21 21">
    <g data-name="Group 540">
        <path d="m13.141 10 1.322 1.322v4.629H10V10z" transform="translate(-9.5 -9.5)" style="fill:none;stroke:#898989;stroke-linecap:round;stroke-linejoin:round;stroke-miterlimit:10"/>
        <path transform="translate(1.822 2.484)" style="fill:none;stroke:#898989;stroke-linecap:round;stroke-linejoin:round;stroke-miterlimit:10" d="M0 0h1.818"/>
        <path transform="translate(1.822 5.398)" style="fill:none;stroke:#898989;stroke-linecap:round;stroke-linejoin:round;stroke-miterlimit:10" d="M0 0h1.818"/>
        <path d="m369.59 10 1.322 1.322v4.629h-4.463V10z" transform="translate(-350.412 -9.5)" style="fill:none;stroke:#898989;stroke-linecap:round;stroke-linejoin:round;stroke-miterlimit:10"/>
        <path transform="translate(17.359 2.484)" style="fill:none;stroke:#898989;stroke-linecap:round;stroke-linejoin:round;stroke-miterlimit:10" d="M0 0h1.818"/>
        <path transform="translate(17.359 5.398)" style="fill:none;stroke:#898989;stroke-linecap:round;stroke-linejoin:round;stroke-miterlimit:10" d="M0 0h1.818"/>
        <path d="m191.365 10 1.322 1.322v4.629h-4.463V10z" transform="translate(-179.956 -9.5)" style="fill:none;stroke:#898989;stroke-linecap:round;stroke-linejoin:round;stroke-miterlimit:10"/>
        <path transform="translate(9.591 2.484)" style="fill:none;stroke:#898989;stroke-linecap:round;stroke-linejoin:round;stroke-miterlimit:10" d="M0 0h1.818"/>
        <path transform="translate(9.591 5.398)" style="fill:none;stroke:#898989;stroke-linecap:round;stroke-linejoin:round;stroke-miterlimit:10" d="M0 0h1.818"/>
        <path d="M93.312 190.735v1.488H77.775v-1.488" transform="translate(-75.043 -182.747)" style="fill:none;stroke:#898989;stroke-linecap:round;stroke-linejoin:round;stroke-miterlimit:10"/>
        <path transform="translate(3.806 17.855)" style="fill:none;stroke:#898989;stroke-linecap:round;stroke-linejoin:round;stroke-miterlimit:10" d="M0 0h13.388v2.645H0z"/>
        <path transform="translate(6.214 19.178)" style="fill:none;stroke:#898989;stroke-linecap:round;stroke-linejoin:round;stroke-miterlimit:10" d="M0 0h0"/>
        <path transform="translate(7.847 19.178)" style="fill:none;stroke:#898989;stroke-linecap:round;stroke-linejoin:round;stroke-miterlimit:10" d="M0 0h0"/>
        <path transform="translate(10.096 19.178)" style="fill:none;stroke:#898989;stroke-linecap:round;stroke-linejoin:round;stroke-miterlimit:10" d="M0 0h4.298"/>
        <path transform="translate(3.806 14.469)" style="fill:none;stroke:#898989;stroke-linecap:round;stroke-linejoin:round;stroke-miterlimit:10" d="M0 0h13.388v2.645H0z"/>
        <path transform="translate(6.214 15.602)" style="fill:none;stroke:#898989;stroke-linecap:round;stroke-linejoin:round;stroke-miterlimit:10" d="M0 0h0"/>
        <path transform="translate(7.847 15.602)" style="fill:none;stroke:#898989;stroke-linecap:round;stroke-linejoin:round;stroke-miterlimit:10" d="M0 0h0"/>
        <path transform="translate(10.096 15.602)" style="fill:none;stroke:#898989;stroke-linecap:round;stroke-linejoin:round;stroke-miterlimit:10" d="M0 0h4.298"/>
        <path transform="translate(10.5 8.251)" style="fill:none;stroke:#898989;stroke-linecap:round;stroke-linejoin:round;stroke-miterlimit:10" d="M0 0v3.637"/>
        <path d="m237.24 281.1-.661.661-.661-.661" transform="translate(-226.079 -269.492)" style="fill:none;stroke:#898989;stroke-linecap:round;stroke-linejoin:round;stroke-miterlimit:10"/>
    </g>
</svg>
