<svg xmlns="http://www.w3.org/2000/svg" width="20" height="19.996" viewBox="0 0 20 19.996">
    <g data-name="ic_exchange percentage">
        <g data-name="Group 365">
            <path data-name="Path 2266" d="M282.737 2.694a8.955 8.955 0 0 0-6.373-2.639.4.4 0 0 0-.4.4v8.611a.4.4 0 0 0 .4.4h8.614a.4.4 0 0 0 .4-.4 8.951 8.951 0 0 0-2.64-6.372zm-5.974 5.972V.864a8.225 8.225 0 0 1 7.805 7.8z" transform="translate(-265.377 -.055)" style="fill:#898989"/>
            <path data-name="Path 2267" d="M17.859 52.6H9.506v-8.351a.39.39 0 0 0-.39-.39 9.075 9.075 0 0 0-6.458 2.675 9.133 9.133 0 0 0 12.916 12.914 9.071 9.071 0 0 0 2.675-6.457.39.39 0 0 0-.39-.39zm-17.1.39a8.362 8.362 0 0 1 7.963-8.342v16.685a8.362 8.362 0 0 1-7.96-8.342zm14.263 5.91a8.294 8.294 0 0 1-5.517 2.437v-7.956h7.955a8.29 8.29 0 0 1-2.438 5.519z" transform="translate(0 -42.109)" style="fill:#898989"/>
            <path data-name="Path 2268" d="M324.7 74.646a1.087 1.087 0 0 0-.9.512l1.015-2.418a.4.4 0 1 0-.737-.309l-.511 1.219a1.237 1.237 0 1 0-1.052.82 1.1 1.1 0 0 0 .966-.617l-1.024 2.44a.4.4 0 0 0 .737.309l.427-1.017a1.217 1.217 0 0 0 1.084 1.525 1.239 1.239 0 0 0-.005-2.464zm-2.189-.976c-.172 0-.317-.2-.317-.433s.145-.433.317-.433.317.2.317.433-.142.433-.313.433zm2.189 2.64c-.172 0-.317-.2-.317-.433s.145-.433.317-.433.317.2.317.433-.141.433-.317.433z" transform="translate(-308.915 -69.13)" style="fill:#898989"/>
            <path data-name="Path 2269" d="M127 145.939h-2.112a.4.4 0 0 0 0 .8H127a.4.4 0 0 0 0-.8z" transform="translate(-119.644 -140.24)" style="fill:#898989"/>
            <path data-name="Path 2270" d="M92.907 195.288h-3.531a.4.4 0 0 0 0 .8h3.531a.4.4 0 0 0 0-.8z" transform="translate(-85.52 -187.662)" style="fill:#898989"/>
            <path data-name="Path 2271" d="M58.811 244.637h-4.95a.4.4 0 0 0 0 .8h4.95a.4.4 0 0 0 0-.8z" transform="translate(-51.328 -235.083)" style="fill:#898989"/>
            <path data-name="Path 2272" d="M58.811 293.986h-4.95a.4.4 0 0 0 0 .8h4.95a.4.4 0 0 0 0-.8z" transform="translate(-51.328 -282.504)" style="fill:#898989"/>
            <path data-name="Path 2273" d="M92.907 343.335h-3.531a.4.4 0 0 0 0 .8h3.531a.4.4 0 0 0 0-.8z" transform="translate(-85.52 -329.926)" style="fill:#898989"/>
            <path data-name="Path 2274" d="M127 392.684h-2.112a.4.4 0 0 0 0 .8H127a.4.4 0 0 0 0-.8z" transform="translate(-119.644 -377.347)" style="fill:#898989"/>
            <path data-name="Path 2275" d="M284.166 314.948a.4.4 0 0 0-.622.5 1.6 1.6 0 0 0 .908.53.4.4 0 0 0 .8.029 1.22 1.22 0 0 0 1.084-1.028 1.381 1.381 0 0 0-.977-1.441l-.1-.037v-.877a.34.34 0 0 1 .124.1.4.4 0 1 0 .654-.459 1.25 1.25 0 0 0-.778-.477v-.006a.4.4 0 0 0-.8 0v.034l-.1.026a1.136 1.136 0 0 0-.134 2.118c.053.025.131.058.23.1v1.088a.7.7 0 0 1-.289-.2zm1.373-.068a.383.383 0 0 1-.289.308v-.818a.544.544 0 0 1 .289.51zm-1.187-1.952a.4.4 0 0 1 .1-.232v.47a.272.272 0 0 1-.1-.238z" transform="translate(-272.413 -299.383)" style="fill:#898989"/>
        </g>
    </g>
</svg>
