<svg xmlns="http://www.w3.org/2000/svg" width="20" height="20" viewBox="0 0 20 20">
    <defs>
        <clipPath id="jnxxmkyhpa">
            <path data-name="Rectangle 860" style="fill:#898989" d="M0 0h20v20H0z"/>
        </clipPath>
    </defs>
    <g style="clip-path:url(#jnxxmkyhpa)">
        <path data-name="Path 2061" d="M16.338 2.422a3.668 3.668 0 0 0-3.551 2.767H1.463A1.455 1.455 0 0 0 .444 5.6 1.452 1.452 0 0 0 0 6.653v9.462a1.467 1.467 0 0 0 .463 1.067 1.458 1.458 0 0 0 1 .394h13.8a1.458 1.458 0 0 0 1-.392l.006-.005a1.468 1.468 0 0 0 .461-1.066V9.725a3.662 3.662 0 0 0-.391-7.3zM1.463 5.971h11.216v.113a3.64 3.64 0 0 0 .539 1.91l-4.6 4.345h-.509L1.378 5.976a.694.694 0 0 1 .085-.005zm-.682.682A.688.688 0 0 1 .8 6.5l5.47 5.175-5.458 4.641a.685.685 0 0 1-.03-.2zM15.266 16.8H1.454l5.387-4.581.844.8a.391.391 0 0 0 .268.107h.821a.391.391 0 0 0 .268-.107l.844-.8 5.39 4.581zm.682-.682a.683.683 0 0 1-.03.2l-5.459-4.641L13.7 8.616a3.654 3.654 0 0 0 2.252 1.109zm.391-7.151a2.88 2.88 0 1 1 2.88-2.88 2.884 2.884 0 0 1-2.881 2.877z" style="fill:#898989"/>
        <path data-name="Path 2062" d="M16.47 4.833h-.418a.391.391 0 0 0 0 .781h.027v1.562a.391.391 0 1 0 .781 0V5.223a.391.391 0 0 0-.39-.39z" style="fill:#898989"/>
    </g>
</svg>
