<svg xmlns="http://www.w3.org/2000/svg" width="20" height="20" viewBox="0 0 20 20">
    <g data-name="Group 368">
        <path data-name="Path 2314" d="M246.371 240.98a.371.371 0 0 0-.371.371v2.236a.371.371 0 0 0 .742 0v-2.236a.371.371 0 0 0-.371-.371z" transform="translate(-236.371 -231.479)" style="fill:#898989"/>
        <path data-name="Path 2315" d="M206.208 240.98a.371.371 0 0 0-.371.371v1.626a.371.371 0 0 0 .742 0v-1.626a.371.371 0 0 0-.371-.371z" transform="translate(-197.78 -231.5)" style="fill:#898989"/>
        <path data-name="Path 2316" d="M286.534 240.98a.371.371 0 0 0-.371.371v1.626a.371.371 0 0 0 .742 0v-1.626a.371.371 0 0 0-.371-.371z" transform="translate(-274.962 -231.5)" style="fill:#898989"/>
        <path data-name="Path 2317" d="M18.433 3.138H14.15a4.313 4.313 0 0 0-8.3 0H1.567A1.569 1.569 0 0 0 0 4.705v11.374a1.569 1.569 0 0 0 1.567 1.567H7.6l-.786 1.572H5.489a.391.391 0 1 0 0 .781h9.021a.391.391 0 1 0 0-.781h-1.327l-.783-1.571h6.036A1.569 1.569 0 0 0 20 16.079V4.705a1.569 1.569 0 0 0-1.567-1.567zm-4.282 2.35h3.5v7.848H2.35V5.488h3.5a4.314 4.314 0 0 0 8.3 0zM10 .781a3.532 3.532 0 1 1-3.532 3.532A3.536 3.536 0 0 1 10 .781zM1.567 3.919h4.138a4.282 4.282 0 0 0 0 .788H1.959a.391.391 0 0 0-.391.391v8.629a.391.391 0 0 0 .391.391H18.04a.391.391 0 0 0 .391-.391V5.1a.391.391 0 0 0-.391-.391h-3.745a4.277 4.277 0 0 0 0-.788h4.138a.787.787 0 0 1 .786.786V14.9H.781V4.705a.787.787 0 0 1 .786-.786zm10.742 15.3H7.69l.786-1.572h3.047zm6.909-3.139a.787.787 0 0 1-.786.786H1.567a.787.787 0 0 1-.786-.786v-.394h18.438z" style="fill:#898989"/>
        <path data-name="Path 2318" d="M221.195 44.523a1.585 1.585 0 0 0 .759.291v.194a.371.371 0 0 0 .742 0v-.24a1.339 1.339 0 0 0 .909-1.046 1.181 1.181 0 0 0-.8-1.336 3.413 3.413 0 0 1-.865-.4c-.131-.1-.076-.481.19-.561a.752.752 0 0 1 .643.109.371.371 0 0 0 .481-.565 1.41 1.41 0 0 0-.555-.27v-.16a.371.371 0 0 0-.742 0v.161a1.1 1.1 0 0 0-.474 1.867 3.743 3.743 0 0 0 1.076.517.438.438 0 0 1 .317.513.577.577 0 0 1-.572.486.962.962 0 0 1-.7-.183.371.371 0 0 0-.406.621z" transform="translate(-212.324 -38.675)" style="fill:#898989"/>
    </g>
</svg>
