<svg xmlns="http://www.w3.org/2000/svg" width="20" height="20" viewBox="0 0 20 20">
    <path data-name="Path 1026" d="M11.782 12.339v-.19h.134a.391.391 0 1 0 0-.781h-.134V9.539h1.626v1.036a.391.391 0 1 0 .781 0V9.539h1.435a.391.391 0 1 0 0-.781H14.19V7.422a.391.391 0 0 0-.781 0v1.336h-1.627V7.422a.391.391 0 0 0-.781 0v1.336H9.375V7.422a.391.391 0 0 0-.781 0v1.336H6.968V7.422a.391.391 0 0 0-.781 0v1.336H4.56V7.422a.391.391 0 0 0-.781 0v1.336H2.344a.391.391 0 1 0 0 .781h1.435v1.828H2.344a.391.391 0 1 0 0 .781h1.435v1.828H2.344a.391.391 0 0 0 0 .781h1.435v1.336a.391.391 0 0 0 .781 0v-1.336h1.626v1.336a.391.391 0 0 0 .781 0v-1.336h1.627v1.336a.391.391 0 0 0 .781 0v-1.336H10.4a.391.391 0 0 0 0-.781H9.375v-1.828H11v.19a.391.391 0 0 0 .781 0zm-3.188-2.8v1.828H6.968V9.539zm-4.033 0h1.625v1.828H4.56zm0 4.437v-1.828h1.625v1.828zm4.033 0H6.968v-1.828h1.626zm.781-2.609V9.539H11v1.828z" style="fill:#898989"/>
    <path data-name="Path 1027" d="M17.969 12.053V3.125A1.173 1.173 0 0 0 16.8 1.953h-1.761v-.586a1.367 1.367 0 1 0-2.734 0v.586h-1.953v-.586a1.367 1.367 0 0 0-2.734 0v.586H5.664v-.586a1.367 1.367 0 0 0-2.734 0v.586H1.172A1.173 1.173 0 0 0 0 3.125v14.141a1.173 1.173 0 0 0 1.172 1.172h11.219a4.3 4.3 0 1 0 5.578-6.384zM13.086 1.367a.586.586 0 0 1 1.172 0v.586h-1.172zm-4.687 0a.586.586 0 0 1 1.172 0v.586H8.4zm-4.687 0a.586.586 0 0 1 1.172 0v.586H3.711zm-2.54 1.367H2.93v.2A1.369 1.369 0 0 0 4.3 4.3a.391.391 0 0 0 0-.781.587.587 0 0 1-.586-.586v-.2h3.903v.2A1.369 1.369 0 0 0 8.984 4.3a.391.391 0 0 0 0-.781.587.587 0 0 1-.584-.589v-.2h3.9v.2a1.369 1.369 0 0 0 1.372 1.37.391.391 0 0 0 0-.781.587.587 0 0 1-.586-.586v-.2H16.8a.391.391 0 0 1 .391.391v1.954H.781V3.125a.391.391 0 0 1 .391-.391zm0 14.922a.391.391 0 0 1-.391-.391V5.859h16.406v5.811a4.3 4.3 0 0 0-5.311 5.986H1.172zM15.7 19.219a3.516 3.516 0 1 1 3.519-3.519 3.52 3.52 0 0 1-3.519 3.519z" style="fill:#898989"/>
    <path data-name="Path 1028" d="M17.151 14.255a.391.391 0 0 0-.552 0l-.9.9-.9-.9a.391.391 0 1 0-.552.552l.9.9-.9.9a.391.391 0 1 0 .552.552l.9-.9.9.9a.391.391 0 0 0 .552-.552l-.9-.9.9-.9a.391.391 0 0 0 0-.552z" style="fill:#898989"/>
</svg>
