<svg xmlns="http://www.w3.org/2000/svg" width="16.676" height="20" viewBox="0 0 16.676 20">
    <path data-name="Path 2276" d="M10.2 5.121a5.859 5.859 0 1 0 5.859 5.859A5.866 5.866 0 0 0 10.2 5.121zm0 10.938a5.078 5.078 0 1 1 5.078-5.078 5.084 5.084 0 0 1-5.078 5.078z" style="fill:#898989" transform="translate(-1.662)"/>
    <path data-name="Path 2277" d="m16.877 6.876.888-.888a1.96 1.96 0 0 0-2.771-2.771l-.939.939a7.786 7.786 0 0 0-2.487-.9V.781h.786a.391.391 0 0 0 0-.781H8.04a.391.391 0 1 0 0 .781h.786v2.477A7.792 7.792 0 0 0 6.092 4.3L5.007 3.216a1.96 1.96 0 0 0-2.771 2.771l1.135 1.135a7.829 7.829 0 0 0 1.36 9.478L3 19.4a.391.391 0 0 0 .332.6h2.354a.391.391 0 0 0 .332-.186l1.021-1.655a7.831 7.831 0 0 0 6.315 0l1.021 1.655a.391.391 0 0 0 .333.186h2.353a.391.391 0 0 0 .333-.6l-1.731-2.8a7.826 7.826 0 0 0 1.214-9.724zm-1.33-3.107a1.178 1.178 0 0 1 1.666 1.666l-.787.787a7.908 7.908 0 0 0-1.7-1.637zM9.607.781h1.18V3.16a7.882 7.882 0 0 0-1.18 0zM2.789 5.435a1.178 1.178 0 1 1 1.666-1.666l.983.983A7.91 7.91 0 0 0 3.8 6.447zm2.68 13.784H4.033l1.293-2.1a7.881 7.881 0 0 0 1.013.684zm-2.334-8.238a7.062 7.062 0 1 1 7.065 7.061 7.07 7.07 0 0 1-7.065-7.061zm13.226 8.238h-1.436l-.871-1.412a7.885 7.885 0 0 0 1.014-.684z" style="fill:#898989" transform="translate(-1.662)"/>
    <path data-name="Path 2278" d="M13.923 10.59h-2.208a1.573 1.573 0 0 0-1.127-1.127V7.254a.391.391 0 1 0-.781 0v2.209a1.567 1.567 0 1 0 1.909 1.909h2.208a.391.391 0 0 0 0-.781zM10.2 11.767a.786.786 0 1 1 .786-.786.787.787 0 0 1-.786.786z" style="fill:#898989" transform="translate(-1.662)"/>
</svg>
