<svg xmlns="http://www.w3.org/2000/svg" width="20" height="17.969" viewBox="0 0 20 17.969">
    <g data-name="ic_extension period">
        <path data-name="Path 2258" d="M18.828 2.578H16.25v-.39a1.172 1.172 0 0 0-2.344 0v.391h-1.367v-.391a1.172 1.172 0 0 0-2.344 0v.391H8.828v-.391a1.172 1.172 0 1 0-2.344 0v.391H5.117v-.391a1.172 1.172 0 1 0-2.344 0v.391h-1.6A1.173 1.173 0 0 0 0 3.75v14.844a.391.391 0 0 0 .391.391h17.46a.391.391 0 0 0 .391-.391v-1.367h1.367a.391.391 0 0 0 .391-.391V3.75a1.173 1.173 0 0 0-1.172-1.172zm-4.141-.391a.391.391 0 0 1 .781 0v.391h-.781zm-3.711 0a.391.391 0 1 1 .781 0v.391h-.781zm-3.711 0a.391.391 0 0 1 .781 0v.391h-.78zm-3.711 0a.391.391 0 0 1 .781 0v.391h-.78zM1.172 3.359h1.6v.391a1.173 1.173 0 0 0 1.173 1.172.391.391 0 0 0 0-.781.391.391 0 0 1-.391-.391v-.391h2.93v.391a1.173 1.173 0 0 0 1.172 1.172.391.391 0 0 0 0-.781.391.391 0 0 1-.391-.391v-.391H10.2v.391a1.173 1.173 0 0 0 1.172 1.172.391.391 0 0 0 0-.781.391.391 0 0 1-.391-.391v-.391h2.93v.391a1.173 1.173 0 0 0 1.172 1.172.391.391 0 1 0 0-.781.391.391 0 0 1-.391-.391v-.391h2.84a1.165 1.165 0 0 0-.067.391V5.7H.781V3.75a.391.391 0 0 1 .391-.391zM.781 18.2V6.484h16.68V18.2zm18.438-1.758h-.977V3.75a.391.391 0 0 1 .391-.391h.2a.391.391 0 0 1 .391.391z" style="fill:#898989" transform="translate(0 -1.016)"/>
        <path data-name="Path 2259" d="M5.6 12.578a.391.391 0 0 0 .417-.057.676.676 0 1 1 0 1.029.391.391 0 0 0-.507.595 1.457 1.457 0 1 0 .644-2.534v-.633h1.154a.391.391 0 0 0 0-.781H5.762a.391.391 0 0 0-.391.391v1.638a.391.391 0 0 0 .227.355z" style="fill:#898989" transform="translate(0 -1.016)"/>
        <path data-name="Path 2260" d="M11.133 7.461H2.148a.391.391 0 0 0-.391.391v8.984a.391.391 0 0 0 .391.391h8.984a.391.391 0 0 0 .391-.391V7.852a.391.391 0 0 0-.39-.391zm-.391 8.984h-8.2v-8.2h8.2z" style="fill:#898989" transform="translate(0 -1.016)"/>
        <path data-name="Path 2261" d="M16.094 7.461h-3.308a.391.391 0 0 0 0 .781h3.307a.391.391 0 0 0 0-.781z" style="fill:#898989" transform="translate(0 -1.016)"/>
        <path data-name="Path 2262" d="M12.786 10.039h1.654a.391.391 0 1 0 0-.781h-1.654a.391.391 0 0 0 0 .781z" style="fill:#898989" transform="translate(0 -1.016)"/>
        <path data-name="Path 2263" d="M16.094 12.852h-3.308a.391.391 0 1 0 0 .781h3.307a.391.391 0 0 0 0-.781z" style="fill:#898989" transform="translate(0 -1.016)"/>
        <path data-name="Path 2264" d="M16.094 14.648h-3.308a.391.391 0 0 0 0 .781h3.307a.391.391 0 0 0 0-.781z" style="fill:#898989" transform="translate(0 -1.016)"/>
        <path data-name="Path 2265" d="M14.44 16.445h-1.654a.391.391 0 0 0 0 .781h1.654a.391.391 0 1 0 0-.781z" style="fill:#898989" transform="translate(0 -1.016)"/>
    </g>
</svg>
