<svg xmlns="http://www.w3.org/2000/svg" width="20" height="20" viewBox="0 0 20 20">
    <defs>
        <clipPath id="1okev70nua">
            <path data-name="Rectangle 56" style="fill:#898989" d="M0 0h20v20H0z"/>
        </clipPath>
    </defs>
    <g style="clip-path:url(#1okev70nua)">
        <path data-name="Path 197" d="m19.958 11.59-1.569-3.137a.39.39 0 0 0-.349-.216h-3.531v-.786a.391.391 0 0 0-.136-.3l-3.982-3.41v-1h2.551a.391.391 0 0 0 .391-.391V.391A.391.391 0 0 0 12.941 0H10a.391.391 0 0 0-.391.391v3.35L5.628 7.154a.391.391 0 0 0-.136.3v.786H1.96a.391.391 0 0 0-.349.216L.042 11.59a.391.391 0 0 0 .349.565h.394v7.453a.391.391 0 0 0 .39.392h17.649a.391.391 0 0 0 .391-.391v-7.453h.394a.391.391 0 0 0 .349-.565zM17.8 9.018l1.178 2.356h-4.469V9.018zm-5.249-7.056h-2.16V.782h2.16zM2.2 9.018h3.29v2.356H1.023zm-.635 3.138h3.926v7.063H1.566zM6.272 7.63 10 4.435l3.728 3.2v11.584h-1.18v-2.56a2.542 2.542 0 0 0-2.539-2.539h-.018a2.542 2.542 0 0 0-2.539 2.539v2.56h-1.18V7.63zm1.961 11.588v-2.56A1.76 1.76 0 0 1 9.991 14.9h.018a1.76 1.76 0 0 1 1.758 1.758v2.56zm10.2 0h-3.924v-7.062h3.925z" style="fill:#898989"/>
        <path data-name="Path 198" d="M10 9.41a1.567 1.567 0 1 0-1.567-1.567A1.569 1.569 0 0 0 10 9.41zm0-2.353a.786.786 0 1 1-.786.786.787.787 0 0 1 .786-.786z" style="fill:#898989"/>
        <path data-name="Path 199" d="M4.313 13.335H2.744a.391.391 0 1 0 0 .781h1.569a.391.391 0 1 0 0-.781z" style="fill:#898989"/>
        <path data-name="Path 200" d="M4.313 15.3H2.744a.391.391 0 1 0 0 .781h1.569a.391.391 0 1 0 0-.781z" style="fill:#898989"/>
        <path data-name="Path 201" d="M4.313 17.257H2.744a.391.391 0 0 0 0 .781h1.569a.391.391 0 0 0 0-.781z" style="fill:#898989"/>
        <path data-name="Path 202" d="M15.687 14.116h1.569a.391.391 0 1 0 0-.781h-1.569a.391.391 0 1 0 0 .781z" style="fill:#898989"/>
        <path data-name="Path 203" d="M15.687 16.078h1.569a.391.391 0 0 0 0-.781h-1.569a.391.391 0 0 0 0 .781z" style="fill:#898989"/>
        <path data-name="Path 204" d="M15.687 18.039h1.569a.391.391 0 0 0 0-.781h-1.569a.391.391 0 0 0 0 .781z" style="fill:#898989"/>
        <path data-name="Path 205" d="M9.216 12.94a.391.391 0 0 0 .391-.391v-1.961a.391.391 0 0 0-.391-.391H7.451a.391.391 0 0 0-.391.391v1.961a.391.391 0 0 0 .391.391zm-1.375-1.961h.984v1.18h-.984z" style="fill:#898989"/>
        <path data-name="Path 206" d="M10.394 10.588v1.961a.391.391 0 0 0 .391.391h1.765a.391.391 0 0 0 .391-.391v-1.961a.391.391 0 0 0-.391-.391h-1.766a.391.391 0 0 0-.39.391zm.781.391h.984v1.18h-.984z" style="fill:#898989"/>
    </g>
</svg>
