<svg xmlns="http://www.w3.org/2000/svg" width="20" height="20" viewBox="0 0 20 20">
    <defs>
        <clipPath id="6i9545f70a">
            <path d="M0-682.665h20v20H0z" transform="translate(0 682.665)" style="fill:#898989"/>
        </clipPath>
    </defs>
    <g style="clip-path:url(#6i9545f70a)">
        <path d="M-308.995-94.383h-7.9a1.428 1.428 0 0 1-1.428-1.428v-1.42h10.754v1.42a1.428 1.428 0 0 1-1.426 1.428z" transform="translate(320.685 113.993)" style="fill:none;stroke:#898989;stroke-linecap:round;stroke-linejoin:round;stroke-miterlimit:10"/>
        <path d="M-356.314-465.689v2.315h-10.754v-14.942a1.428 1.428 0 0 1 1.428-1.428h7.9a1.428 1.428 0 0 1 1.428 1.428v1.639" transform="translate(369.432 480.135)" style="fill:none;stroke:#898989;stroke-linecap:round;stroke-linejoin:round;stroke-miterlimit:10"/>
        <path d="M0 0h1.752" style="fill:none;stroke:#898989;stroke-linecap:round;stroke-linejoin:round;stroke-miterlimit:10" transform="translate(6.865 18.185)"/>
        <path d="M0 0h.5" style="fill:none;stroke:#898989;stroke-linecap:round;stroke-linejoin:round;stroke-miterlimit:10" transform="translate(10.012 2.046)"/>
        <path d="M0 0h3.18" style="fill:none;stroke:#898989;stroke-linecap:round;stroke-linejoin:round;stroke-miterlimit:10" transform="translate(4.971 2.046)"/>
        <path d="M-181.821 0a5.489 5.489 0 0 0-5.488 5.49 5.482 5.482 0 0 0 2.2 4.394l-.224 1.31 1.3-.681a5.467 5.467 0 0 0 2.216.466 5.489 5.489 0 0 0 5.488-5.49A5.489 5.489 0 0 0-181.821 0z" transform="translate(193.97 3.458)" style="fill:none;stroke:#898989;stroke-linecap:round;stroke-linejoin:round;stroke-miterlimit:10"/>
        <path d="M386.255-381.2h1.665v3.494h-1.665z" transform="translate(-374.939 390.035)" style="fill:none;stroke:#898989;stroke-linecap:round;stroke-linejoin:round;stroke-miterlimit:10"/>
        <path d="M386.255-491.176h1.665v1.666h-1.665z" transform="translate(-374.939 496.786)" style="fill:none;stroke:#898989;stroke-linecap:round;stroke-linejoin:round;stroke-miterlimit:10"/>
    </g>
</svg>
