<svg xmlns="http://www.w3.org/2000/svg" width="20" height="20" viewBox="0 0 20 20">
    <defs>
        <clipPath id="3s7wx1t99a">
            <path data-name="Rectangle 889" style="fill:#898989" d="M0 0h20v20H0z"/>
        </clipPath>
    </defs>
    <g style="clip-path:url(#3s7wx1t99a)">
        <path data-name="Path 2309" d="M10 6.275A1.176 1.176 0 1 0 8.824 5.1 1.178 1.178 0 0 0 10 6.275zm0-1.569a.392.392 0 1 1-.392.392.393.393 0 0 1 .392-.392z" style="fill:#898989"/>
        <path data-name="Path 2310" d="M10 13.726a1.176 1.176 0 1 0 1.177 1.174A1.178 1.178 0 0 0 10 13.726zm0 1.569a.392.392 0 1 1 .392-.392.393.393 0 0 1-.392.391z" style="fill:#898989"/>
        <path data-name="Path 2311" d="M10 12.549A2.549 2.549 0 1 0 7.451 10 2.552 2.552 0 0 0 10 12.549zm0-4.314A1.765 1.765 0 1 1 8.235 10 1.767 1.767 0 0 1 10 8.235z" style="fill:#898989"/>
        <path data-name="Path 2312" d="M6.275 17.255a.785.785 0 0 1 .784.784.392.392 0 0 0 .392.392h5.1a.392.392 0 0 0 .392-.392.785.785 0 0 1 .784-.784.392.392 0 0 0 .392-.392V3.137a.392.392 0 0 0-.392-.392.785.785 0 0 1-.784-.784.392.392 0 0 0-.392-.392h-5.1a.392.392 0 0 0-.392.392.785.785 0 0 1-.784.784.392.392 0 0 0-.392.392v13.726a.392.392 0 0 0 .392.392zM6.667 3.48a1.574 1.574 0 0 0 1.126-1.127h4.413a1.574 1.574 0 0 0 1.127 1.127v13.04a1.574 1.574 0 0 0-1.127 1.127H7.793a1.574 1.574 0 0 0-1.126-1.127z" style="fill:#898989"/>
        <path data-name="Path 2313" d="m19.15 3.344-3.464-1.695V.392A.392.392 0 0 0 15.294 0H4.706a.392.392 0 0 0-.392.392v8.292L.67 16.131a.392.392 0 0 0 .18.525l3.464 1.695v1.257a.392.392 0 0 0 .392.392h10.588a.392.392 0 0 0 .392-.392v-8.292l3.644-7.447a.392.392 0 0 0-.18-.525zm-17.6 12.78 2.767-5.655v7.009zm13.35 3.092H5.1V.784h9.8zm.784-9.684v-7.01l2.767 1.354z" style="fill:#898989"/>
    </g>
</svg>
