<svg xmlns="http://www.w3.org/2000/svg" width="24" height="24" viewBox="0 0 24 24">
    <path data-name="Path 2699" d="M303.454 4.1a2.1 2.1 0 0 0-.618-1.491L300.848.618a2.156 2.156 0 0 0-1.5-.618h-.121v4.219h4.232z" transform="translate(-285.196)" style="fill:#fff"/>
    <path data-name="Path 2700" d="M12.841 14.509a2.822 2.822 0 0 1 .676-1.1l4.761-4.741V5.625h-4.942a.684.684 0 0 1-.68-.7V0H2.109A2.112 2.112 0 0 0 0 2.109V21.89A2.112 2.112 0 0 0 2.109 24h14.04a2.128 2.128 0 0 0 2.128-2.109v-5.248l-.777.757a2.8 2.8 0 0 1-1.093.674l-2.236.746-.341.019a1.758 1.758 0 0 1-1.666-2.316l.672-2.01zm-9.325-1.853h7.008a.7.7 0 0 1 0 1.406H3.516a.7.7 0 1 1 0-1.406zm-.7-2.109a.7.7 0 0 1 .7-.7h7.008a.7.7 0 0 1 0 1.406H3.516a.7.7 0 0 1-.704-.706zm0 5.625a.7.7 0 0 1 .7-.7h7.008a.7.7 0 0 1 0 1.406H3.516a.7.7 0 0 1-.704-.706zm10.524 3.516a.7.7 0 1 1 0 1.406H9.118a.7.7 0 1 1 0-1.406zM3.516 8.437a.7.7 0 1 1 0-1.406h9.821a.7.7 0 0 1 0 1.406z" style="fill:#fff"/>
    <path data-name="Path 2701" d="m288.293 156.145-.612 1.835a.351.351 0 0 0 .445.445l1.834-.613zm5.461-5.789-4.631 4.631 2 2 4.63-4.631zm4.011-2.017a1.468 1.468 0 0 0-2 0l-1.022 1.022 2 2 1.022-1.022a1.415 1.415 0 0 0 0-1.999z" transform="translate(-274.179 -141.014)" style="fill:#fff"/>
    <path data-name="Path 2702" d="M503.215 198.615zm0 0 .006-.006zm.006-.006z" transform="translate(-479.627 -189.292)" style="fill:#fff"/>
</svg>
