<svg xmlns="http://www.w3.org/2000/svg" width="42" height="42" viewBox="0 0 42 42">
    <defs>
        <clipPath id="wrz6ji737a">
            <path data-name="Rectangle 326" style="fill:#cacaca" d="M0 0h42v42H0z"/>
        </clipPath>
    </defs>
    <g style="clip-path:url(#wrz6ji737a)">
        <path data-name="Path 660" d="m40.98 18.525-2.864-2.864a4.867 4.867 0 0 1-1.237-2.987v-4.05a3.511 3.511 0 0 0-3.5-3.5h-4.053a4.876 4.876 0 0 1-2.987-1.237l-2.864-2.866a3.511 3.511 0 0 0-4.95 0l-2.864 2.866a4.877 4.877 0 0 1-2.987 1.236H8.623a3.511 3.511 0 0 0-3.5 3.5v4.05a4.875 4.875 0 0 1-1.237 2.987l-2.864 2.865a3.512 3.512 0 0 0 0 4.952l2.864 2.864a4.873 4.873 0 0 1 1.237 2.987v4.051a3.512 3.512 0 0 0 3.5 3.5h4.05a4.873 4.873 0 0 1 2.987 1.237l2.864 2.865a3.513 3.513 0 0 0 4.95 0l2.864-2.865a4.872 4.872 0 0 1 2.987-1.237h4.052a3.51 3.51 0 0 0 3.5-3.5v-4.051a4.867 4.867 0 0 1 1.237-2.987l2.864-2.864a3.515 3.515 0 0 0 .002-4.952zM18.222 28.876 10.5 21.152l2.475-2.474 5.248 5.248 10.8-10.8L31.5 15.6z" style="fill:#cacaca"/>
    </g>
</svg>
