<svg xmlns="http://www.w3.org/2000/svg" width="29.129" height="24" viewBox="0 0 29.129 24">
    <path data-name="Path 2703" d="M158.177 4.315v10.969a.853.853 0 0 1-.853.853H156V7.486a1.851 1.851 0 0 0-1.851-1.851h-11.22a.145.145 0 0 1-.131-.081l-1.158-2.348a1.84 1.84 0 0 0-1.661-1.033h-3.051V.853a.853.853 0 0 1 .858-.853h6.076a.144.144 0 0 1 .131.081l1.157 2.349a1.841 1.841 0 0 0 1.661 1.033h10.513a.853.853 0 0 1 .853.853zm0 0" transform="translate(-129.048)" style="fill:#fff"/>
    <path data-name="Path 2704" d="M89.841 72.107V83.86a.858.858 0 0 1-.858.859h-1.327v-8.708a1.863 1.863 0 0 0-1.863-1.864H74.5a.146.146 0 0 1-.132-.082l-1.16-2.365a1.851 1.851 0 0 0-1.671-1.039h-3.069v-1.326a.858.858 0 0 1 .858-.859h6.113a.145.145 0 0 1 .132.081l1.165 2.364a1.852 1.852 0 0 0 1.671 1.04h11.287a.147.147 0 0 1 .146.147zm0 0" transform="translate(-64.59 -64.597)" style="fill:#fff"/>
    <path data-name="Path 2705" d="M21.1 140.407H9.878a1.841 1.841 0 0 1-1.661-1.033l-1.157-2.348a.144.144 0 0 0-.131-.081H.853A.853.853 0 0 0 0 137.8v14.431a.853.853 0 0 0 .853.853h19.538a.853.853 0 0 0 .853-.853v-11.679a.146.146 0 0 0-.144-.145zm-5.006 9.911a.853.853 0 1 1-1.706 0v-.555a.853.853 0 1 1 1.706 0zm2.8 0a.853.853 0 0 1-1.706 0v-.555a.853.853 0 0 1 1.706 0zm0 0" transform="translate(0 -129.082)" style="fill:#fff"/>
</svg>
