<svg xmlns="http://www.w3.org/2000/svg" width="21.869" height="17" viewBox="0 0 21.869 17">
    <path data-name="Path 390" d="M9.88 16.588a.641.641 0 0 1-.711 0L4.943 13.77 0 16.947v3.069a.641.641 0 0 0 .641.641h17.768a.641.641 0 0 0 .641-.641v-3.069l-4.942-3.177z" transform="translate(0 -3.657)" style="fill:#fff"/>
    <path data-name="Path 391" d="M10.429 10.452a.726.726 0 1 0-.729-.726.726.726 0 0 0 .729.726z" transform="translate(-.861 -3.234)" style="fill:#fff"/>
    <path data-name="Path 392" d="M18.409 5.672H.641A.641.641 0 0 0 0 6.313V14.7l4.6-2.959a.641.641 0 0 1 .7.006l4.221 2.814 4.221-2.814a.641.641 0 0 1 .7-.006l4.6 2.959V6.313a.641.641 0 0 0-.633-.641zm-8.841 5.766a2.008 2.008 0 1 1 2.008-2.008 2.01 2.01 0 0 1-2.008 2.008z" transform="translate(0 -2.938)" style="fill:#fff"/>
    <path data-name="Path 393" d="M21.5 2.672H3.688a.641.641 0 0 0-.641.641v.812h15.847A1.709 1.709 0 0 1 20.6 5.833v11.105h.9a.641.641 0 0 0 .641-.641V3.313a.641.641 0 0 0-.641-.641z" transform="translate(-.271 -2.672)" style="fill:#fff"/>
</svg>
