<svg xmlns="http://www.w3.org/2000/svg" width="20" height="17.675" viewBox="0 0 20 17.675">
    <path data-name="Path 2098" d="M7.553 11.153h4.8a.391.391 0 0 0 .391-.391V7.817a.391.391 0 0 0-.391-.391h-4.8a.391.391 0 0 0-.391.391v2.945a.391.391 0 0 0 .391.391zm.391-2.945h4.016v2.163H7.943z" style="fill:#898989" transform="translate(0 -1.163)"/>
    <path data-name="Path 2099" d="M19.609 18.056h-.49v-8.4h.1a.391.391 0 0 0 0-.781h-4.285V5.77a.391.391 0 0 0-.391-.391h-4.2V1.553a.391.391 0 1 0-.781 0v.064H6.785a.391.391 0 0 0-.359.545l.415.961-.415.961a.391.391 0 0 0 .359.545H9.56v.75h-4.1a.391.391 0 0 0-.391.391v3.11H.729a.391.391 0 1 0 0 .781h.152v8.4h-.49a.391.391 0 0 0 0 .781h19.218a.391.391 0 0 0 0-.781zM7.379 3.848l.246-.57a.391.391 0 0 0 0-.31L7.379 2.4H9.56v1.45zM1.662 9.661h3.4v2.646h-1.7a.391.391 0 0 0-.391.391v5.358H1.662zm2.092 3.428h1.312v4.968H3.755zm2.093-6.928h8.306v11.9h-1.732v-4.776h.026a.391.391 0 0 0 0-.781H7.553a.391.391 0 0 0 0 .781h.026v4.771H5.847V6.161zm4.495 11.9v-3.136a.391.391 0 0 0-.781 0v3.131H8.36v-4.771h3.28v4.771zm4.593 0v-4.972h1.311v4.968zm2.092 0V12.7a.391.391 0 0 0-.391-.391h-1.7V9.661h3.4v8.4z" style="fill:#898989" transform="translate(0 -1.163)"/>
</svg>
