<svg xmlns="http://www.w3.org/2000/svg" width="21" height="17.327" viewBox="0 0 21 17.327">
    <path data-name="Path 2054" d="M15.072 3.523h4.209A1.774 1.774 0 0 1 21 5.346v10.328a1.773 1.773 0 0 1-1.719 1.826H2.719A1.773 1.773 0 0 1 1 15.674V5.346a1.773 1.773 0 0 1 1.719-1.823h4.207" style="fill:none;stroke:#898989;stroke-linecap:round;stroke-linejoin:round;stroke-miterlimit:10" transform="translate(-.5 -.669)"/>
    <path data-name="Path 2055" d="m1.581 3.981 7.013 6.7 2.43 1.915 2.382-1.915 7.013-6.7" style="fill:none;stroke:#898989;stroke-linecap:round;stroke-linejoin:round;stroke-miterlimit:10" transform="translate(-.5 -.669)"/>
    <path data-name="Path 2056" d="m20.494 16.964-7.088-6.281" style="fill:none;stroke:#898989;stroke-linecap:round;stroke-linejoin:round;stroke-miterlimit:10" transform="translate(-.5 -.669)"/>
    <path data-name="Path 2057" d="m8.594 10.683-7.088 6.281" style="fill:none;stroke:#898989;stroke-linecap:round;stroke-linejoin:round;stroke-miterlimit:10" transform="translate(-.5 -.669)"/>
    <path data-name="Path 2058" d="M6.927 4.435a1.6 1.6 0 0 0 1.6 1.6L9.973 7.7l1.443-1.662h2.055a1.6 1.6 0 0 0 1.6-1.6V2.773a1.6 1.6 0 0 0-1.6-1.6c-5.136.008-4.965-.019-5.209.022a1.606 1.606 0 0 0-1.272 1.13 9.694 9.694 0 0 0-.063 2.11z" style="fill:none;stroke:#898989;stroke-linecap:round;stroke-linejoin:round;stroke-miterlimit:10" transform="translate(-.5 -.669)"/>
    <path data-name="Path 2059" d="M8.544 2.8h4.912" style="fill:none;stroke:#898989;stroke-linecap:round;stroke-linejoin:round;stroke-miterlimit:10" transform="translate(-.5 -.669)"/>
    <path data-name="Path 2060" d="M8.544 4.435h4.912" style="fill:none;stroke:#898989;stroke-linecap:round;stroke-linejoin:round;stroke-miterlimit:10" transform="translate(-.5 -.669)"/>
</svg>
