<svg xmlns="http://www.w3.org/2000/svg" width="24" height="24" viewBox="0 0 24 24">
    <path data-name="Path 130" d="M0 24V0h24v24z" style="fill:none"/>
    <g data-name="Group 26">
        <path data-name="Path 131" d="M39.864 31.348a.736.736 0 0 1-.414-.128l-8.136-5.536a.735.735 0 0 0-.829 0l-8.137 5.536a.738.738 0 0 1-1.036-.211.772.772 0 0 1 .207-1.058l8.137-5.536a2.2 2.2 0 0 1 2.487 0l8.136 5.536a.771.771 0 0 1 .3.855.749.749 0 0 1-.715.541z" transform="translate(-18.899 -21.436)" style="fill:#1b364d"/>
        <path data-name="Path 132" d="M84.55 133.225a.762.762 0 0 1-.762-.762v-1.525a2.288 2.288 0 0 0-4.575 0v1.525a.762.762 0 0 1-1.525 0v-1.525a3.813 3.813 0 0 1 7.625 0v1.525a.762.762 0 0 1-.763.762z" transform="translate(-69.5 -113.8)" style="fill:#1b364d"/>
        <path data-name="Path 133" d="M47.966 85.113h-8.932a3.772 3.772 0 0 1-3.721-3.813v-7.624a.745.745 0 1 1 1.489 0V81.3a2.261 2.261 0 0 0 2.233 2.287h8.932A2.261 2.261 0 0 0 50.2 81.3v-9.912a.745.745 0 1 1 1.489 0V81.3a3.772 3.772 0 0 1-3.723 3.813z" transform="translate(-31.5 -63.401)" style="fill:#1b364d"/>
    </g>
</svg>
