<svg xmlns="http://www.w3.org/2000/svg" width="20" height="20" viewBox="0 0 20 20">
    <g data-name="Group 82">
        <path data-name="Path 346" d="M159.033 7.854H158a8.6 8.6 0 0 0-.948-2.287l.729-.729a.537.537 0 0 0 0-.76L155.5 1.793a.537.537 0 0 0-.76 0l-.729.729a8.6 8.6 0 0 0-2.286-.948V.544a.537.537 0 0 0-.537-.537h-3.232a.537.537 0 0 0-.537.537v1.03a8.6 8.6 0 0 0-2.287.948l-.729-.729a.537.537 0 0 0-.76 0l-2.285 2.285a.537.537 0 0 0 0 .76l.729.729a8.6 8.6 0 0 0-.948 2.287h-1.029a.537.537 0 0 0-.537.537v3.232a.537.537 0 0 0 .537.537h1.03a8.6 8.6 0 0 0 .948 2.286l-.729.729a.537.537 0 0 0 0 .76l2.285 2.285a.537.537 0 0 0 .76 0l.729-.729a8.6 8.6 0 0 0 2.287.948v1.031a.537.537 0 0 0 .537.537h3.232a.537.537 0 0 0 .537-.537v-1.031a8.573 8.573 0 0 0 2.286-.948l.729.729a.537.537 0 0 0 .76 0l2.285-2.285a.537.537 0 0 0 0-.76l-.729-.729A8.6 8.6 0 0 0 158 12.16h1.031a.537.537 0 0 0 .537-.537V8.391a.537.537 0 0 0-.535-.537zm-.537 3.232h-.922a.537.537 0 0 0-.527.431 7.549 7.549 0 0 1-1.123 2.708.537.537 0 0 0 .067.678l.652.652-1.525 1.525-.652-.652a.537.537 0 0 0-.678-.067 7.524 7.524 0 0 1-2.707 1.123.537.537 0 0 0-.431.527v.922h-2.157v-.923a.537.537 0 0 0-.432-.527 7.546 7.546 0 0 1-2.709-1.123.537.537 0 0 0-.678.067l-.652.652-1.522-1.525.652-.652a.537.537 0 0 0 .067-.678 7.549 7.549 0 0 1-1.123-2.708.537.537 0 0 0-.527-.431h-.921V8.929h.921a.537.537 0 0 0 .527-.432 7.546 7.546 0 0 1 1.123-2.709.537.537 0 0 0-.067-.678l-.652-.652 1.525-1.525.652.652a.537.537 0 0 0 .678.067 7.546 7.546 0 0 1 2.709-1.123.537.537 0 0 0 .428-.529v-.918h2.157V2a.537.537 0 0 0 .431.527 7.548 7.548 0 0 1 2.708 1.123.537.537 0 0 0 .678-.067l.652-.652 1.525 1.525-.652.652a.537.537 0 0 0-.067.678 7.547 7.547 0 0 1 1.122 2.714.537.537 0 0 0 .527.432h.922z" transform="translate(-139.57 -.007)" style="fill:#898989"/>
        <path data-name="Path 347" d="M223.045 77.7a5.78 5.78 0 1 0 5.78 5.779 5.786 5.786 0 0 0-5.78-5.779zm-2.683 9.653v-.129a2.576 2.576 0 0 1 1.309-2.241 2.505 2.505 0 0 0 2.748 0 2.575 2.575 0 0 1 1.308 2.242v.129a4.7 4.7 0 0 1-5.365 0zm2.683-3.026a1.448 1.448 0 1 1 1.448-1.448 1.449 1.449 0 0 1-1.448 1.45zm3.664 2.115a3.641 3.641 0 0 0-1.527-2.241 2.514 2.514 0 1 0-4.272 0 3.642 3.642 0 0 0-1.527 2.239 4.714 4.714 0 1 1 7.327 0z" transform="translate(-213.046 -73.482)" style="fill:#898989"/>
    </g>
</svg>
