<svg xmlns="http://www.w3.org/2000/svg" width="20" height="20" viewBox="0 0 20 20">
    <path data-name="Path 736" d="M10 21.286h14.286V17H10zm11.429-2.5a.357.357 0 1 1 .714 0v.714a.357.357 0 1 1-.714 0zm-1.429 0a.357.357 0 1 1 .714 0v.714a.357.357 0 0 1-.714 0zm-1.429 0a.357.357 0 1 1 .714 0v.714a.357.357 0 1 1-.714 0zm-1.429 0a.357.357 0 1 1 .714 0v.714a.357.357 0 0 1-.714 0z" transform="translate(-4.286 -6.286)" style="fill:#898989"/>
    <path data-name="Path 737" d="M10 26.143a2.145 2.145 0 0 0 2.143 2.143h10a2.145 2.145 0 0 0 2.143-2.143V24H10zm11.429-.357a.357.357 0 1 1 .714 0v.714a.357.357 0 0 1-.714 0zm-1.429 0a.357.357 0 1 1 .714 0v.714a.357.357 0 0 1-.714 0zm-1.429 0a.357.357 0 1 1 .714 0v.714a.357.357 0 0 1-.714 0zm-1.429 0a.357.357 0 1 1 .714 0v.714a.357.357 0 0 1-.714 0z" transform="translate(-4.286 -8.286)" style="fill:#898989"/>
    <path data-name="Path 738" d="M12.864 14.286H25.1V10h-9.331a5.722 5.722 0 0 1-2.9 4.286zm9.383-2.5a.357.357 0 1 1 .714 0v.714a.357.357 0 1 1-.714 0zm-1.429 0a.357.357 0 1 1 .714 0v.714a.357.357 0 1 1-.714 0zm-1.429 0a.357.357 0 1 1 .714 0v.714a.357.357 0 0 1-.714 0zm-1.429 0a.357.357 0 1 1 .714 0v.714a.357.357 0 1 1-.714 0z" transform="translate(-5.104 -4.286)" style="fill:#898989"/>
    <path data-name="Path 739" d="M23.364 3h-9.09a5.7 5.7 0 0 1 1.947 4.286h9.286V5.143A2.145 2.145 0 0 0 23.364 3zm-4.286 2.5a.357.357 0 0 1-.714 0v-.714a.357.357 0 0 1 .714 0zm1.429 0a.357.357 0 1 1-.714 0v-.714a.357.357 0 1 1 .714 0zm1.429 0a.357.357 0 0 1-.714 0v-.714a.357.357 0 0 1 .714 0zm1.429 0a.357.357 0 1 1-.714 0v-.714a.357.357 0 1 1 .714 0z" transform="translate(-5.507 -2.286)" style="fill:#898989"/>
    <path data-name="Path 740" d="M12 7a5 5 0 1 0-5 5 5.006 5.006 0 0 0 5-5zm-5 3.571a.714.714 0 1 1 .714-.714.714.714 0 0 1-.714.714zm.352-2.441a.357.357 0 0 1-.7 0l-.719-4.286a.357.357 0 0 1 .352-.416h1.429a.357.357 0 0 1 .352.416z" transform="translate(-2 -2)" style="fill:#898989"/>
</svg>
