<svg xmlns="http://www.w3.org/2000/svg" width="20" height="20" viewBox="0 0 20 20">
    <defs>
        <clipPath id="hl0ougtg2a">
            <path data-name="Rectangle 406" style="fill:#898989" d="M0 0h20v20H0z"/>
        </clipPath>
    </defs>
    <g style="clip-path:url(#hl0ougtg2a)">
        <path data-name="Path 846" d="m19.549 3.263-.768-1.057.436-1.231a.392.392 0 0 0-.491-.5l-1.242.4-1.037-.794a.392.392 0 0 0-.631.311V1.7l-1.076.74a.392.392 0 0 0 .1.7l.931.3-.071.13a1.149 1.149 0 0 1-1.543.458 1.93 1.93 0 0 0-2.589.769l-.227.4-.674-.379a1.584 1.584 0 0 0-2.156.605l-.269.477a7.081 7.081 0 0 0-6.958 3.565A7.075 7.075 0 0 0 7.438 20a7.1 7.1 0 0 0 1.921-.266 7.07 7.07 0 0 0 3.676-11.14l.266-.474a1.585 1.585 0 0 0-.601-2.157l-.674-.379.227-.4a1.149 1.149 0 0 1 1.542-.458 1.939 1.939 0 0 0 2.471-.583l.193.651a.392.392 0 0 0 .693.119l.768-1.057 1.306.033a.392.392 0 0 0 .327-.623zM12.929 16a6.282 6.282 0 1 1-4.563-9.3.388.388 0 0 0 .053.008A6.293 6.293 0 0 1 12.929 16zm-.311-8.27-.13.232a7.081 7.081 0 0 0-3.426-1.919l.13-.232a.8.8 0 0 1 1.088-.306l2.032 1.141a.8.8 0 0 1 .306 1.089zm5.113-4.672a.392.392 0 0 0-.327.162l-.422.581-.2-.688a.392.392 0 0 0-.255-.261l-.053-.017-.627-.2.591-.407A.392.392 0 0 0 16.6 1.9v-.713l.57.437a.392.392 0 0 0 .36.062l.683-.222-.239.677a.392.392 0 0 0 .052.361l.422.581z" style="fill:#898989"/>
        <path data-name="Path 847" d="M7.449 7.821A4.85 4.85 0 0 0 2.6 12.665v.711a2.038 2.038 0 0 0 1.3 1.891 1.25 1.25 0 0 1 .8 1.159v.167a1.441 1.441 0 0 0 1.44 1.44h2.618a1.441 1.441 0 0 0 1.44-1.44v-.167a1.25 1.25 0 0 1 .8-1.159 2.038 2.038 0 0 0 1.3-1.891v-.711a4.849 4.849 0 0 0-4.849-4.844zm4.06 5.555a1.249 1.249 0 0 1-.8 1.159 2.038 2.038 0 0 0-1.3 1.891v.167a.656.656 0 0 1-.655.655h-.127v-1.179a.392.392 0 0 0-.784 0v1.179h-.788v-1.179a.392.392 0 0 0-.784 0v1.179h-.132a.656.656 0 0 1-.655-.655v-.167a2.038 2.038 0 0 0-1.3-1.891 1.25 1.25 0 0 1-.8-1.159v-.711a4.06 4.06 0 0 1 8.12 0v.711z" style="fill:#898989"/>
        <path data-name="Path 848" d="M9.217 10.963a1.374 1.374 0 1 0 1.374 1.374 1.376 1.376 0 0 0-1.374-1.374zm0 1.964a.59.59 0 1 1 .59-.59.591.591 0 0 1-.59.59z" style="fill:#898989"/>
        <path data-name="Path 849" d="M5.681 10.963a1.374 1.374 0 1 0 1.374 1.374 1.376 1.376 0 0 0-1.374-1.374zm0 1.964a.59.59 0 1 1 .59-.59.591.591 0 0 1-.59.59z" style="fill:#898989"/>
    </g>
</svg>
