<svg xmlns="http://www.w3.org/2000/svg" width="20" height="20" viewBox="0 0 20 20">
    <defs>
        <clipPath id="r3ouite23a">
            <path data-name="Rectangle 513" style="fill:#898989" d="M0 0h20v20H0z"/>
        </clipPath>
    </defs>
    <g style="clip-path:url(#r3ouite23a)">
        <path data-name="Path 1180" d="M16.748 4.021h1.23a.391.391 0 0 0 .276-.114l1.632-1.632a.391.391 0 0 0 0-.552L18.322.159a.391.391 0 0 0-.552 0l-1.633 1.632a.391.391 0 0 0-.114.276V3.3a.39.39 0 0 0 .028.145l-.668.668A9.149 9.149 0 0 0 2.68 17.276 9.149 9.149 0 0 0 15.931 4.665l.672-.672a.39.39 0 0 0 .145.028zm.052-1.792L18.045.987 19.057 2l-1.241 1.24h-.906l-.11-.106v-.905zm.713 8.578a8.377 8.377 0 1 1-2.69-6.142L13.46 6.032a6.441 6.441 0 1 0 .547.558l1.368-1.368a8.335 8.335 0 0 1 2.142 5.585zm-6.386 0a1.984 1.984 0 1 1-.827-1.614L8.961 10.53a.391.391 0 0 0 .552.552l1.32-1.32a1.97 1.97 0 0 1 .298 1.045zm-.275-2.171a2.765 2.765 0 1 0 .54.565l2.057-2.057a5.661 5.661 0 1 1-.546-.559z" style="fill:#898989"/>
    </g>
</svg>
