<svg xmlns="http://www.w3.org/2000/svg" width="20" height="20" viewBox="0 0 20 20">
    <defs>
        <clipPath id="qr989h9cpa">
            <path data-name="Path 2614" d="M0-682.665h20v20H0z" transform="translate(0 682.665)"/>
        </clipPath>
    </defs>
    <g data-name="Group 379" style="clip-path:url(#qr989h9cpa)">
        <path data-name="Path 2613" d="M-441.849-302.689v-6l-3.138-3.138h-10.2v19.219h13.336" transform="translate(456.555 312.215)" style="fill:none;stroke:#898989;stroke-linecap:round;stroke-linejoin:round;stroke-miterlimit:10"/>
    </g>
    <path data-name="Path 2615" d="m0-19.475.608.608 1.216-1.216" transform="translate(13.877 34.172)" style="fill:none;stroke:#898989;stroke-linecap:round;stroke-linejoin:round;stroke-miterlimit:10"/>
    <g data-name="Group 380" style="clip-path:url(#qr989h9cpa)">
        <path data-name="Path 2616" d="M-65.525-208.42a4.272 4.272 0 0 1-1.978-3.614v-1.735l2.353-.941 2.353.941v1.735a4.272 4.272 0 0 1-1.978 3.614l-.376.24z" transform="translate(79.856 225.926)" style="fill:none;stroke:#898989;stroke-linecap:round;stroke-linejoin:round;stroke-miterlimit:10"/>
        <path data-name="Path 2617" d="M-259.91-51.982v2.8a5.86 5.86 0 0 1-2.7 4.935l-1.221.782-1.221-.782a5.832 5.832 0 0 1-.74-.561 5.848 5.848 0 0 1-.645-.675 5.858 5.858 0 0 1-.718-1.121h0a5.848 5.848 0 0 1-.6-2.578v-2.8l.521-.208 3.4-1.361z" transform="translate(278.538 63.077)" style="fill:none;stroke:#898989;stroke-linecap:round;stroke-linejoin:round;stroke-miterlimit:10"/>
        <path data-name="Path 2618" d="M0 0v3.138h3.138" transform="translate(11.569 .391)" style="fill:none;stroke:#898989;stroke-linecap:round;stroke-linejoin:round;stroke-miterlimit:10"/>
        <path data-name="Path 2619" d="M0 0h6.275" transform="translate(2.94 9.804)" style="fill:none;stroke:#898989;stroke-linecap:round;stroke-linejoin:round;stroke-miterlimit:10"/>
        <path data-name="Path 2620" d="M0 0h6.275" transform="translate(2.94 11.373)" style="fill:none;stroke:#898989;stroke-linecap:round;stroke-linejoin:round;stroke-miterlimit:10"/>
        <path data-name="Path 2621" d="M0 0h6.275" transform="translate(2.94 12.942)" style="fill:none;stroke:#898989;stroke-linecap:round;stroke-linejoin:round;stroke-miterlimit:10"/>
        <path data-name="Path 2622" d="M0 0h4.707" transform="translate(2.94 14.511)" style="fill:none;stroke:#898989;stroke-linecap:round;stroke-linejoin:round;stroke-miterlimit:10"/>
        <path data-name="Path 2623" d="M0 0h3.138" transform="translate(2.94 16.079)" style="fill:none;stroke:#898989;stroke-linecap:round;stroke-linejoin:round;stroke-miterlimit:10"/>
        <path data-name="Path 2624" d="M106.63-609.506h-6.275v-6.275h6.275z" transform="translate(-97.414 617.741)" style="fill:none;stroke:#898989;stroke-linecap:round;stroke-linejoin:round;stroke-miterlimit:10"/>
        <path data-name="Path 2625" d="M-77.973-38.987a1.177 1.177 0 0 1-1.177 1.177 1.177 1.177 0 0 1-1.177-1.177 1.177 1.177 0 0 1 1.177-1.177 1.177 1.177 0 0 1 1.177 1.177z" transform="translate(85.228 43.692)" style="fill:none;stroke:#898989;stroke-linecap:round;stroke-linejoin:round;stroke-miterlimit:10"/>
        <path data-name="Path 2626" d="M-207.927-77.973a3.256 3.256 0 0 0-3.138-2.353 3.256 3.256 0 0 0-3.138 2.353" transform="translate(217.142 86.208)" style="fill:none;stroke:#898989;stroke-linecap:round;stroke-linejoin:round;stroke-miterlimit:10"/>
    </g>
</svg>
