<svg xmlns="http://www.w3.org/2000/svg" width="20" height="19.998" viewBox="0 0 20 19.998">
    <path data-name="Path 2611" d="M19.058 5.817a1.662 1.662 0 0 0 .429-.31c.929-.929.565-2.749-.828-4.142A4.612 4.612 0 0 0 16.5.1a2.056 2.056 0 0 0-1.987.434 1.663 1.663 0 0 0-.31.429 56.862 56.862 0 0 1-3.616 4.561L10 5.681l-.712-.187a.982.982 0 0 0-.936.253l-.522.516-.7.191a.98.98 0 0 0-.7.687l-.195.712-.471.476a.984.984 0 0 0-.3.982l.187.711-.155.59Q3.528 12.351 1.4 13.9c-.042.03-.128.089-.219.15a5.816 5.816 0 0 0-.669.49 2.056 2.056 0 0 0-.434 1.987 4.613 4.613 0 0 0 1.262 2.155 4.612 4.612 0 0 0 2.16 1.262 2.9 2.9 0 0 0 .651.078 1.836 1.836 0 0 0 1.336-.512 4.561 4.561 0 0 0 .418-.57c.055-.082.107-.159.138-.2q1.584-2.188 3.37-4.218l.59-.155.712.187a.982.982 0 0 0 .936-.253l.522-.516.7-.191a.98.98 0 0 0 .7-.687l.2-.712.471-.476a.984.984 0 0 0 .3-.982l-.187-.711.155-.59a56.861 56.861 0 0 1 4.561-3.616zm-4.782 2.559-.516-.522-.191-.7a.98.98 0 0 0-.687-.7l-.712-.195-.476-.471a.969.969 0 0 0-.168-.15q1.327-1.538 2.545-3.164l.011.049a4.613 4.613 0 0 0 1.262 2.155A4.612 4.612 0 0 0 17.5 5.941l.049.011Q15.92 7.169 14.379 8.5a.972.972 0 0 0-.1-.123zm4.9-4.628a1.288 1.288 0 0 1-.238 1.206 1.316 1.316 0 0 1-1.259.225 3.636 3.636 0 0 1-1.491-.789l.834-.834a2.57 2.57 0 0 0 .917.47 1.226 1.226 0 0 0 1.206-.246l.031-.033zm-4.1-2.66a1.08 1.08 0 0 1 .787-.283 2.108 2.108 0 0 1 .472.058 3.827 3.827 0 0 1 1.778 1.053c.548.548.652 1.143.483 1.312a.5.5 0 0 1-.458.043 1.986 1.986 0 0 1-.854-.526.391.391 0 0 0-.552 0l-1.1 1.094a3.636 3.636 0 0 1-.789-1.491 1.554 1.554 0 0 1 .057-1.015v-.008a.876.876 0 0 1 .168-.237zm-9.67 17.193a6.307 6.307 0 0 0-.153.224c-.087.129-.267.4-.322.453a1.316 1.316 0 0 1-1.259.225 3.827 3.827 0 0 1-1.779-1.053 3.827 3.827 0 0 1-1.054-1.778 1.316 1.316 0 0 1 .225-1.259c.067-.065.4-.288.554-.4.105-.071.188-.127.24-.165q1.941-1.413 3.76-2.984a.974.974 0 0 0 .1.123l.516.522.191.7a.98.98 0 0 0 .687.7l.712.195.476.471a.97.97 0 0 0 .168.15Q6.852 16.276 5.4 18.281zm8.3-7.147-.024.023-.554.559a.391.391 0 0 0-.1.172l-.222.811a.2.2 0 0 1-.141.138h-.006l-.8.219a.391.391 0 0 0-.172.1l-.6.589a.2.2 0 0 1-.188.052l-.811-.213a.391.391 0 0 0-.2 0l-.811.213a.2.2 0 0 1-.2-.063l-.023-.024-.56-.554a.391.391 0 0 0-.172-.1l-.811-.222a.2.2 0 0 1-.138-.141v-.006l-.219-.8a.391.391 0 0 0-.1-.172l-.589-.6a.2.2 0 0 1-.052-.188l.213-.811a.391.391 0 0 0 0-.2l-.213-.811a.2.2 0 0 1 .063-.2l.024-.023.554-.559a.391.391 0 0 0 .1-.172l.222-.81a.2.2 0 0 1 .141-.138h.006l.8-.219a.39.39 0 0 0 .172-.1L8.9 6.3a.2.2 0 0 1 .14-.058.189.189 0 0 1 .048.006l.811.213a.391.391 0 0 0 .2 0l.811-.213a.2.2 0 0 1 .2.063l.023.024.559.554a.391.391 0 0 0 .172.1l.81.222a.2.2 0 0 1 .138.141v.006l.219.8a.391.391 0 0 0 .1.172l.589.6a.2.2 0 0 1 .052.188l-.213.811a.391.391 0 0 0 0 .2l.213.811a.2.2 0 0 1-.063.2z" transform="translate(0 -.024)" style="fill:#898989"/>
    <path data-name="Path 2612" d="m203.91 201.677-.931-.687-.008-1.157a.392.392 0 0 0-.619-.316l-.941.673-1.1-.35a.392.392 0 0 0-.492.492l.35 1.1-.674.941a.391.391 0 0 0 .316.619l1.157.008.687.931a.392.392 0 0 0 .687-.109l.365-1.1 1.1-.365a.391.391 0 0 0 .109-.687zm-1.64.371a.392.392 0 0 0-.248.248l-.189.567-.355-.481a.392.392 0 0 0-.312-.159h-.6l.348-.486a.392.392 0 0 0 .055-.346l-.181-.57.57.181a.392.392 0 0 0 .346-.055l.486-.348v.6a.392.392 0 0 0 .159.312l.481.355z" transform="translate(-191.636 -191.662)" style="fill:#898989"/>
</svg>
