<svg xmlns="http://www.w3.org/2000/svg" width="24" height="24" viewBox="0 0 24 24">
    <path data-name="Path 736" d="M10 22.143h17.143V17H10zm13.714-3a.429.429 0 1 1 .857 0V20a.429.429 0 1 1-.857 0zm-1.714 0a.429.429 0 0 1 .857 0V20A.429.429 0 0 1 22 20zm-1.714 0a.429.429 0 0 1 .857 0V20a.429.429 0 1 1-.857 0zm-1.714 0a.429.429 0 0 1 .857 0V20a.429.429 0 0 1-.857 0z" transform="translate(-3.143 -4.143)" style="fill:#fff"/>
    <path data-name="Path 737" d="M10 26.571a2.574 2.574 0 0 0 2.571 2.571h12a2.574 2.574 0 0 0 2.571-2.571V24H10zm13.714-.429a.429.429 0 1 1 .857 0V27a.429.429 0 1 1-.857 0zm-1.714 0a.429.429 0 0 1 .857 0V27A.429.429 0 0 1 22 27zm-1.714 0a.429.429 0 0 1 .857 0V27a.429.429 0 1 1-.857 0zm-1.714 0a.429.429 0 0 1 .857 0V27a.429.429 0 0 1-.857 0z" transform="translate(-3.143 -5.143)" style="fill:#fff"/>
    <path data-name="Path 738" d="M12.864 15.143h14.688V10H16.35a6.867 6.867 0 0 1-3.485 5.143zm11.259-3a.429.429 0 1 1 .857 0V13a.429.429 0 1 1-.857 0zm-1.714 0a.429.429 0 0 1 .857 0V13a.429.429 0 0 1-.857 0zm-1.714 0a.429.429 0 1 1 .857 0V13a.429.429 0 0 1-.857 0zm-1.714 0a.429.429 0 0 1 .857 0V13a.429.429 0 1 1-.857 0z" transform="translate(-3.552 -3.143)" style="fill:#fff"/>
    <path data-name="Path 739" d="M25.182 3H14.274a6.836 6.836 0 0 1 2.336 5.143h11.143V5.571A2.574 2.574 0 0 0 25.182 3zm-5.143 3a.429.429 0 0 1-.857 0v-.857a.429.429 0 0 1 .857 0zm1.714 0a.429.429 0 0 1-.853 0v-.857a.429.429 0 0 1 .857 0zm1.714 0a.429.429 0 0 1-.857 0v-.857a.429.429 0 1 1 .857 0zm1.714 0a.429.429 0 1 1-.857 0v-.857a.429.429 0 1 1 .857 0z" transform="translate(-3.753 -2.143)" style="fill:#fff"/>
    <path data-name="Path 740" d="M14 8a6 6 0 1 0-6 6 6.007 6.007 0 0 0 6-6zm-6 4.286a.857.857 0 1 1 .857-.857.857.857 0 0 1-.857.857zm.423-2.93a.429.429 0 0 1-.845 0L6.72 4.213a.428.428 0 0 1 .423-.5h1.714a.428.428 0 0 1 .423.5z" transform="translate(-2 -2)" style="fill:#fff"/>
</svg>
