<svg xmlns="http://www.w3.org/2000/svg" width="20" height="20" viewBox="0 0 20 20">
    <defs>
        <clipPath id="88rfpwhyna">
            <path data-name="Rectangle 548" style="fill:#898989" d="M0 0h20v20H0z"/>
        </clipPath>
    </defs>
    <g style="clip-path:url(#88rfpwhyna)">
        <path data-name="Path 1254" d="M5.418 5.352h-.25L4.7 7.7h1.187z" style="fill:#898989"/>
        <path data-name="Path 1255" d="M14.9 10.039a6.124 6.124 0 0 0 .962 1.7 6.185 6.185 0 0 0 1-1.7z" style="fill:#898989"/>
        <path data-name="Path 1256" d="M18.242 3.555h-7.277l1.518 12.175a1.819 1.819 0 0 1-.434 1.334L9.479 20h8.763A1.76 1.76 0 0 0 20 18.242V5.352a1.794 1.794 0 0 0-1.758-1.797zm0 6.484h-.157a7.435 7.435 0 0 1-1.411 2.566c.43.394.891.716 1.348 1.078a.586.586 0 0 1-.732.914c-.5-.392-.964-.721-1.431-1.149-.467.428-.894.757-1.392 1.149a.586.586 0 1 1-.732-.914c.458-.361.879-.684 1.309-1.078a7.4 7.4 0 0 1-1.372-2.566h-.156a.586.586 0 0 1 0-1.172h1.758v-.586a.586.586 0 0 1 1.172 0v.586h1.8a.586.586 0 0 1 0 1.172z" style="fill:#898989"/>
        <path data-name="Path 1257" d="M9.538 1.54A1.76 1.76 0 0 0 7.794 0H1.758A1.76 1.76 0 0 0 0 1.758v12.969a1.76 1.76 0 0 0 1.758 1.758H11c.171-.2.314-.318.32-.573 0-.064-1.774-14.312-1.782-14.372zM7.185 11.2a.586.586 0 0 1-.689-.46l-.375-1.873H4.465L4.09 10.74a.586.586 0 1 1-1.149-.23l1.172-5.859a.586.586 0 0 1 .574-.471H5.9a.586.586 0 0 1 .574.471l1.171 5.859a.586.586 0 0 1-.46.69z" style="fill:#898989"/>
        <path data-name="Path 1258" d="m6.846 17.656.1.8a1.772 1.772 0 0 0 1.014 1.366l1.967-2.166z" style="fill:#898989"/>
    </g>
</svg>
