<svg xmlns="http://www.w3.org/2000/svg" width="20" height="20" viewBox="0 0 20 20">
    <defs>
        <clipPath id="ockm66fn6a">
            <path data-name="Rectangle 550" style="fill:#ad1313" d="M0 0h20v20H0z"/>
        </clipPath>
    </defs>
    <g style="clip-path:url(#ockm66fn6a)">
        <path data-name="Path 1262" d="M12.5 10.833a.833.833 0 0 0-.833.833V15a.834.834 0 0 1-.833.833h-2.5v-12.5A1.68 1.68 0 0 0 7.2 1.749l-.247-.083h3.882a.834.834 0 0 1 .833.833V5a.833.833 0 1 0 1.667 0V2.5a2.5 2.5 0 0 0-2.5-2.5h-8.96a.654.654 0 0 0-.089.018C1.746.015 1.707 0 1.667 0A1.668 1.668 0 0 0 0 1.667v15a1.68 1.68 0 0 0 1.135 1.584l5.015 1.672a1.725 1.725 0 0 0 .517.077 1.668 1.668 0 0 0 1.667-1.667V17.5h2.5a2.5 2.5 0 0 0 2.5-2.5v-3.333a.833.833 0 0 0-.833-.833z" style="fill:#ad1313"/>
        <path data-name="Path 1263" d="m19.756 7.744-3.334-3.333A.833.833 0 0 0 15 5v2.5h-3.333a.833.833 0 1 0 0 1.667H15v2.5a.833.833 0 0 0 1.422.589l3.333-3.333a.833.833 0 0 0 0-1.178z" style="fill:#ad1313"/>
    </g>
</svg>
