<svg xmlns="http://www.w3.org/2000/svg" width="20" height="20" viewBox="0 0 20 20">
    <defs>
        <clipPath id="pwsay5t6da">
            <path data-name="Rectangle 403" style="fill:#898989" d="M0 0h20v20H0z"/>
        </clipPath>
    </defs>
    <g style="clip-path:url(#pwsay5t6da)">
        <path data-name="Path 827" d="M8.4 7.377a1.443 1.443 0 1 0-1.442-1.444A1.445 1.445 0 0 0 8.4 7.377zm0-2.106a.662.662 0 1 1-.662.662.663.663 0 0 1 .662-.662z" style="fill:#898989"/>
        <path data-name="Path 828" d="M10 0a8.075 8.075 0 0 0-1.925 15.921l.6 1.021c-1.348.225-2.189.779-2.189 1.476C6.488 19.457 8.255 20 10 20s3.512-.543 3.512-1.582c0-.7-.841-1.251-2.189-1.476l.6-1.021A8.075 8.075 0 0 0 10 0zm2.731 18.418c0 .232-.957.8-2.731.8s-2.731-.568-2.731-.8c0-.194.63-.6 1.837-.748l.558.947a.391.391 0 0 0 .673 0l.558-.947c1.207.146 1.837.554 1.837.748zM11.589 15.2a.391.391 0 0 0-.252.183L10 17.649 8.663 15.38a.391.391 0 0 0-.252-.183 7.313 7.313 0 1 1 3.178 0z" style="fill:#898989"/>
        <path data-name="Path 829" d="M15.8 7.542a5.82 5.82 0 1 0 .036.648 5.817 5.817 0 0 0-.036-.648zM10 3.153a5.039 5.039 0 0 1 4.952 4.042h-.931a4.521 4.521 0 0 0-3.644 1.826 3.185 3.185 0 0 0-1.49-.367h-.093a3.2 3.2 0 0 0-3.059 2.236A5.036 5.036 0 0 1 10 3.153zm1.259 9.917a5.119 5.119 0 0 1-2.519 0 5.027 5.027 0 0 1-2.363-1.37 2.421 2.421 0 0 1 2.417-2.264h.093a2.406 2.406 0 0 1 1.38.432.391.391 0 0 0 .555-.114 3.748 3.748 0 0 1 3.2-1.777h1.025v.214a5.036 5.036 0 0 1-3.788 4.879z" style="fill:#898989"/>
    </g>
</svg>
