<svg xmlns="http://www.w3.org/2000/svg" width="20" height="20" viewBox="0 0 20 20">
    <defs>
        <clipPath id="jzttsfoita">
            <path d="M0-682.665h20v20H0z" transform="translate(0 682.665)"/>
        </clipPath>
    </defs>
    <g style="clip-path:url(#jzttsfoita)">
        <path d="M-129.427-258.854a3.914 3.914 0 0 0 3.906-3.906 3.914 3.914 0 0 0-3.906-3.906 3.914 3.914 0 0 0-3.906 3.906 3.914 3.914 0 0 0 3.906 3.906z" transform="translate(145.13 278.463)" style="fill:none;stroke:#898989;stroke-linecap:round;stroke-linejoin:round;stroke-miterlimit:22.926"/>
        <path d="M0 0v2.391h1.2" style="fill:none;stroke:#898989;stroke-linecap:round;stroke-linejoin:round;stroke-miterlimit:22.926" transform="translate(15.703 13.312)"/>
        <path d="M0 0h0" style="fill:none;stroke:#898989;stroke-linecap:round;stroke-linejoin:round;stroke-miterlimit:22.926" transform="translate(13.112 15.703)"/>
        <path d="M0-.009h0" transform="translate(15.703 18.302)" style="fill:none;stroke:#898989;stroke-linecap:round;stroke-linejoin:round;stroke-miterlimit:22.926"/>
        <path d="M-.009 0h0" transform="translate(18.303 15.703)" style="fill:none;stroke:#898989;stroke-linecap:round;stroke-linejoin:round;stroke-miterlimit:22.926"/>
        <path d="M0 0h12.964a1.563 1.563 0 0 1 1.567 1.563v9.827" transform="translate(1.953 .392)" style="fill:none;stroke:#898989;stroke-linecap:round;stroke-linejoin:round;stroke-miterlimit:22.926"/>
        <path d="M-373.721-507.355h-5.029v.781a1.562 1.562 0 0 1-1.562 1.563 1.562 1.562 0 0 1-1.562-1.562v-14.531a1.562 1.562 0 0 0-1.562-1.562 1.562 1.562 0 0 0-1.564 1.56v.781h2.93m1.758 15.313h7.373" transform="translate(385.391 523.059)" style="fill:none;stroke:#898989;stroke-linecap:round;stroke-linejoin:round;stroke-miterlimit:22.926"/>
        <path d="M-230.645-377.93h-6.961v-11.406h9.844v9.053" transform="translate(242.684 392.07)" style="fill:none;stroke:#898989;stroke-linecap:round;stroke-linejoin:round;stroke-miterlimit:22.926"/>
        <path d="M0 0h4.746" style="fill:none;stroke:#898989;stroke-linecap:round;stroke-linejoin:round;stroke-miterlimit:22.926" transform="translate(8.379 4.635)"/>
        <path d="M0 0h6.25" style="fill:none;stroke:#898989;stroke-linecap:round;stroke-linejoin:round;stroke-miterlimit:22.926" transform="translate(6.875 6.536)"/>
        <path d="M0 0h6.25" style="fill:none;stroke:#898989;stroke-linecap:round;stroke-linejoin:round;stroke-miterlimit:22.926" transform="translate(6.875 8.437)"/>
        <path d="M0 0h4.746" style="fill:none;stroke:#898989;stroke-linecap:round;stroke-linejoin:round;stroke-miterlimit:22.926" transform="translate(8.379 10.338)"/>
        <path d="M0 0h4.336" style="fill:none;stroke:#898989;stroke-linecap:round;stroke-linejoin:round;stroke-miterlimit:22.926" transform="translate(6.875 12.24)"/>
    </g>
</svg>
