<svg xmlns="http://www.w3.org/2000/svg" width="29" height="24" viewBox="0 0 29 24">
    <path data-name="Path 749" d="m297.483 182.044-4.655 15.518 12.414-15.518z" transform="translate(-276.242 -174.562)" style="fill:#fff"/>
    <path data-name="Path 750" d="M7.759 182.044H0l12.414 15.518z" transform="translate(0 -174.562)" style="fill:#fff"/>
    <path data-name="Path 751" d="m341.609 44.764-6.18-6.18a.85.85 0 0 0-.6-.249h-3.147l2.411 6.429z" transform="translate(-312.894 -38.335)" style="fill:#fff"/>
    <path data-name="Path 752" d="m12.554 44.764 2.411-6.429h-3.147a.85.85 0 0 0-.6.249l-6.18 6.18z" transform="translate(-4.752 -38.335)" style="fill:#fff"/>
    <path data-name="Path 753" d="M178.425 182.044h-9.911l4.955 16.518z" transform="translate(-158.969 -174.562)" style="fill:#fff"/>
    <path data-name="Path 754" d="M170.008 44.764h9.741l-2.411-6.429h-4.919z" transform="translate(-160.379 -38.335)" style="fill:#fff"/>
</svg>
