<svg xmlns="http://www.w3.org/2000/svg" width="24" height="20" viewBox="0 0 24 20">
    <path data-name="Path 749" d="m296.681 182.044-3.853 12.842 10.272-12.842z" transform="translate(-279.102 -175.714)" style="fill:#898989"/>
    <path data-name="Path 750" d="M6.421 182.044H0l10.274 12.842z" transform="translate(0 -175.714)" style="fill:#898989"/>
    <path data-name="Path 751" d="m339.9 43.656-5.115-5.115a.7.7 0 0 0-.5-.206h-2.6l2 5.321z" transform="translate(-316.133 -38.335)" style="fill:#898989"/>
    <path data-name="Path 752" d="m11.258 43.656 2-5.321h-2.6a.7.7 0 0 0-.5.206l-5.121 5.115z" transform="translate(-4.801 -38.335)" style="fill:#898989"/>
    <path data-name="Path 753" d="M176.716 182.044h-8.2l4.1 13.67z" transform="translate(-160.615 -175.714)" style="fill:#898989"/>
    <path data-name="Path 754" d="M170.008 43.656h8.062l-2-5.321H172z" transform="translate(-162.039 -38.335)" style="fill:#898989"/>
</svg>
