<svg xmlns="http://www.w3.org/2000/svg" width="24" height="24" viewBox="0 0 24 24">
    <path data-name="Path 106" d="M0 24V0h24v24z" style="fill:none"/>
    <g data-name="Group 19">
        <path data-name="Path 107" d="M15.313 28.622a.813.813 0 0 0-.793.832V43.6h3.963V29.454a.813.813 0 0 0-.793-.832zM5.8 30.286v16.643h19.817v-1.665H7.386V30.286zm15.061 0a.813.813 0 0 0-.793.832V43.6h3.963V31.118a.813.813 0 0 0-.793-.832zm-11.1 3.328a.813.813 0 0 0-.793.832V43.6h3.963v-9.153a.813.813 0 0 0-.793-.832z" transform="translate(-4.955 -25.445)" style="fill:#fff"/>
    </g>
</svg>
