<svg xmlns="http://www.w3.org/2000/svg" width="34.15" height="37.625" viewBox="0 0 34.15 37.625">
    <path data-name="Path 2746" d="m32.041 22.395.644 1.55a7.117 7.117 0 0 1 .726.42l1.666-.219a1.314 1.314 0 0 1 1.159.439A9.177 9.177 0 0 1 38 27.648a1.316 1.316 0 0 1-.2 1.223s-1.022 1.335-1.022 1.333a7.419 7.419 0 0 1 0 .838l1.022 1.335A1.316 1.316 0 0 1 38 33.6a9.178 9.178 0 0 1-1.769 3.063 1.314 1.314 0 0 1-1.159.439l-1.666-.219a7.514 7.514 0 0 1-.726.42l-.644 1.551a1.315 1.315 0 0 1-.959.786 9.187 9.187 0 0 1-3.538 0 1.315 1.315 0 0 1-.959-.786l-.64-1.554a7.115 7.115 0 0 1-.726-.42l-1.666.219a1.314 1.314 0 0 1-1.158-.439 9.177 9.177 0 0 1-1.77-3.06 1.316 1.316 0 0 1 .2-1.223l1.022-1.334a7.464 7.464 0 0 1 0-.838l-1.022-1.333a1.316 1.316 0 0 1-.2-1.223 9.176 9.176 0 0 1 1.769-3.062 1.314 1.314 0 0 1 1.158-.439l1.666.219a7.514 7.514 0 0 1 .726-.42l.644-1.55a1.315 1.315 0 0 1 .959-.786 9.191 9.191 0 0 1 3.538 0 1.315 1.315 0 0 1 .961.784zm-2.728 6.043a2.188 2.188 0 1 0 2.187 2.187 2.188 2.188 0 0 0-2.187-2.187z" style="fill:#cacaca;fill-rule:evenodd" transform="translate(-3.925 -2.188)"/>
    <path data-name="Path 2747" d="M25.1 39.813H8.738A4.81 4.81 0 0 1 3.925 35V7a4.81 4.81 0 0 1 4.813-4.812h15.023a3.056 3.056 0 0 1 2.167.9l7.725 7.725a3.063 3.063 0 0 1 .9 2.165v9.476l-.56.073-.333-.8a3.065 3.065 0 0 0-2.24-1.831 10.925 10.925 0 0 0-4.211 0 3.064 3.064 0 0 0-2.24 1.831l-.333.8-.859-.112a3.063 3.063 0 0 0-2.705 1.022 10.942 10.942 0 0 0-2.105 3.649 3.058 3.058 0 0 0 .465 2.852l.528.69-.528.69a3.058 3.058 0 0 0-.465 2.852 10.941 10.941 0 0 0 2.105 3.649 3.063 3.063 0 0 0 2.705 1.022l.859-.112.333.8c.04.096.086.191.131.284zM23.613 4.532v6.843a1.749 1.749 0 0 0 1.75 1.75h6.842a1.774 1.774 0 0 0-.355-.513l-7.725-7.724a1.74 1.74 0 0 0-.512-.356zm-13.125 9h7.875a1.313 1.313 0 0 0 0-2.625h-7.875a1.313 1.313 0 1 0 0 2.625zm0 18.408h6.125a1.313 1.313 0 0 0 0-2.625h-6.125a1.313 1.313 0 1 0 0 2.625zm0-6.125h6.125a1.313 1.313 0 0 0 0-2.625h-6.125a1.313 1.313 0 1 0 0 2.625zm0-6.125h12.25a1.313 1.313 0 0 0 0-2.625h-12.25a1.313 1.313 0 1 0 0 2.625z" style="fill:#cacaca;fill-rule:evenodd" transform="translate(-3.925 -2.188)"/>
</svg>
