<svg xmlns="http://www.w3.org/2000/svg" width="188" height="140" viewBox="0 0 188 140">
    <g data-name="Group 508">
        <path data-name="Path 2717" d="M162 0H42a10 10 0 0 0-10 10v120a10 10 0 0 0 10 10h120a10 10 0 0 0 10-10V10a10 10 0 0 0-10-10z" style="fill:rgba(25,63,96,.0)" transform="translate(-6)"/>
        <g data-name="Group 505">
            <path data-name="Path 2718" d="M146 10H11a5 5 0 0 0-5 5v25a5 5 0 0 0 5 5h135a5 5 0 0 0 5-5V15a5 5 0 0 0-5-5z" style="fill:#fff" transform="translate(-6)"/>
        </g>
        <path data-name="Path 2719" d="M75 18H49a3 3 0 0 0 0 6h26a3 3 0 0 0 0-6z" style="fill:rgba(25,63,96,.16)" transform="translate(-6)"/>
        <path data-name="Path 2720" d="M93 31H49a3 3 0 0 0 0 6h44a3 3 0 0 0 0-6z" style="fill:rgba(25,63,96,.08)" transform="translate(-6)"/>
        <path data-name="Path 2721" d="M33 13H14a5 5 0 0 0-5 5v19a5 5 0 0 0 5 5h19a5 5 0 0 0 5-5V18a5 5 0 0 0-5-5z" style="fill:#193f60" transform="translate(-6)"/>
        <path data-name="Path 2722" d="M21.222 30.78h2l.022-.77c0-1.012.638-1.276 1.54-1.562a4.331 4.331 0 0 0 3.146-4.158A4.152 4.152 0 0 0 23.574 20 4.48 4.48 0 0 0 19 24.6h2.068a2.517 2.517 0 0 1 2.51-2.576 2.108 2.108 0 0 1 2.222 2.288 2.278 2.278 0 0 1-1.672 2.134l-.726.288a2.917 2.917 0 0 0-2.2 3.278zm.99 4.754a1.466 1.466 0 1 0-.574-.1 1.465 1.465 0 0 0 .574.1z" style="fill:#fff" transform="translate(-6)"/>
        <g data-name="Group 506">
            <path data-name="Path 2723" d="M54 53h135a5 5 0 0 1 5 5v25a5 5 0 0 1-5 5H54a5 5 0 0 1-5-5V58a5 5 0 0 1 5-5z" style="fill:#fff" transform="translate(-6)"/>
        </g>
        <path data-name="Path 2724" d="M118 61H92a3 3 0 0 0 0 6h26a3 3 0 0 0 0-6z" style="fill:rgba(25,63,96,.16)" transform="translate(-6)"/>
        <path data-name="Path 2725" d="M136 74H92a3 3 0 0 0 0 6h44a3 3 0 0 0 0-6z" style="fill:rgba(25,63,96,.08)" transform="translate(-6)"/>
        <path data-name="Path 2726" d="M76 56H57a5 5 0 0 0-5 5v19a5 5 0 0 0 5 5h19a5 5 0 0 0 5-5V61a5 5 0 0 0-5-5z" style="fill:#193f60" transform="translate(-6)"/>
        <path data-name="Path 2727" d="M64.222 73.78h2l.022-.77c0-1.012.638-1.276 1.54-1.562a4.331 4.331 0 0 0 3.146-4.158A4.152 4.152 0 0 0 66.574 63 4.48 4.48 0 0 0 62 67.6h2.068a2.517 2.517 0 0 1 2.51-2.576 2.108 2.108 0 0 1 2.222 2.288 2.278 2.278 0 0 1-1.672 2.134l-.726.288a2.917 2.917 0 0 0-2.2 3.278zm.99 4.754a1.466 1.466 0 1 0-.574-.1 1.465 1.465 0 0 0 .574.1z" style="fill:#fff" transform="translate(-6)"/>
        <g data-name="Group 507">
            <path data-name="Path 2728" d="M11 96h135a5 5 0 0 1 5 5v25a5 5 0 0 1-5 5H11a5 5 0 0 1-5-5v-25a5 5 0 0 1 5-5z" style="fill:#fff" transform="translate(-6)"/>
        </g>
        <path data-name="Path 2729" d="M75 104H49a3 3 0 0 0 0 6h26a3 3 0 0 0 0-6z" style="fill:rgba(25,63,96,.16)" transform="translate(-6)"/>
        <path data-name="Path 2730" d="M93 117H49a3 3 0 0 0 0 6h44a3 3 0 0 0 0-6z" style="fill:rgba(25,63,96,.08)" transform="translate(-6)"/>
        <path data-name="Path 2731" d="M33 99H14a5 5 0 0 0-5 5v19a5 5 0 0 0 5 5h19a5 5 0 0 0 5-5v-19a5 5 0 0 0-5-5z" style="fill:#193f60" transform="translate(-6)"/>
        <path data-name="Path 2732" d="M21.222 116.78h2l.022-.77c0-1.012.638-1.276 1.54-1.562a4.332 4.332 0 0 0 3.146-4.158 4.152 4.152 0 0 0-4.356-4.29A4.48 4.48 0 0 0 19 110.6h2.068a2.517 2.517 0 0 1 2.51-2.576 2.108 2.108 0 0 1 2.222 2.288 2.278 2.278 0 0 1-1.672 2.134l-.726.288a2.917 2.917 0 0 0-2.2 3.278zm.99 4.754a1.461 1.461 0 0 0 .574-.095 1.44 1.44 0 0 0 .823-1.928 1.51 1.51 0 1 0-2.464 1.617 1.477 1.477 0 0 0 .492.311 1.461 1.461 0 0 0 .574.095z" style="fill:#fff" transform="translate(-6)"/>
    </g>
</svg>
