<svg xmlns="http://www.w3.org/2000/svg" width="20" height="20" viewBox="0 0 20 20">
    <defs>
        <clipPath id="i63z8lwwva">
            <path data-name="Rectangle 892" style="fill:#898989" d="M0 0h20v20H0z"/>
        </clipPath>
    </defs>
    <g style="clip-path:url(#i63z8lwwva)">
        <path data-name="Path 2353" d="M5.641 8.255h3.221l.862.862a.391.391 0 0 0 .552 0l.862-.862h3.221a.391.391 0 0 0 .391-.391V.724a.391.391 0 0 0-.391-.391H5.641a.391.391 0 0 0-.391.391v7.141a.391.391 0 0 0 .391.39zm.391-7.141h7.938v6.36h-2.994a.391.391 0 0 0-.276.114l-.7.7-.7-.7a.391.391 0 0 0-.276-.114H6.031z" style="fill:#898989"/>
        <path data-name="Path 2354" d="M9.559 6.616a.391.391 0 0 0 .781.02 1.266 1.266 0 0 0 1.149-1.064 1.428 1.428 0 0 0-1.015-1.487l-.133-.047v-1a.434.434 0 0 1 .193.138.391.391 0 1 0 .638-.45 1.3 1.3 0 0 0-.831-.5V2.2a.391.391 0 1 0-.781 0v.06q-.062.015-.126.034a1.206 1.206 0 0 0-.826 1.058A1.125 1.125 0 0 0 9.3 4.47c.059.028.149.065.263.11V5.8a.805.805 0 0 1-.363-.239.391.391 0 1 0-.607.492 1.681 1.681 0 0 0 .97.554zm1.154-1.142a.451.451 0 0 1-.373.366v-.965a.619.619 0 0 1 .374.598zM9.387 3.407a.446.446 0 0 1 .173-.317v.635a.331.331 0 0 1-.173-.318z" style="fill:#898989"/>
        <path data-name="Path 2355" d="m19.911 10.9-1.643-1.989a.391.391 0 0 0-.55-.052l-.723.6-.967-.6a2.688 2.688 0 0 0-3.133.211l-2.139 1.768a.861.861 0 0 0-.119 1.208 1.469 1.469 0 0 0 .58.429L9.7 13.724l-.917-.757a1.468 1.468 0 0 0 .58-.429.861.861 0 0 0-.119-1.208L7.106 9.562a2.688 2.688 0 0 0-3.133-.211l-.967.6-.723-.6a.391.391 0 0 0-.55.052L.089 11.4a.391.391 0 0 0 .052.549l.614.508-.166 1.137a2.717 2.717 0 0 0 .951 2.474l4.024 3.326a1.2 1.2 0 0 0 .888.267 1.149 1.149 0 0 0 1.014-.927 1.2 1.2 0 0 0 .316.009 1.149 1.149 0 0 0 1-.878 1.171 1.171 0 0 0 1.063-.257 1.148 1.148 0 0 0 .318-.48 1.172 1.172 0 0 0 1.046.242 1.148 1.148 0 0 0 1 .878 1.192 1.192 0 0 0 .316-.009 1.149 1.149 0 0 0 1.014.927 1.178 1.178 0 0 0 .124.007 1.2 1.2 0 0 0 .764-.274l4.024-3.325a2.716 2.716 0 0 0 .951-2.474l-.167-1.138.614-.508a.391.391 0 0 0 .062-.554zM9.457 15.541l-.019-.015-2.588-2.14a.391.391 0 0 0-.5.6l2.694 2.227.016.013.237.2a.418.418 0 0 1 .151.314.372.372 0 0 1-.123.288.4.4 0 0 1-.524-.006l-.138-.114-2.802-2.32a.391.391 0 1 0-.5.6l2.531 2.092a.393.393 0 0 1 .06.543.372.372 0 0 1-.256.137.416.416 0 0 1-.308-.092l-.321-.268-.018-.014-2.173-1.8a.391.391 0 1 0-.5.6l2.209 1.827a.393.393 0 0 1 .042.528.372.372 0 0 1-.256.137.417.417 0 0 1-.308-.092l-4.025-3.32a1.931 1.931 0 0 1-.676-1.758l.2-1.355a.39.39 0 0 0-.137-.357L.94 11.6l1.146-1.4.638.528a.391.391 0 0 0 .455.031l1.206-.749a1.907 1.907 0 0 1 2.223.15l2.139 1.767a.078.078 0 0 1 .013.11.69.69 0 0 1-.47.25.7.7 0 0 1-.515-.158.391.391 0 0 0-.5.6l2.659 2.201a.421.421 0 0 1 .15.287.376.376 0 0 1-.084.283.389.389 0 0 1-.543.041zm8.984-3.683.2 1.356a1.931 1.931 0 0 1-.676 1.758L13.938 18.3a.418.418 0 0 1-.308.092.372.372 0 0 1-.256-.138.393.393 0 0 1 .042-.528l2.21-1.826a.391.391 0 0 0-.5-.6l-2.174 1.8-.018.014-.326.27a.417.417 0 0 1-.308.092.372.372 0 0 1-.256-.137.393.393 0 0 1 .059-.543l2.53-2.091a.391.391 0 0 0-.5-.6l-2.806 2.319-.137.113a.4.4 0 0 1-.524.006.372.372 0 0 1-.123-.288.419.419 0 0 1 .152-.315l.237-.2.016-.013 2.694-2.227a.391.391 0 1 0-.5-.6l-2.358 1.949a1.2 1.2 0 0 0-.361-.513l-.118-.1 3.534-2.921.744.9a.391.391 0 1 0 .6-.5l-.992-1.2a.391.391 0 0 0-.55-.053l-1.44 1.191a.7.7 0 0 1-.5.148.691.691 0 0 1-.47-.25.078.078 0 0 1 .013-.11l2.139-1.767a1.907 1.907 0 0 1 2.223-.15l1.206.75a.391.391 0 0 0 .455-.031l.638-.528L19.06 11.1l-.483.4a.391.391 0 0 0-.137.357z" style="fill:#898989"/>
    </g>
</svg>
