<svg xmlns="http://www.w3.org/2000/svg" width="30.625" height="35" viewBox="0 0 30.625 35">
    <path data-name="Path 2748" d="M10.938 2.863 5.05 8.75h5.888z" style="fill:#cacaca" transform="translate(-4.688 -2.5)"/>
    <path data-name="Path 2749" d="M33.874 6.831a2.2 2.2 0 0 0-2.806 1.306l-1.381 3.794-1.25 3.431-4.531 12.45a.636.636 0 0 0-.038.212l-.025 4.644a.629.629 0 0 0 1.106.406l2.963-3.581a11.512 11.512 0 0 0 .525-1.331c.673-1.868 5.933-16.3 6.744-18.525a2.192 2.192 0 0 0-1.306-2.806z" style="fill:#cacaca" transform="translate(-4.688 -2.5)"/>
    <path data-name="Path 2750" d="m28.849 30.319-2.937 3.556a1.877 1.877 0 0 1-3.319-1.237l.025-4.619a1.842 1.842 0 0 1 .112-.631l6.957-19.107V3.125a.627.627 0 0 0-.625-.625H12.187v6.875a.627.627 0 0 1-.625.625H4.688v26.875a.627.627 0 0 0 .625.625h23.75a.627.627 0 0 0 .625-.625v-8.494a8.044 8.044 0 0 1-.839 1.938zM9.062 13.125h14.375a.625.625 0 0 1 0 1.25H9.062a.625.625 0 0 1 0-1.25zm0 3.75h14.375a.625.625 0 0 1 0 1.25H9.062a.625.625 0 0 1 0-1.25zm0 3.75h9.375a.625.625 0 0 1 0 1.25H9.062a.625.625 0 0 1 0-1.25zm11.006 10.8-3.094 2.169a.629.629 0 0 1-.981-.513v-.944c-2.437 2.025-4.331 1.925-5.562 1.4a12.942 12.942 0 0 1-1.781.8.625.625 0 0 1-.425-1.175 11.334 11.334 0 0 0 1.444-.631 4.916 4.916 0 0 1 .537-3.431 6.622 6.622 0 0 1 2.275-2.712c.169-.119 1.675-1.125 2.731-.625 2.528 1.685-1.774 5.765-3.3 6.844 1.556.031 3.125-1.175 4.256-2.337a.627.627 0 0 1 1.075.431v1.181l2.113-1.482a.624.624 0 0 1 .712 1.025z" style="fill:#cacaca" transform="translate(-4.688 -2.5)"/>
    <path data-name="Path 2751" d="M14.425 28.094a1.5 1.5 0 0 0 .256-1.2.22.22 0 0 0-.125-.025c-2.015.19-3.9 3.16-3.756 4.987a12.036 12.036 0 0 0 3.625-3.762z" style="fill:#cacaca" transform="translate(-4.688 -2.5)"/>
</svg>
