<svg xmlns="http://www.w3.org/2000/svg" width="20" height="20" viewBox="0 0 20 20">
    <defs>
        <clipPath id="khxhld43ca">
            <path data-name="Rectangle 429" style="fill:#898989" d="M0 0h20v20H0z"/>
        </clipPath>
    </defs>
    <g style="clip-path:url(#khxhld43ca)">
        <path data-name="Path 893" d="m19.853 13.615-3.922-3.137a.392.392 0 0 0-.245-.086H.392a.392.392 0 0 0-.392.392v6.275a.392.392 0 0 0 .392.392h15.294a.392.392 0 0 0 .245-.086l3.922-3.137a.392.392 0 0 0 0-.612zm-4.3 3.051H.784v-5.49h14.765l3.431 2.745z" style="fill:#898989"/>
        <path data-name="Path 894" d="M.392 9.608h10.589a.392.392 0 0 0 .245-.086l3.922-3.137a.392.392 0 0 0 0-.612l-3.923-3.138a.392.392 0 0 0-.245-.086H.392A.392.392 0 0 0 0 2.941v6.275a.392.392 0 0 0 .392.392zm.392-6.275h10.059l3.431 2.745-3.431 2.746H.784z" style="fill:#898989"/>
        <path data-name="Path 895" d="M3.529 11.961a1.961 1.961 0 1 0 1.961 1.961 1.963 1.963 0 0 0-1.961-1.961zm0 3.137a1.176 1.176 0 1 1 1.176-1.176A1.178 1.178 0 0 1 3.529 15.1z" style="fill:#898989"/>
        <path data-name="Path 896" d="M6.667 14.314a.392.392 0 1 0 0 .784h8.628a.392.392 0 1 0 0-.784z" style="fill:#898989"/>
        <path data-name="Path 897" d="M6.667 13.529h3.922a.392.392 0 0 0 0-.784H6.667a.392.392 0 1 0 0 .784z" style="fill:#898989"/>
        <path data-name="Path 898" d="M3.529 4.118a1.961 1.961 0 1 0 1.961 1.96 1.963 1.963 0 0 0-1.961-1.96zm0 3.137a1.176 1.176 0 1 1 1.177-1.177 1.178 1.178 0 0 1-1.177 1.177z" style="fill:#898989"/>
        <path data-name="Path 899" d="M11.373 6.863a.392.392 0 0 0-.392-.392H6.667a.392.392 0 0 0 0 .784h4.313a.392.392 0 0 0 .393-.392z" style="fill:#898989"/>
        <path data-name="Path 900" d="M6.667 5.686h1.96a.392.392 0 1 0 0-.784h-1.96a.392.392 0 1 0 0 .784z" style="fill:#898989"/>
    </g>
</svg>
