<svg xmlns="http://www.w3.org/2000/svg" width="20" height="20" viewBox="0 0 20 20">
    <defs>
        <clipPath id="l3a6dqql5a">
            <path d="M0-682.665h20v20H0z" transform="translate(0 682.665)"/>
        </clipPath>
    </defs>
    <g style="clip-path:url(#l3a6dqql5a)">
        <path d="M-190.366-40.977a3.631 3.631 0 0 1 1.216.7l1.138-.5 1.039 1.8-1 .738a3.67 3.67 0 0 1 .068.7 3.67 3.67 0 0 1-.068.7l1 .738-1.039 1.8-1.138-.5a3.632 3.632 0 0 1-1.216.7l-.137 1.237h-2.078l-.137-1.237a3.631 3.631 0 0 1-1.216-.7l-1.138.5-1.039-1.8 1-.738a3.675 3.675 0 0 1-.068-.7 3.671 3.671 0 0 1 .068-.7l-1-.738 1.039-1.8 1.138.5a3.631 3.631 0 0 1 1.216-.7l.137-1.237h2.078z" transform="translate(196.503 42.604)" style="fill:none;stroke:#898989;stroke-linecap:round;stroke-linejoin:round;stroke-miterlimit:22.926"/>
        <path d="M-43.038-86.284a1.3 1.3 0 0 0 1.3-1.3 1.3 1.3 0 0 0-1.3-1.3 1.3 1.3 0 0 0-1.3 1.3 1.3 1.3 0 0 0 1.3 1.3z" transform="translate(47.998 92.664)" style="fill:none;stroke:#898989;stroke-linecap:round;stroke-linejoin:round;stroke-miterlimit:22.926"/>
        <path d="M562.665-659.958h3.125v-9.375h-3.125z" transform="translate(-546.181 669.724)" style="fill:none;stroke:#898989;stroke-linecap:round;stroke-linejoin:round;stroke-miterlimit:22.926"/>
        <path d="M0 0h2.553" transform="translate(16.77 2.028)" style="fill:none;stroke:#898989;stroke-linecap:round;stroke-linejoin:round;stroke-miterlimit:22.926"/>
        <path d="M0 0h2.553" transform="translate(16.77 8.128)" style="fill:none;stroke:#898989;stroke-linecap:round;stroke-linejoin:round;stroke-miterlimit:22.926"/>
        <path d="M13.332-120h9.138v3.125h-9.138z" transform="translate(-12.941 136.484)" style="fill:none;stroke:#898989;stroke-linecap:round;stroke-linejoin:round;stroke-miterlimit:22.926"/>
        <path d="M0-84.586v-2.553" transform="translate(2.016 103.908)" style="fill:none;stroke:#898989;stroke-linecap:round;stroke-linejoin:round;stroke-miterlimit:22.926"/>
        <path d="M0-84.586v-2.553" transform="translate(7.904 103.908)" style="fill:none;stroke:#898989;stroke-linecap:round;stroke-linejoin:round;stroke-miterlimit:22.926"/>
        <path d="M0 0h2.553" transform="translate(16.77 3.636)" style="fill:none;stroke:#898989;stroke-linecap:round;stroke-linejoin:round;stroke-miterlimit:22.926"/>
        <path d="M0 0h2.553" transform="translate(16.77 6.52)" style="fill:none;stroke:#898989;stroke-linecap:round;stroke-linejoin:round;stroke-miterlimit:22.926"/>
        <path d="M0-84.586v-2.553" transform="translate(3.921 103.908)" style="fill:none;stroke:#898989;stroke-linecap:round;stroke-linejoin:round;stroke-miterlimit:22.926"/>
        <path d="M0-84.586v-2.553" transform="translate(5.999 103.908)" style="fill:none;stroke:#898989;stroke-linecap:round;stroke-linejoin:round;stroke-miterlimit:22.926"/>
        <path d="M0 0h.791m1.573 0h.791m1.573 0h.791" transform="translate(9.133 9.765)" style="fill:none;stroke:#898989;stroke-linecap:round;stroke-linejoin:round;stroke-miterlimit:22.926"/>
        <path d="M0 0v.791m0 1.573v.791m0 1.573v.791" transform="translate(.391 9.392)" style="fill:none;stroke:#898989;stroke-linecap:round;stroke-linejoin:round;stroke-miterlimit:22.926"/>
        <path d="M0 0v.791m0 1.573v.791m0 1.573v.791" transform="translate(9.529 9.392)" style="fill:none;stroke:#898989;stroke-linecap:round;stroke-linejoin:round;stroke-miterlimit:22.926"/>
        <path d="M0 0h.791m1.573 0h.791m1.573 0h.791" transform="translate(9.133 .391)" style="fill:none;stroke:#898989;stroke-linecap:round;stroke-linejoin:round;stroke-miterlimit:22.926"/>
        <path d="M0-51.771h2.469L4.2-53.333h5.685" transform="translate(9.724 69.817)" style="fill:none;stroke:#898989;stroke-linecap:round;stroke-linejoin:round;stroke-miterlimit:22.926"/>
        <path d="M0 0h2.844" transform="translate(16.766 18.047)" style="fill:none;stroke:#898989;stroke-linecap:round;stroke-linejoin:round;stroke-miterlimit:22.926"/>
        <path d="M0 0h2.844" transform="translate(16.766 19.609)" style="fill:none;stroke:#898989;stroke-linecap:round;stroke-linejoin:round;stroke-miterlimit:22.926"/>
        <path d="M0 0v4.159" transform="translate(18.047 9.961)" style="fill:none;stroke:#898989;stroke-linecap:round;stroke-linejoin:round;stroke-miterlimit:22.926"/>
    </g>
</svg>
