<svg xmlns="http://www.w3.org/2000/svg" width="20" height="20" viewBox="0 0 20 20">
    <path data-name="Path 826" d="M19.828.172a.586.586 0 0 0-.829 0l-1.072 1.073a1.749 1.749 0 0 0-1.988.33l-.539.535a1.746 1.746 0 0 0-.33 1.988l-1.04 1.04a1.793 1.793 0 0 0-1.983.326l-.443.443a7.645 7.645 0 1 0 2.486 2.486l.442-.442a1.738 1.738 0 0 0 .339-2L15.9 4.927a1.7 1.7 0 0 0 1.99-.327l.536-.536a1.748 1.748 0 0 0 .33-1.988L19.828 1a.586.586 0 0 0 0-.829zM8.2 15.2v.647a.586.586 0 1 1-1.172 0V15.2a1.752 1.752 0 0 1-.936-.764.586.586 0 1 1 1.014-.587.586.586 0 1 0 .508-.878 1.754 1.754 0 0 1-.586-3.408v-.67a.586.586 0 0 1 1.172 0v.677a1.752 1.752 0 0 1 .936.764.586.586 0 0 1-1.014.587.586.586 0 1 0-.508.878A1.753 1.753 0 0 1 8.2 15.2zm5.5-8.083-.312.312a7.682 7.682 0 0 0-.829-.829l.312-.312a.6.6 0 0 1 .828 0 .586.586 0 0 1 0 .829zm3.9-3.884-.536.536a.586.586 0 0 1-.829-.829l.536-.535a.586.586 0 1 1 .829.829zm0 0" style="fill:#898989"/>
</svg>
