<svg xmlns="http://www.w3.org/2000/svg" width="31.602" height="24" viewBox="0 0 31.602 24">
    <path data-name="Path 2697" d="m287.015 67.35-9.555-5.45a2.468 2.468 0 0 0-3.339.882l-.8 1.373L280 75.587a4.238 4.238 0 0 1-1.574 5.822l-4.315 2.46 2.435 1.388a2.468 2.468 0 0 0 3.339-.882l8.025-13.731a2.4 2.4 0 0 0-.895-3.294z" transform="translate(-256.635 -61.579)" style="fill:#fff"/>
    <path data-name="Path 2698" d="m21.747 76.512-7.882-13.73a2.4 2.4 0 0 0-3.279-.882L1.2 67.35a2.422 2.422 0 0 0-.878 3.295L8.2 84.376a2.4 2.4 0 0 0 3.279.882l9.39-5.451a2.421 2.421 0 0 0 .878-3.295z" transform="translate(0 -61.579)" style="fill:#fff"/>
</svg>
