<svg xmlns="http://www.w3.org/2000/svg" width="20" height="20" viewBox="0 0 20 20">
    <defs>
        <clipPath id="1jgpcgq19a">
            <path data-name="Rectangle 639" style="fill:#898989" d="M0 0h20v20H0z"/>
        </clipPath>
    </defs>
    <g style="clip-path:url(#1jgpcgq19a)">
        <path data-name="Path 1543" d="M5.1 6.471h6.275a.392.392 0 0 0 0-.784H5.1a.392.392 0 0 0 0 .784z" style="fill:#898989"/>
        <path data-name="Path 1544" d="M2.745 7.255a1.176 1.176 0 1 0-1.176-1.177 1.178 1.178 0 0 0 1.176 1.177zm0-1.569a.392.392 0 1 1-.392.392.393.393 0 0 1 .392-.392z" style="fill:#898989"/>
        <path data-name="Path 1545" d="M5.1 9.608h6.275a.392.392 0 0 0 0-.784H5.1a.392.392 0 0 0 0 .784z" style="fill:#898989"/>
        <path data-name="Path 1546" d="M2.745 10.392a1.176 1.176 0 1 0-1.176-1.176 1.178 1.178 0 0 0 1.176 1.176zm0-1.569a.392.392 0 1 1-.392.392.393.393 0 0 1 .392-.391z" style="fill:#898989"/>
        <path data-name="Path 1547" d="M2.745 13.529a1.176 1.176 0 1 0-1.176-1.177 1.178 1.178 0 0 0 1.176 1.177zm0-1.569a.392.392 0 1 1-.392.392.393.393 0 0 1 .392-.391z" style="fill:#898989"/>
        <path data-name="Path 1548" d="M3.922 15.49a1.176 1.176 0 1 0-1.176 1.177 1.178 1.178 0 0 0 1.176-1.177zm-1.569 0a.392.392 0 1 1 .392.392.393.393 0 0 1-.392-.392z" style="fill:#898989"/>
        <path data-name="Path 1549" d="m19.51 5.084-1.278-.921a1.18 1.18 0 0 0-1.651.273L14.9 6.853V3.529a.392.392 0 0 0-.392-.392h-1.182V1.961a.392.392 0 0 0-.392-.392h-1.169v-.393a1.176 1.176 0 0 0-2.353 0v.392H7.843v-.392a1.176 1.176 0 1 0-2.353 0v.392H3.922v-.392a1.176 1.176 0 1 0-2.353 0v.392H.392A.392.392 0 0 0 0 1.961v16.078a.392.392 0 0 0 .392.392h1.177v1.176a.392.392 0 0 0 .392.393H14.51a.392.392 0 0 0 .392-.392v-5.86l4.878-7.021a1.181 1.181 0 0 0-.269-1.644zm-7.668 7.956 1.476 1.06-1.778.748zm2.178.6-1.92-1.38 4-5.764 1.924 1.384-4 5.764zm.1-9.722v4.064l-.792 1.14v-5.2zM10.2 1.176a.392.392 0 1 1 .784 0v1.569a.392.392 0 1 1-.784 0zm-3.922 0a.392.392 0 0 1 .784 0v1.569a.392.392 0 0 1-.784 0zm-3.922 0a.392.392 0 1 1 .784 0v1.569a.392.392 0 1 1-.784 0zM.785 2.353h.784v.392a1.176 1.176 0 1 0 2.353 0v-.392H5.49v.392a1.176 1.176 0 1 0 2.353 0v-.392h1.569v.392a1.176 1.176 0 0 0 2.353 0v-.392h.776v7.9l-1.187 1.709H5.1a.392.392 0 1 0 0 .784h6l-.4 2.354H5.1a.392.392 0 0 0 0 .784c6.374 0 5.954 0 6.012-.007.074-.014.007 0 1.431-.593v2.365H.785V2.353zm1.568 16.863v-.784h10.58a.392.392 0 0 0 .392-.392v-3.088l.792-.333v4.6zM19.137 6.277l-.666.958-1.918-1.383.671-.966a.4.4 0 0 1 .55-.087l1.278.921a.4.4 0 0 1 .085.557z" style="fill:#898989"/>
    </g>
</svg>
