<svg xmlns="http://www.w3.org/2000/svg" width="20" height="20" viewBox="0 0 20 20">
    <g data-name="Group 174">
        <path data-name="Path 741" d="M183.5 9.495a4.747 4.747 0 1 0-4.747-4.747 4.752 4.752 0 0 0 4.747 4.747zm-.562-7.538v-.129a.562.562 0 0 1 1.124 0v.13a1.487 1.487 0 0 1 1.172 1.451.562.562 0 1 1-1.124 0 .36.36 0 0 0-.36-.36h-.5a.36.36 0 0 0-.214.649l.468.346 1.136.841a1.49 1.49 0 0 1 .6 1.183v.005a1.485 1.485 0 0 1-1.175 1.462v.132a.562.562 0 0 1-1.124 0v-.13a1.484 1.484 0 0 1-1.179-1.437.562.562 0 0 1 .558-.566.562.562 0 0 1 .562.559.359.359 0 0 0 .362.358h.5a.36.36 0 0 0 .358-.362v-.014a.361.361 0 0 0-.146-.287l-.467-.346-1.13-.842a1.484 1.484 0 0 1 .575-2.645z" transform="translate(-171.433)" style="fill:#898989"/>
        <path data-name="Path 742" d="M7.17 318.663a.524.524 0 0 0-.716-.192L3.81 320a.525.525 0 0 0-.192.716l2.7 4.681a.524.524 0 0 0 .716.192l2.645-1.527a.524.524 0 0 0 .192-.716z" transform="translate(-3.548 -305.657)" style="fill:#898989"/>
        <path data-name="Path 743" d="M150.069 273.019a.788.788 0 0 0-1.1-.179l-3.292 2.372a1.983 1.983 0 0 1-.237.174 2.04 2.04 0 0 1-1.09.312h-2.693a.562.562 0 0 1 0-1.124h2.88a.745.745 0 0 0 .744-.776.757.757 0 0 0-.762-.714h-2.192a3.648 3.648 0 0 0-.485-.43 3.6 3.6 0 0 0-2.142-.7 3.967 3.967 0 0 0-3.432 2.1l2.3 3.983h4.314a4.842 4.842 0 0 0 2.416-.639 9.669 9.669 0 0 0 .822-.534c1.238-.889 3.768-2.736 3.77-2.737a.788.788 0 0 0 .179-1.108z" transform="translate(-130.218 -261.127)" style="fill:#898989"/>
    </g>
</svg>
