<svg xmlns="http://www.w3.org/2000/svg" width="20" height="20" viewBox="0 0 20 20">
    <defs>
        <clipPath id="dbktjw7k5a">
            <path data-name="Rectangle 57" style="fill:#898989" d="M0 0h20v20H0z"/>
        </clipPath>
    </defs>
    <g style="clip-path:url(#dbktjw7k5a)">
        <path data-name="Path 207" d="m19.269 15.386-.642-.529v-1.131a.391.391 0 1 0-.781 0v.487l-1.91-1.573a.391.391 0 0 0-.5 0l-1.256 1.036a2.757 2.757 0 0 0-2.2-1.874l-2.78-.379a8.068 8.068 0 0 0 .018-.958A3.4 3.4 0 0 0 10.783 7.6v-.543h.394A1.174 1.174 0 0 0 12.05 5.1a1.175 1.175 0 0 0-.594-1.925 4.116 4.116 0 0 0-8.013 0A1.175 1.175 0 0 0 2.85 5.1a1.174 1.174 0 0 0 .874 1.959h.394v.59a3.324 3.324 0 0 0 1.569 2.828 8.171 8.171 0 0 0 .017.948c-3.311.452-2.719.37-2.789.381a2.745 2.745 0 0 0-2.327 2.71v5.093A.391.391 0 0 0 .979 20h17.257a.391.391 0 0 0 .391-.391v-3.531h.394a.391.391 0 0 0 .248-.692zm-3.582-1.938 2.245 1.852h-4.49zm-2.177.781-1.41 1.157a.391.391 0 0 0 .248.692h.394v3.141h-1.567v-5.1a.391.391 0 0 0-.391-.391h-.394v-1.354l1.479.2a1.971 1.971 0 0 1 1.64 1.652zm-3.116.28v4.71H4.507v-4.71zm.783-8.233h-.394v-.788h.394a.394.394 0 1 1 0 .788zM7.45.781a3.317 3.317 0 0 1 3.19 2.356H4.26A3.317 3.317 0 0 1 7.45.781zM3.724 3.919h7.452a.394.394 0 0 1 0 .788H3.724a.394.394 0 0 1 0-.788zm0 2.357a.394.394 0 0 1 0-.788h.394v.788zM4.9 7.647V5.488H10V7.6a2.579 2.579 0 0 1-2.665 2.6A2.552 2.552 0 0 1 4.9 7.647zm3.533 3.182v.348a.982.982 0 1 1-1.964 0v-.346a3.3 3.3 0 0 0 1.964 0zm.473 1.343.7.1v1.46H5.292v-1.46l.7-.1a1.763 1.763 0 0 0 2.913-.001zm-7.537 2.344a1.953 1.953 0 0 1 1.661-1.94l1.48-.2v1.353h-.393a.391.391 0 0 0-.391.391v5.1H1.369zm16.476 4.7h-4.317v-3.138h4.318z" style="fill:#898989"/>
        <path data-name="Path 208" d="M6.664 7.058v-.392a.391.391 0 1 0-.781 0v.392a.391.391 0 1 0 .781 0z" style="fill:#898989"/>
        <path data-name="Path 209" d="M8.627 7.449a.391.391 0 0 0 .391-.391v-.392a.391.391 0 1 0-.781 0v.392a.391.391 0 0 0 .39.391z" style="fill:#898989"/>
        <path data-name="Path 210" d="M8.446 8.866a.391.391 0 0 0-.618-.478l-.01.014a.41.41 0 0 1-.733 0l-.011-.015a.391.391 0 1 0-.62.476 1.266 1.266 0 0 0 .989.546 1.3 1.3 0 0 0 1.003-.543z" style="fill:#898989"/>
    </g>
</svg>
