<svg xmlns="http://www.w3.org/2000/svg" width="20" height="20" viewBox="0 0 20 20">
    <defs>
        <clipPath id="8iwhj1qbha">
            <path data-name="Rectangle 405" style="fill:#898989" d="M0 0h20v20H0z"/>
        </clipPath>
    </defs>
    <g style="clip-path:url(#8iwhj1qbha)">
        <path data-name="Path 842" d="M19.629 14.885 12.412 2.372a2.761 2.761 0 0 0-4.8-.03L.468 14.732a2.781 2.781 0 0 0 2.3 4.308h14.473a2.773 2.773 0 0 0 2.388-4.155zm-1.4 3.1a1.982 1.982 0 0 1-.991.273H2.77a2 2 0 0 1-1.647-3.1l.015-.024L8.29 2.733a1.98 1.98 0 0 1 3.441.023l7.218 12.515a1.987 1.987 0 0 1-.718 2.715z" style="fill:#898989"/>
        <path data-name="Path 843" d="M10 7.267a4.4 4.4 0 0 0-4.33 5.749 1.4 1.4 0 0 0 1.152 2.177h.341v.649a.8.8 0 0 0 .8.8h1.223a.391.391 0 0 0 .391-.391v-.333h.849v.333a.391.391 0 0 0 .391.391h1.221a.8.8 0 0 0 .8-.8v-.649h.341a1.4 1.4 0 0 0 1.153-2.177A4.4 4.4 0 0 0 10 7.267zm3.607 6.1a.613.613 0 0 1-.43 1.047h-.732a.391.391 0 0 0-.391.391v1.039a.02.02 0 0 1-.019.019h-.83v-.333a.391.391 0 0 0-.391-.391H9.186a.391.391 0 0 0-.391.391v.333h-.83a.02.02 0 0 1-.019-.019V14.8a.391.391 0 0 0-.391-.391h-.731a.613.613 0 0 1-.43-1.047.391.391 0 0 0 .084-.432A3.6 3.6 0 0 1 10 8.048a3.6 3.6 0 0 1 3.523 4.884.391.391 0 0 0 .084.432z" style="fill:#898989"/>
        <path data-name="Path 844" d="M8.372 12.183a.586.586 0 1 0 .586.586.586.586 0 0 0-.586-.586z" style="fill:#898989"/>
        <path data-name="Path 845" d="M11.632 12.183a.586.586 0 1 0 .586.586.586.586 0 0 0-.586-.586z" style="fill:#898989"/>
    </g>
</svg>
