<svg xmlns="http://www.w3.org/2000/svg" width="23.696" height="24" viewBox="0 0 23.696 24">
    <path data-name="Path 2706" d="M21.938 31.452h-8.023v-2.56h8.023v2.561zM25.426 19.2h9.038a.866.866 0 0 1 .863.863v11.574a.866.866 0 0 1-.863.863h-9.038a.866.866 0 0 1-.863-.863V20.061a.866.866 0 0 1 .863-.863zm.9 1.523a.243.243 0 0 0-.242.242v1.47a.243.243 0 0 0 .242.242h7.233a.243.243 0 0 0 .242-.242v-1.47a.243.243 0 0 0-.242-.242zm5.991 4.848h1.242a.243.243 0 0 0 .242-.242v-1.243a.243.243 0 0 0-.242-.242h-1.24a.243.243 0 0 0-.242.242v1.242a.243.243 0 0 0 .242.242zm-3 0h1.242a.243.243 0 0 0 .242-.242v-1.243a.243.243 0 0 0-.242-.242h-1.235a.243.243 0 0 0-.242.242v1.242a.243.243 0 0 0 .242.242zm-3 0h1.253a.243.243 0 0 0 .242-.242v-1.243a.243.243 0 0 0-.242-.242h-1.242a.243.243 0 0 0-.242.242v1.242a.243.243 0 0 0 .242.242zm3 2.742h1.242a.243.243 0 0 0 .242-.242v-1.244a.243.243 0 0 0-.242-.242h-1.235a.243.243 0 0 0-.242.242v1.242a.243.243 0 0 0 .242.242zm-3 0h1.253a.243.243 0 0 0 .242-.242v-1.244a.243.243 0 0 0-.242-.242h-1.242a.243.243 0 0 0-.242.242v1.242a.243.243 0 0 0 .242.242zm5.991 2.742h1.242a.243.243 0 0 0 .242-.242v-3.986a.243.243 0 0 0-.242-.242h-1.231a.243.243 0 0 0-.242.242v3.983a.243.243 0 0 0 .242.242zm-3 0h1.242a.243.243 0 0 0 .242-.242v-1.244a.243.243 0 0 0-.242-.242h-1.226a.243.243 0 0 0-.242.242v1.242a.243.243 0 0 0 .242.242zm-3 0h1.262a.243.243 0 0 0 .242-.242v-1.244a.243.243 0 0 0-.242-.242h-1.242a.243.243 0 0 0-.242.242v1.242a.243.243 0 0 0 .242.242zm-2.541-2.218v-1.466h-7.725a.388.388 0 0 1 0-.776h7.745v-1.407h-7.745a.388.388 0 0 1 0-.776h7.745v-1.8h-.81a.389.389 0 0 1-.388-.388v-6.059a.389.389 0 0 1 .388-.388h1.157a.389.389 0 0 1 .388.388V18.7a1.626 1.626 0 0 1 .9-.274h.539V14.4a.389.389 0 0 1 .388-.388h1.157a.389.389 0 0 1 .388.388v4.026h2.221v-8.9A1.024 1.024 0 0 0 29.1 8.5h-9.4v4.377a1.7 1.7 0 0 1-1.7 1.7h-4.382v13.539h8.911l1.258.719zM18.618 8.8a1.025 1.025 0 0 1 .3-.211v4.288a.925.925 0 0 1-.923.923h-4.288a1.026 1.026 0 0 1 .211-.3zm6.68 3.529L17.03 17.1a.386.386 0 0 1-.385-.67l8.267-4.773-.674-.133a.387.387 0 1 1 .148-.761l1.684.333a.388.388 0 0 1 .287.522l-.547 1.608a.387.387 0 1 1-.733-.248l.222-.652zm-9.071 6.988h1.157a.389.389 0 0 1 .388.388v2.525a.389.389 0 0 1-.388.388h-1.157a.389.389 0 0 1-.388-.388V19.7a.389.389 0 0 1 .388-.384zm3.373-1.77h1.157a.389.389 0 0 1 .388.388v4.295a.389.389 0 0 1-.388.388H19.6a.389.389 0 0 1-.388-.388v-4.295a.389.389 0 0 1 .388-.388zm3.11 11.566 1.263.722a.388.388 0 0 1 0 .674l-1.263.722v-2.118zm-9.568 2.339h-.93a.583.583 0 0 1-.582-.582v-1.4a.583.583 0 0 1 .582-.582h.93z" transform="translate(-11.63 -8.5)" style="fill:#fff;fill-rule:evenodd"/>
</svg>
