<svg xmlns="http://www.w3.org/2000/svg" width="24" height="24" viewBox="0 0 24 24">
    <g data-name="Group 174">
        <path data-name="Path 741" d="M184.746 11.993a6 6 0 1 0-6-6 6 6 0 0 0 6 6zm-.71-9.521v-.163a.71.71 0 0 1 1.42 0v.164a1.878 1.878 0 0 1 1.481 1.833.71.71 0 1 1-1.42 0 .455.455 0 0 0-.455-.455h-.637a.454.454 0 0 0-.27.82l.591.437 1.435 1.062a1.882 1.882 0 0 1 .759 1.494v.007a1.876 1.876 0 0 1-1.485 1.847v.166a.71.71 0 0 1-1.42 0V9.52a1.875 1.875 0 0 1-1.48-1.821.71.71 0 0 1 .705-.714.71.71 0 0 1 .71.706.454.454 0 0 0 .457.452h.636a.454.454 0 0 0 .452-.458v-.011a.456.456 0 0 0-.184-.362l-.59-.437-1.431-1.063a1.875 1.875 0 0 1 .726-3.341z" transform="translate(-170.388)" style="fill:#fff"/>
        <path data-name="Path 742" d="M8.124 318.732a.662.662 0 0 0-.9-.242l-3.341 1.928a.663.663 0 0 0-.242.9l3.414 5.913a.662.662 0 0 0 .9.242l3.341-1.929a.662.662 0 0 0 .242-.9z" transform="translate(-3.548 -303.567)" style="fill:#fff"/>
        <path data-name="Path 743" d="M153.7 273.3a1 1 0 0 0-1.39-.226l-4.158 3a2.508 2.508 0 0 1-.3.219 2.576 2.576 0 0 1-1.377.394h-3.4a.71.71 0 1 1 0-1.42h3.638a.941.941 0 0 0 .94-.98.956.956 0 0 0-.963-.9h-2.769a4.607 4.607 0 0 0-.613-.543 4.543 4.543 0 0 0-2.705-.888 5.011 5.011 0 0 0-4.335 2.648l2.905 5.031h5.449a6.117 6.117 0 0 0 3.051-.807 12.219 12.219 0 0 0 1.039-.675c1.563-1.123 4.76-3.456 4.762-3.458a1 1 0 0 0 .226-1.395z" transform="translate(-129.889 -259.262)" style="fill:#fff"/>
    </g>
</svg>
