<svg xmlns="http://www.w3.org/2000/svg" width="20" height="20" viewBox="0 0 20 20">
    <defs>
        <clipPath id="511ge0baua">
            <path data-name="Rectangle 523" style="fill:#898989" d="M0 0h20v20H0z"/>
        </clipPath>
    </defs>
    <g style="clip-path:url(#511ge0baua)">
        <path data-name="Path 1200" d="M8.2 5.156a6.648 6.648 0 0 0-6.64 6.64c.334 8.8 12.948 8.795 13.28 0a6.648 6.648 0 0 0-6.64-6.64zm0 12.5A5.866 5.866 0 0 1 2.345 11.8c.295-7.762 11.424-7.76 11.718 0A5.866 5.866 0 0 1 8.2 17.655z" style="fill:#898989"/>
        <path data-name="Path 1201" d="M19.657.343a1.173 1.173 0 0 0-1.657 0l-1.1 1.1a1.174 1.174 0 0 0-.229 1.334l-.582.582a1.174 1.174 0 0 0-1.334.229l-.471.471L14 3.787a1.173 1.173 0 0 0-1.657 0l-.607.607A8.2 8.2 0 1 0 8.2 20a8.242 8.242 0 0 0 7.4-11.738l.607-.607a1.18 1.18 0 0 0 0-1.657l-.276-.276.472-.471a1.174 1.174 0 0 0 .229-1.334l.581-.582a1.18 1.18 0 0 0 1.34-.235l1.1-1.1a1.173 1.173 0 0 0 0-1.657zm-4 6.758-.806.806a.391.391 0 0 0-.07.457 7.422 7.422 0 1 1-3.149-3.149.391.391 0 0 0 .457-.07l.806-.806a.391.391 0 0 1 .552 0l2.21 2.21a.4.4 0 0 1 .004.551zm-.829-2.486.472-.471a.385.385 0 0 1 .162-.1.391.391 0 0 0 .487.487.384.384 0 0 1-.1.162l-.472.471zM19.1 1.447 18 2.552a.385.385 0 0 1-.162.1.391.391 0 0 0-.488-.487.388.388 0 0 1 .1-.162l1.1-1.1a.391.391 0 1 1 .552.552z" style="fill:#898989"/>
        <path data-name="Path 1202" d="M6.13 9.769H4.763a.391.391 0 0 0 0 .781h.293v2.734a.391.391 0 0 0 .781 0V10.55h.293a.391.391 0 0 0 0-.781z" style="fill:#898989"/>
        <path data-name="Path 1203" d="M8.054 9.769a1.173 1.173 0 0 0-1.172 1.172v2.344a.391.391 0 0 0 .781 0V12.5h.781v.781a.391.391 0 0 0 .781 0v-2.34a1.173 1.173 0 0 0-1.171-1.172zm.391 1.953h-.782v-.781a.391.391 0 0 1 .781 0z" style="fill:#898989"/>
        <path data-name="Path 1204" d="m11.146 11.722.615-1.406a.391.391 0 0 0-.716-.316l-.326.744-.325-.744a.391.391 0 0 0-.716.313l.615 1.406-.615 1.406a.391.391 0 1 0 .716.313l.326-.744.326.744a.391.391 0 1 0 .716-.313z" style="fill:#898989"/>
    </g>
</svg>
