<svg xmlns="http://www.w3.org/2000/svg" width="24" height="24" viewBox="0 0 24 24">
    <path data-name="Path 146" d="M0 24V0h24v24z" style="fill:none"/>
    <g data-name="Group 29">
        <path data-name="Path 147" d="M35.074 30.476h-6a1.752 1.752 0 0 1-1.75-1.75v-3.017a1.239 1.239 0 0 0-.493-.983 8.753 8.753 0 1 1 10.481 0 1.233 1.233 0 0 0-.488.983v3.017a1.752 1.752 0 0 1-1.75 1.75zm-2.99-20a7.686 7.686 0 0 0-.841.046 7.243 7.243 0 0 0-3.512 13 2.746 2.746 0 0 1 1.093 2.187v3.017a.253.253 0 0 0 .25.25h6a.253.253 0 0 0 .25-.25v-3.017a2.737 2.737 0 0 1 1.09-2.183 7.186 7.186 0 0 0 2.91-5.8 7.262 7.262 0 0 0-2.416-5.4 7.168 7.168 0 0 0-4.824-1.85z" transform="translate(-20.075 -7.726)" style="fill:#898989"/>
        <path data-name="Path 148" d="M47.019 38.3a.765.765 0 0 1-.116-.009.75.75 0 0 1-.626-.856 5.142 5.142 0 0 1 4.453-4.251.75.75 0 0 1 .164 1.491 3.619 3.619 0 0 0-3.135 2.99.749.749 0 0 1-.74.635z" transform="translate(-39.813 -28.55)" style="fill:#cacaca"/>
        <path data-name="Path 149" d="M92.125 107.375a.75.75 0 0 1-.75-.75v-3.75a.75.75 0 0 1 1.5 0v3.75a.75.75 0 0 1-.75.75z" transform="translate(-78.625 -87.875)" style="fill:#cacaca"/>
        <path data-name="Path 150" d="M70.625 107.375a.75.75 0 0 1-.75-.75v-3.75a.75.75 0 0 1 1.5 0v3.75a.75.75 0 0 1-.75.75z" transform="translate(-60.125 -87.875)" style="fill:#cacaca"/>
        <path data-name="Path 151" d="M60.709 132.292h-8a.75.75 0 0 1 0-1.5h8a.75.75 0 0 1 0 1.5z" transform="translate(-44.709 -112.542)" style="fill:#898989"/>
    </g>
</svg>
