<svg xmlns="http://www.w3.org/2000/svg" width="20" height="20" viewBox="0 0 20 20">
    <defs>
        <clipPath id="0pow74pfda">
            <path data-name="Rectangle 900" style="fill:#fff" d="M0 0h20v20H0z"/>
        </clipPath>
    </defs>
    <g style="clip-path:url(#0pow74pfda)">
        <path data-name="Path 2411" d="M11.906 18.433H2.548a1.177 1.177 0 0 1-1.177-1.177V1.567A1.177 1.177 0 0 1 2.548.391H13.53a1.177 1.177 0 0 1 1.177 1.177v10.2" style="fill:none;stroke:#898989;stroke-linecap:round;stroke-linejoin:round;stroke-miterlimit:10"/>
        <path data-name="Path 2412" d="M7.254 4.313h5.491" style="fill:none;stroke:#898989;stroke-linecap:round;stroke-linejoin:round;stroke-miterlimit:10"/>
        <path data-name="Path 2413" d="M7.254 6.274h5.491" style="fill:none;stroke:#898989;stroke-linecap:round;stroke-linejoin:round;stroke-miterlimit:10"/>
        <path data-name="Path 2414" d="M7.254 8.627h5.491" style="fill:none;stroke:#898989;stroke-linecap:round;stroke-linejoin:round;stroke-miterlimit:10"/>
        <path data-name="Path 2415" d="M12.745 10.588H7.254" style="fill:none;stroke:#898989;stroke-linecap:round;stroke-linejoin:round;stroke-miterlimit:10"/>
        <path data-name="Path 2416" d="M5.293 4.313H3.332v1.961h1.961z" style="fill:none;stroke:#898989;stroke-linecap:round;stroke-linejoin:round;stroke-miterlimit:10"/>
        <path data-name="Path 2417" d="M5.293 8.627H3.332v1.961h1.961z" style="fill:none;stroke:#898989;stroke-linecap:round;stroke-linejoin:round;stroke-miterlimit:10"/>
        <path data-name="Path 2418" d="M5.293 12.942H3.332V14.9h1.961z" style="fill:none;stroke:#898989;stroke-linecap:round;stroke-linejoin:round;stroke-miterlimit:10"/>
        <path data-name="Path 2419" d="M11.906 12.942H7.254" style="fill:none;stroke:#898989;stroke-linecap:round;stroke-linejoin:round;stroke-miterlimit:10"/>
        <path data-name="Path 2420" d="M10.863 14.9H7.254" style="fill:none;stroke:#898989;stroke-linecap:round;stroke-linejoin:round;stroke-miterlimit:10"/>
        <path data-name="Path 2421" d="M17.48 18.461a3.922 3.922 0 1 0-5.547 0 3.922 3.922 0 0 0 5.547 0z" style="fill:none;stroke:#898989;stroke-linecap:round;stroke-linejoin:round;stroke-miterlimit:10"/>
        <path data-name="Path 2422" d="M14.707 13.334v2.344l1.177 1.186" style="fill:none;stroke:#898989;stroke-linecap:round;stroke-linejoin:round;stroke-miterlimit:10"/>
    </g>
</svg>
