<svg xmlns="http://www.w3.org/2000/svg" width="24" height="24" viewBox="0 0 24 24">
    <path data-name="Path 135" d="M0 24V0h24v24z" style="fill:none"/>
    <g data-name="Group 27">
        <path data-name="Path 136" d="M36.938 51.813h-12a3.754 3.754 0 0 1-3.75-3.75v-9a3.754 3.754 0 0 1 3.75-3.75h12a3.754 3.754 0 0 1 3.75 3.75v9a3.755 3.755 0 0 1-3.75 3.75zm-12-15a2.25 2.25 0 0 0-2.25 2.25v9a2.25 2.25 0 0 0 2.25 2.25h12a2.25 2.25 0 0 0 2.25-2.25v-9a2.25 2.25 0 0 0-2.25-2.25z" transform="translate(-18.938 -31.563)" style="fill:#1b364d"/>
        <path data-name="Path 137" d="M103.531 76.843a1.125 1.125 0 0 1-1.125-1.125v-7.5a1.125 1.125 0 0 1 2.25 0v7.5a1.125 1.125 0 0 1-1.125 1.125z" transform="translate(-91.531 -59.969)" style="fill:#1b364d"/>
        <path data-name="Path 138" d="M61.156 102.093a1.125 1.125 0 0 1-1.125-1.125v-4.5a1.125 1.125 0 1 1 2.25 0v4.5a1.125 1.125 0 0 1-1.125 1.125z" transform="translate(-53.656 -85.219)" style="fill:#1b364d"/>
        <path data-name="Path 139" d="M145.906 89.468a1.125 1.125 0 0 1-1.125-1.125v-6a1.125 1.125 0 1 1 2.25 0v6a1.125 1.125 0 0 1-1.125 1.125z" transform="translate(-129.406 -72.594)" style="fill:#1b364d"/>
    </g>
</svg>
