<svg xmlns="http://www.w3.org/2000/svg" width="17.733" height="20" viewBox="0 0 17.733 20">
    <path data-name="Path 190" d="M4.681 10.716h3.8a.391.391 0 0 0 .391-.391V7.686a.391.391 0 0 0-.387-.386h-3.8a.391.391 0 0 0-.391.391v2.639a.391.391 0 0 0 .387.386zm.391-2.639h3.022v1.858H5.071z" style="fill:#898989" transform="translate(-1.133)"/>
    <path data-name="Path 191" d="M4.681 6.2h3.8a.391.391 0 0 0 .391-.391v-2.64a.391.391 0 0 0-.391-.391h-3.8a.391.391 0 0 0-.391.391v2.639a.391.391 0 0 0 .391.392zm.391-2.639h3.022v1.856H5.071z" style="fill:#898989" transform="translate(-1.133)"/>
    <path data-name="Path 192" d="M18.476 19.219h-.2V3.324a.391.391 0 0 0-.391-.391h-6.443V.391A.391.391 0 0 0 11.051 0H2.114a.391.391 0 0 0-.391.391v18.828h-.2a.391.391 0 1 0 0 .781h16.953a.391.391 0 1 0 0-.781zM2.5.781h8.16v18.438H8.876v-6.212a.391.391 0 0 0-.391-.391h-3.8a.391.391 0 0 0-.391.391v6.212H2.5zm2.571 18.438V13.4h3.023v5.822zm8.568 0v-3.676H15.3v3.676zm2.44 0v-4.067a.391.391 0 0 0-.391-.391h-2.44a.391.391 0 0 0-.391.391v4.066h-1.415V3.714H17.5v15.5z" style="fill:#898989" transform="translate(-1.133)"/>
    <path data-name="Path 193" d="M15.688 5.432h-2.44a.391.391 0 1 0 0 .781h2.44a.391.391 0 0 0 0-.781z" style="fill:#898989" transform="translate(-1.133)"/>
    <path data-name="Path 194" d="M15.688 7.836h-2.44a.391.391 0 1 0 0 .781h2.44a.391.391 0 0 0 0-.781z" style="fill:#898989" transform="translate(-1.133)"/>
    <path data-name="Path 195" d="M15.688 10.24h-2.44a.391.391 0 1 0 0 .781h2.44a.391.391 0 1 0 0-.781z" style="fill:#898989" transform="translate(-1.133)"/>
    <path data-name="Path 196" d="M15.688 12.644h-2.44a.391.391 0 1 0 0 .781h2.44a.391.391 0 1 0 0-.781z" style="fill:#898989" transform="translate(-1.133)"/>
</svg>
