<svg xmlns="http://www.w3.org/2000/svg" width="20" height="20" viewBox="0 0 20 20">
    <defs>
        <clipPath id="rjzxs1mrna">
            <path data-name="Rectangle 404" style="fill:#898989" d="M0 0h20v20H0z"/>
        </clipPath>
    </defs>
    <g style="clip-path:url(#rjzxs1mrna)">
        <path data-name="Path 830" d="M18.438 2.383h-1.211A1.564 1.564 0 0 0 15.664.82H8.633A1.564 1.564 0 0 0 7.07 2.383H1.563A1.564 1.564 0 0 0 0 3.945v10.938a1.564 1.564 0 0 0 1.563 1.562h5.994l.558 1.955h-.654a.391.391 0 0 0 0 .781h5.078a.391.391 0 0 0 0-.781h-.654l.558-1.953h5.994A1.564 1.564 0 0 0 20 14.883V3.945a1.564 1.564 0 0 0-1.562-1.562zm0 .781a.782.782 0 0 1 .781.781v9.375h-.781V4.336a.391.391 0 0 0-.391-.391h-.82v-.781zM7.606 6.261l1.883-.753h6.175a1.568 1.568 0 0 0 1.353-.781h.639v8.593H2.344V4.727H7.07V5.9a.391.391 0 0 0 .536.361zm.246-3.878a.782.782 0 0 1 .781-.783h7.031a.782.782 0 0 1 .781.781v1.564a.783.783 0 0 1-.781.781h-6.25a.391.391 0 0 0-.145.028l-1.417.567V2.383zm-6.289.781H7.07v.781H1.953a.391.391 0 0 0-.391.391v8.984H.781V3.945a.782.782 0 0 1 .782-.781zm9.51 15.236H8.927l-.558-1.953h3.261zm7.365-2.734H1.563a.782.782 0 0 1-.781-.781V14.1h18.437v.781a.782.782 0 0 1-.781.783z" style="fill:#898989"/>
        <path data-name="Path 831" d="M9.023 3.555h.391a.391.391 0 1 0 0-.781h-.391a.391.391 0 1 0 0 .781z" style="fill:#898989"/>
        <path data-name="Path 832" d="M10.977 3.555h.391a.391.391 0 0 0 0-.781h-.391a.391.391 0 1 0 0 .781z" style="fill:#898989"/>
        <path data-name="Path 833" d="M12.93 3.555h.391a.391.391 0 0 0 0-.781h-.391a.391.391 0 0 0 0 .781z" style="fill:#898989"/>
        <path data-name="Path 834" d="M14.883 3.555h.391a.391.391 0 1 0 0-.781h-.391a.391.391 0 0 0 0 .781z" style="fill:#898989"/>
        <path data-name="Path 835" d="M3.125 8.242v3.906a.391.391 0 0 0 .391.391h8.242a.391.391 0 0 0 .391-.391V8.242a.391.391 0 0 0-.391-.391H3.516a.391.391 0 0 0-.391.391zm.781.391h7.461v3.125H3.906z" style="fill:#898989"/>
        <path data-name="Path 836" d="M10.2 9.8H5.117a.391.391 0 1 0 0 .781H10.2a.391.391 0 0 0 0-.781z" style="fill:#898989"/>
    </g>
</svg>
