<svg xmlns="http://www.w3.org/2000/svg" width="20" height="20" viewBox="0 0 20 20">
    <defs>
        <clipPath id="wxxtxgqiia">
            <path data-name="Rectangle 893" style="fill:#fff" d="M0 0h20v20H0z"/>
        </clipPath>
    </defs>
    <g style="clip-path:url(#wxxtxgqiia)">
        <path data-name="Path 2356" d="m5.861 17.641.384-2.04" style="stroke-miterlimit:22.926;fill:none;stroke:#898989;stroke-linecap:round;stroke-linejoin:round"/>
        <path data-name="Path 2357" d="M8.509 14.52v.08a1.385 1.385 0 0 1-1.341 1.381A1.385 1.385 0 0 1 5.827 14.6v-.068" style="stroke-miterlimit:22.926;fill:none;stroke:#898989;stroke-linecap:round;stroke-linejoin:round"/>
        <path data-name="Path 2358" d="m8.48 17.667-.387-2.055" style="stroke-miterlimit:22.926;fill:none;stroke:#898989;stroke-linecap:round;stroke-linejoin:round"/>
        <path data-name="Path 2359" d="M11.693 13.953a5.286 5.286 0 0 0-9.815 2.73v1.058h9.971" style="stroke-miterlimit:22.926;fill:none;stroke:#898989;stroke-linecap:round;stroke-linejoin:round"/>
        <path data-name="Path 2360" d="M5.074 7.706v-.177" style="stroke-miterlimit:22.926;fill:none;stroke:#898989;stroke-linecap:round;stroke-linejoin:round"/>
        <path data-name="Path 2361" d="M9.439 7.53v.176" style="stroke-miterlimit:22.926;fill:none;stroke:#898989;stroke-linecap:round;stroke-linejoin:round"/>
        <path data-name="Path 2362" d="M12.637 5.66V2.552a1.049 1.049 0 0 0-1.046-1.046h-1.4A1.119 1.119 0 0 0 9.077.391H4.951A3.262 3.262 0 0 0 1.7 3.643V5.66" style="stroke-miterlimit:22.926;fill:none;stroke:#898989;stroke-linecap:round;stroke-linejoin:round"/>
        <path data-name="Path 2363" d="M2.646 8.305h-.592a1.234 1.234 0 0 1 0-2.469h2.984c1.9 0 3.447-.318 3.447-2.215 0 1.9 1.551 2.215 3.447 2.215h.35a1.234 1.234 0 0 1 0 2.469h-.592" style="stroke-miterlimit:22.926;fill:none;stroke:#898989;stroke-linecap:round;stroke-linejoin:round"/>
        <path data-name="Path 2364" d="M11.559 6.008v2.2A3.171 3.171 0 0 1 8.4 11.371H5.939A3.17 3.17 0 0 1 2.778 8.21v-2.2" style="stroke-miterlimit:22.926;fill:none;stroke:#898989;stroke-linecap:round;stroke-linejoin:round"/>
        <path data-name="Path 2365" d="M7.817 9.391a.878.878 0 0 1-1.3 0" style="stroke-miterlimit:2.613;fill:none;stroke:#898989;stroke-linecap:round;stroke-linejoin:round"/>
        <path data-name="Path 2366" d="m5.27 11.751 3.867 3.3 1.429-2.4m-1.51-.89L5.2 15.054l-1.429-2.405" style="stroke-miterlimit:22.926;fill:none;stroke:#898989;stroke-linecap:round;stroke-linejoin:round"/>
        <path data-name="Path 2367" d="M18.035 18.465a3.906 3.906 0 1 0-5.524 0 3.906 3.906 0 0 0 5.524 0z" style="stroke-miterlimit:22.926;fill:none;stroke:#898989;stroke-linecap:round;stroke-linejoin:round"/>
        <path data-name="Path 2368" d="m15.869 14.266-.211-.087a.778.778 0 0 0-.6 1.438l.211.087.21.087a.778.778 0 0 1-.6 1.438l-.21-.087" style="stroke-miterlimit:22.926;fill:none;stroke:#898989;stroke-linecap:round;stroke-linejoin:round"/>
        <path data-name="Path 2369" d="M15.273 13.99v-.436" style="stroke-miterlimit:22.926;fill:none;stroke:#898989;stroke-linecap:round;stroke-linejoin:round"/>
        <path data-name="Path 2370" d="M15.273 17.852v-.475" style="stroke-miterlimit:22.926;fill:none;stroke:#898989;stroke-linecap:round;stroke-linejoin:round"/>
        <path data-name="Path 2371" d="M15.273 8.889v2.771" style="stroke-miterlimit:22.926;fill:none;stroke:#898989;stroke-linecap:round;stroke-linejoin:round"/>
        <path data-name="Path 2372" d="m13.772 10.174 1.5-1.5 1.5 1.5" style="stroke-miterlimit:22.926;fill:none;stroke:#898989;stroke-linecap:round;stroke-linejoin:round"/>
    </g>
</svg>
