<svg xmlns="http://www.w3.org/2000/svg" width="20" height="20" viewBox="0 0 20 20">
    <defs>
        <clipPath id="titueedsqa">
            <path data-name="Rectangle 407" style="fill:#898989" d="M0 0h20v20H0z"/>
        </clipPath>
    </defs>
    <g style="clip-path:url(#titueedsqa)">
        <path data-name="Path 850" d="m19.649 15.124-7.4-12.813a2.583 2.583 0 0 0-4.482-.028L.435 14.987A2.583 2.583 0 0 0 2.589 19h14.829a2.587 2.587 0 0 0 2.231-3.878zm-.676 2.192a1.781 1.781 0 0 1-1.555.9H2.589A1.8 1.8 0 0 1 1.1 15.4l.007-.012L8.446 2.674a1.8 1.8 0 0 1 3.126.021l7.4 12.816a1.782 1.782 0 0 1 .001 1.805z" style="fill:#898989"/>
        <path data-name="Path 851" d="M10.894 3.083v-.007a1.019 1.019 0 0 0-1.768-.012L1.774 15.792l-.011.018a1.024 1.024 0 0 0 .826 1.63h14.827a1.024 1.024 0 0 0 .884-1.54zm6.725 13.456a.232.232 0 0 1-.2.12H2.589a.247.247 0 0 1-.194-.1c-.033-.041-.1-.127.03-.338l.015-.021.007-.012L9.8 3.455a.229.229 0 0 1 .2-.115.233.233 0 0 1 .205.119v.009L17.62 16.3a.24.24 0 0 1 0 .244z" style="fill:#898989"/>
        <path data-name="Path 852" d="M11.836 10.122h-.91l.775-1.95a.391.391 0 0 0-.363-.535H8.87a.391.391 0 0 0-.374.278L7.4 11.573a.391.391 0 0 0 .374.5h.8l-.656 3.093a.391.391 0 0 0 .7.315l3.538-4.738a.392.392 0 0 0-.313-.624zm-2.787 3.469.387-1.824a.391.391 0 0 0-.382-.472H8.3l.863-2.877h1.6l-.775 1.95a.391.391 0 0 0 .363.535h.707z" style="fill:#898989"/>
    </g>
</svg>
