<svg xmlns="http://www.w3.org/2000/svg" width="20" height="20" viewBox="0 0 20 20">
    <defs>
        <clipPath id="gtzv7vcmka">
            <path d="M0-682.665h20v20H0z" transform="translate(0 682.665)" style="fill:#898989"/>
        </clipPath>
    </defs>
    <g style="clip-path:url(#gtzv7vcmka)">
        <path d="m-134.816-134.816-4.069-4.069" transform="translate(139.276 153.509)" style="fill:none;stroke:#898989;stroke-linecap:round;stroke-linejoin:round;stroke-miterlimit:10"/>
        <path d="m-134.816 0-4.069 4.069" transform="translate(154.425 14.624)" style="fill:none;stroke:#898989;stroke-linecap:round;stroke-linejoin:round;stroke-miterlimit:10"/>
    </g>
    <path d="M0 0h2.325" style="fill:none;stroke:#898989;stroke-linecap:round;stroke-linejoin:round;stroke-miterlimit:10" transform="translate(13.726 2.13)"/>
    <path d="M0 0h4.626" style="fill:none;stroke:#898989;stroke-linecap:round;stroke-linejoin:round;stroke-miterlimit:10" transform="translate(7.686 2.13)"/>
    <path d="M0 0h2.315" style="fill:none;stroke:#898989;stroke-linecap:round;stroke-linejoin:round;stroke-miterlimit:10" transform="translate(3.957 2.13)"/>
    <g style="clip-path:url(#gtzv7vcmka)">
        <path d="M-572.313 0h.425a1.521 1.521 0 0 1 1.521 1.521v1.8h-19.219v-1.8A1.52 1.52 0 0 1-588.066 0h.433" transform="translate(589.978 2.013)" style="fill:none;stroke:#898989;stroke-linecap:round;stroke-linejoin:round;stroke-miterlimit:10"/>
        <path d="M82.409-635.691h-1.591v-2.365h1.591z" transform="translate(-78.451 639.363)" style="fill:none;stroke:#898989;stroke-linecap:round;stroke-linejoin:round;stroke-miterlimit:10"/>
        <path d="M0 0h2.477" style="fill:none;stroke:#898989;stroke-linecap:round;stroke-linejoin:round;stroke-miterlimit:10" transform="translate(1.925 3.671)"/>
        <path d="M213.2-635.691h-1.591v-2.365h1.591z" transform="translate(-205.408 639.363)" style="fill:none;stroke:#898989;stroke-linecap:round;stroke-linejoin:round;stroke-miterlimit:10"/>
        <path d="M0 0h2.477" style="fill:none;stroke:#898989;stroke-linecap:round;stroke-linejoin:round;stroke-miterlimit:10" transform="translate(5.756 3.671)"/>
        <path d="M418.351-635.691h-1.591v-2.365h1.591z" transform="translate(-404.551 639.363)" style="fill:none;stroke:#898989;stroke-linecap:round;stroke-linejoin:round;stroke-miterlimit:10"/>
        <path d="M0 0h2.477" style="fill:none;stroke:#898989;stroke-linecap:round;stroke-linejoin:round;stroke-miterlimit:10" transform="translate(11.767 3.671)"/>
        <path d="M549.14-635.691h-1.591v-2.365h1.591z" transform="translate(-531.508 639.363)" style="fill:none;stroke:#898989;stroke-linecap:round;stroke-linejoin:round;stroke-miterlimit:10"/>
        <path d="M0 0h2.477" style="fill:none;stroke:#898989;stroke-linecap:round;stroke-linejoin:round;stroke-miterlimit:10" transform="translate(15.599 3.671)"/>
        <path d="M-586.4-442.752h-16.178a1.52 1.52 0 0 1-1.521-1.52v-11.842h19.219v11.842a1.521 1.521 0 0 1-1.52 1.52z" transform="translate(604.49 461.445)" style="fill:none;stroke:#898989;stroke-linecap:round;stroke-linejoin:round;stroke-miterlimit:10"/>
        <path d="M-286.437-143.218a4.322 4.322 0 0 1-4.322 4.323 4.322 4.322 0 0 1-4.323-4.323 4.322 4.322 0 0 1 4.323-4.322 4.322 4.322 0 0 1 4.322 4.322z" transform="translate(300.759 155.152)" style="fill:none;stroke:#898989;stroke-linecap:round;stroke-linejoin:round;stroke-miterlimit:10"/>
        <path d="m-56.963 0-1.719 1.719" transform="translate(67.823 11.152)" style="fill:none;stroke:#898989;stroke-linecap:round;stroke-linejoin:round;stroke-miterlimit:10"/>
        <path d="m-56.963-56.963-1.719-1.719" transform="translate(67.823 69.835)" style="fill:none;stroke:#898989;stroke-linecap:round;stroke-linejoin:round;stroke-miterlimit:10"/>
    </g>
</svg>
