<svg xmlns="http://www.w3.org/2000/svg" width="20" height="20" viewBox="0 0 20 20">
    <g data-name="Layer 2">
        <path data-name="Path 841" d="M19.807 8.87a2.614 2.614 0 0 1-1.882-1.341 2.9 2.9 0 0 1-.178-2.39 1.343 1.343 0 0 0-.367-1.457 9.723 9.723 0 0 0-2.933-1.8 1.193 1.193 0 0 0-1.393.408 2.523 2.523 0 0 1-4.107 0 1.193 1.193 0 0 0-1.393-.408A9.749 9.749 0 0 0 4.82 3.505 1.356 1.356 0 0 0 4.433 5a2.881 2.881 0 0 1-.183 2.468 2.589 2.589 0 0 1-1.983 1.311 1.262 1.262 0 0 0-1.08 1.049A10.5 10.5 0 0 0 1 11.8a10.636 10.636 0 0 0 .127 1.655 1.265 1.265 0 0 0 1.087 1.091 2.593 2.593 0 0 1 2.009 1.361 2.882 2.882 0 0 1 .111 2.518 1.329 1.329 0 0 0 .34 1.535 9.791 9.791 0 0 0 2.906 1.767A1.27 1.27 0 0 0 8 21.8a1.209 1.209 0 0 0 1-.549 2.544 2.544 0 0 1 2.133-1.183 2.57 2.57 0 0 1 2.093 1.112 1.188 1.188 0 0 0 1.44.429 9.906 9.906 0 0 0 2.667-1.683 1.35 1.35 0 0 0 .36-1.486A2.883 2.883 0 0 1 17.84 16a2.6 2.6 0 0 1 1.94-1.348 1.267 1.267 0 0 0 1.047-1.07A10.763 10.763 0 0 0 21 11.8a10.66 10.66 0 0 0-.167-1.882 1.253 1.253 0 0 0-1.026-1.048zm-5.474 2.93A3.431 3.431 0 0 1 11 15.32a3.431 3.431 0 0 1-3.333-3.52A3.431 3.431 0 0 1 11 8.279a3.431 3.431 0 0 1 3.333 3.52z" transform="translate(-1 -1.804)" style="fill:#1b364d"/>
    </g>
</svg>
