<svg xmlns="http://www.w3.org/2000/svg" width="20" height="20" viewBox="0 0 20 20">
    <g data-name="Group 309">
        <path data-name="Path 1474" d="M42.907 180.734h-2.353a.391.391 0 0 0-.391.391v2.353a.391.391 0 0 0 .391.391h2.353a.391.391 0 0 0 .391-.391v-2.353a.391.391 0 0 0-.391-.391zm-.391 2.353h-1.572v-1.572h1.572z" transform="translate(-38.594 -173.674)" style="fill:#898989"/>
        <path data-name="Path 1475" d="M143.315 180.734h-2.353a.391.391 0 0 0-.391.391v2.353a.391.391 0 0 0 .391.391h2.353a.391.391 0 0 0 .391-.391v-2.353a.391.391 0 0 0-.391-.391zm-.391 2.353h-1.572v-1.572h1.572z" transform="translate(-135.08 -173.674)" style="fill:#898989"/>
        <path data-name="Path 1476" d="M241.37 183.869h2.353a.391.391 0 0 0 .391-.391v-2.353a.391.391 0 0 0-.391-.391h-2.353a.391.391 0 0 0-.391.391v2.353a.391.391 0 0 0 .391.391zm.391-2.353h1.572v1.572h-1.573z" transform="translate(-231.566 -173.674)" style="fill:#898989"/>
        <path data-name="Path 1477" d="M341.779 183.869h2.353a.391.391 0 0 0 .391-.391v-2.353a.391.391 0 0 0-.391-.391h-2.353a.391.391 0 0 0-.391.391v2.353a.391.391 0 0 0 .391.391zm.391-2.353h1.572v1.572h-1.572z" transform="translate(-328.053 -173.674)" style="fill:#898989"/>
        <path data-name="Path 1478" d="M42.907 281.143h-2.353a.391.391 0 0 0-.391.391v2.353a.391.391 0 0 0 .391.391h2.353a.391.391 0 0 0 .391-.391v-2.353a.391.391 0 0 0-.391-.391zm-.391 2.353h-1.572v-1.572h1.572z" transform="translate(-38.594 -270.161)" style="fill:#898989"/>
        <path data-name="Path 1479" d="M143.315 281.143h-2.353a.391.391 0 0 0-.391.391v2.353a.391.391 0 0 0 .391.391h2.353a.391.391 0 0 0 .391-.391v-2.353a.391.391 0 0 0-.391-.391zm-.391 2.353h-1.572v-1.572h1.572z" transform="translate(-135.08 -270.161)" style="fill:#898989"/>
        <path data-name="Path 1480" d="M42.907 381.551h-2.353a.391.391 0 0 0-.391.391v2.353a.391.391 0 0 0 .391.391h2.353a.391.391 0 0 0 .391-.391v-2.353a.391.391 0 0 0-.391-.391zm-.391 2.353h-1.572v-1.572h1.572z" transform="translate(-38.594 -366.647)" style="fill:#898989"/>
        <path data-name="Path 1481" d="M143.315 381.551h-2.353a.391.391 0 0 0-.391.391v2.353a.391.391 0 0 0 .391.391h2.353a.391.391 0 0 0 .391-.391v-2.353a.391.391 0 0 0-.391-.391zm-.391 2.353h-1.572v-1.572h1.572z" transform="translate(-135.08 -366.647)" style="fill:#898989"/>
        <path data-name="Path 1482" d="M346.942 344.855h-1.305v-1.305a.391.391 0 0 0-.781 0v1.305h-1.305a.391.391 0 0 0 0 .781h1.305v1.305a.391.391 0 0 0 .781 0v-1.305h1.305a.391.391 0 1 0 0-.781z" transform="translate(-329.755 -329.754)" style="fill:#898989"/>
        <path data-name="Path 1483" d="M18.039 11.773V3.528a1.569 1.569 0 0 0-1.567-1.567h-.786v-.594A1.369 1.369 0 0 0 14.318 0h-.008a1.369 1.369 0 0 0-1.367 1.367v.594H5.1v-.594A1.369 1.369 0 0 0 3.728 0H3.72a1.369 1.369 0 0 0-1.367 1.367v.594h-.786A1.569 1.569 0 0 0 0 3.528v14.9A1.569 1.569 0 0 0 1.567 20h13.924a4.508 4.508 0 0 0 2.548-8.227zM13.724 1.367a.587.587 0 0 1 .586-.586h.008a.587.587 0 0 1 .586.586v1.969a.587.587 0 0 1-.586.586h-.008a.587.587 0 0 1-.586-.586zm-10.59 0A.587.587 0 0 1 3.72.781h.008a.587.587 0 0 1 .586.586v1.969a.587.587 0 0 1-.586.586H3.72a.587.587 0 0 1-.586-.586zM1.567 2.742h.786v.594A1.369 1.369 0 0 0 3.72 4.7h.008A1.369 1.369 0 0 0 5.1 3.336v-.594h7.848v.594A1.369 1.369 0 0 0 14.31 4.7h.008a1.369 1.369 0 0 0 1.367-1.367v-.591h.786a.787.787 0 0 1 .786.786v1.963H.781V3.528a.787.787 0 0 1 .786-.786zm0 16.476a.787.787 0 0 1-.786-.786V6.272h16.477v5.071a4.5 4.5 0 0 0-4.71.735v-.705a.391.391 0 0 0-.391-.391H9.8a.391.391 0 0 0-.391.391v2.353a.391.391 0 0 0 .391.391h1.4a4.471 4.471 0 0 0-.176.788H9.8a.391.391 0 0 0-.391.391v2.353a.391.391 0 0 0 .391.391h1.969a4.546 4.546 0 0 0 1.184 1.18zm9.775-1.961h-1.148v-1.571h.792a4.519 4.519 0 0 0 .356 1.572zm.188-3.922h-1.336v-1.572h1.572v1.187a3.67 3.67 0 0 0-.236.385zm3.961 5.883a3.728 3.728 0 1 1 3.728-3.728 3.732 3.732 0 0 1-3.728 3.728z" style="fill:#898989"/>
    </g>
</svg>
