<svg xmlns="http://www.w3.org/2000/svg" width="24" height="24" viewBox="0 0 24 24">
    <path data-name="Path 108" d="M0 24V0h24v24z" style="fill:none"/>
    <g data-name="Group 20">
        <path data-name="Path 109" d="M39.3 15.066a1.615 1.615 0 0 0-1.633 1.6v17.572a1.615 1.615 0 0 0 1.633 1.6h6.956a7.041 7.041 0 0 1-1.239-3.994 7.271 7.271 0 0 1 7.35-7.189 7.482 7.482 0 0 1 1.633.181v-3.779a.788.788 0 0 0-.239-.565L48.452 15.3a.825.825 0 0 0-.577-.234zm8.167 1.521 4.978 4.869h-4.162a.808.808 0 0 1-.817-.8zm4.9 9.662a5.593 5.593 0 1 0 5.717 5.592 5.655 5.655 0 0 0-5.717-5.591zm2.45 3.2a.823.823 0 0 1 .577.234.786.786 0 0 1 0 1.13L52.127 34a.829.829 0 0 1-1.155 0l-1.633-1.6a.786.786 0 0 1 0-1.13.829.829 0 0 1 1.155 0l1.056 1.033 2.689-2.63a.823.823 0 0 1 .577-.234z" transform="translate(-34.084 -13.433)" style="fill:#fff"/>
    </g>
</svg>
