<svg xmlns="http://www.w3.org/2000/svg" width="20" height="20" viewBox="0 0 20 20">
    <g data-name="Group 370">
        <path data-name="Path 2326" d="M3.027 6.54A3.027 3.027 0 1 0 0 3.513 3.031 3.031 0 0 0 3.027 6.54zM1.961 5.49a1.373 1.373 0 0 1 2.132 0 2.262 2.262 0 0 1-2.132 0zM3.027 4a.488.488 0 1 1 .488-.488.489.489 0 0 1-.488.488zm0-2.734A2.253 2.253 0 0 1 4.705 5a2.17 2.17 0 0 0-.77-.6 1.269 1.269 0 1 0-1.815 0 2.169 2.169 0 0 0-.77.6 2.253 2.253 0 0 1 1.677-3.733z" transform="translate(0 -.486)" style="fill:#898989"/>
        <path data-name="Path 2327" d="M360.028 6.54A3.027 3.027 0 1 0 357 3.513a3.031 3.031 0 0 0 3.028 3.027zm-1.066-1.05a1.373 1.373 0 0 1 2.132 0 2.262 2.262 0 0 1-2.132 0zM360.028 4a.488.488 0 1 1 .488-.488.489.489 0 0 1-.488.488zm0-2.734A2.253 2.253 0 0 1 361.706 5a2.17 2.17 0 0 0-.77-.6 1.269 1.269 0 1 0-1.815 0 2.169 2.169 0 0 0-.77.6 2.253 2.253 0 0 1 1.677-3.733z" transform="translate(-343.056 -.486)" style="fill:#898989"/>
        <path data-name="Path 2328" d="M3.027 357a3.027 3.027 0 1 0 3.027 3.027A3.031 3.031 0 0 0 3.027 357zm-1.066 5a1.373 1.373 0 0 1 2.132 0 2.262 2.262 0 0 1-2.132 0zm1.066-1.488a.488.488 0 1 1 .488-.488.489.489 0 0 1-.488.494zm1.678 1a2.17 2.17 0 0 0-.77-.6 1.269 1.269 0 1 0-1.815 0 2.17 2.17 0 0 0-.77.6 2.245 2.245 0 1 1 3.356 0z" transform="translate(0 -343.057)" style="fill:#898989"/>
        <path data-name="Path 2329" d="M360.028 357a3.027 3.027 0 1 0 3.027 3.027 3.031 3.031 0 0 0-3.027-3.027zm-1.066 5a1.373 1.373 0 0 1 2.132 0 2.262 2.262 0 0 1-2.132.006zm1.066-1.488a.488.488 0 1 1 .488-.488.489.489 0 0 1-.488.494zm1.678 1a2.17 2.17 0 0 0-.77-.6 1.269 1.269 0 1 0-1.815 0 2.17 2.17 0 0 0-.77.6 2.245 2.245 0 1 1 3.356 0z" transform="translate(-343.056 -343.057)" style="fill:#898989"/>
        <path data-name="Path 2330" d="M107.056 101a6.062 6.062 0 0 0-6.056 6.056c.3 8.021 11.806 8.019 12.109 0a6.062 6.062 0 0 0-6.053-6.056zm0 11.328a5.273 5.273 0 1 1 5.273-5.273 5.279 5.279 0 0 1-5.273 5.274z" transform="translate(-97.056 -97.056)" style="fill:#898989"/>
        <path data-name="Path 2331" d="M246.452.782a.391.391 0 0 0 0-.781.391.391 0 0 0 0 .781z" transform="translate(-236.452 -.001)" style="fill:#898989"/>
        <path data-name="Path 2332" d="M289.045 4.525a.391.391 0 0 0 .2-.755.391.391 0 0 0-.2.755z" transform="translate(-277.477 -3.611)" style="fill:#898989"/>
        <path data-name="Path 2333" d="M330.394 15.592a.391.391 0 1 0 .263-.736.391.391 0 0 0-.263.736z" transform="translate(-317.239 -14.254)" style="fill:#898989"/>
        <path data-name="Path 2334" d="M203.67 4.516a.391.391 0 1 0-.094-.77.391.391 0 0 0 .095.77z" transform="translate(-195.339 -3.588)" style="fill:#898989"/>
        <path data-name="Path 2335" d="M162.25 15.614a.391.391 0 1 0-.131-.759.391.391 0 0 0 .132.759z" transform="translate(-155.537 -14.253)" style="fill:#898989"/>
        <path data-name="Path 2336" d="M.391 246.84a.391.391 0 1 0-.391-.391.391.391 0 0 0 .391.391z" transform="translate(0 -236.449)" style="fill:#898989"/>
        <path data-name="Path 2337" d="M4.2 203.285a.391.391 0 0 0-.46.306.391.391 0 1 0 .46-.307z" transform="translate(-3.589 -195.337)" style="fill:#898989"/>
        <path data-name="Path 2338" d="M15.354 161.881a.391.391 0 0 0-.5.236.391.391 0 1 0 .5-.237z" transform="translate(-14.253 -155.535)" style="fill:#898989"/>
        <path data-name="Path 2339" d="M4.049 288.72a.391.391 0 0 0-.306.46.391.391 0 1 0 .306-.46z" transform="translate(-3.589 -277.435)" style="fill:#898989"/>
        <path data-name="Path 2340" d="M14.855 330.655a.391.391 0 1 0 .236-.5.391.391 0 0 0-.236.5z" transform="translate(-14.253 -317.237)" style="fill:#898989"/>
        <path data-name="Path 2341" d="M246.448 492a.391.391 0 0 0 0 .781.391.391 0 0 0 0-.781z" transform="translate(-236.449 -472.782)" style="fill:#898989"/>
        <path data-name="Path 2342" d="M203.741 488.267a.391.391 0 0 0-.144.768.391.391 0 1 0 .144-.768z" transform="translate(-195.337 -469.187)" style="fill:#898989"/>
        <path data-name="Path 2343" d="M162.379 477.185a.391.391 0 1 0-.263.736.391.391 0 0 0 .262-.736z" transform="translate(-155.534 -458.523)" style="fill:#898989"/>
        <path data-name="Path 2344" d="M289.027 488.271a.391.391 0 1 0 .153.766.391.391 0 0 0-.153-.766z" transform="translate(-277.435 -469.19)" style="fill:#898989"/>
        <path data-name="Path 2345" d="M330.391 477.195a.391.391 0 0 0 .263.736.391.391 0 0 0-.263-.736z" transform="translate(-317.236 -458.533)" style="fill:#898989"/>
        <path data-name="Path 2346" d="M492.843 246.392a.391.391 0 1 0-.391.391.391.391 0 0 0 .391-.391z" transform="translate(-472.843 -236.392)" style="fill:#898989"/>
        <path data-name="Path 2347" d="M489.034 289.184a.391.391 0 1 0-.46.307.391.391 0 0 0 .46-.308z" transform="translate(-469.187 -277.438)" style="fill:#898989"/>
        <path data-name="Path 2348" d="M477.42 330.895a.391.391 0 0 0 .5-.236.391.391 0 1 0-.5.237z" transform="translate(-458.522 -317.24)" style="fill:#898989"/>
        <path data-name="Path 2349" d="M488.27 203.749a.391.391 0 1 0 .766-.153.391.391 0 0 0-.766.153z" transform="translate(-469.189 -195.341)" style="fill:#898989"/>
        <path data-name="Path 2350" d="M477.934 162.112a.391.391 0 1 0-.224.505.391.391 0 0 0 .224-.505z" transform="translate(-458.539 -155.539)" style="fill:#898989"/>
        <path data-name="Path 2351" d="M150.3 146a4.3 4.3 0 1 0 4.3 4.3 4.3 4.3 0 0 0-4.3-4.3zm0 7.813a3.516 3.516 0 1 1 3.516-3.516 3.52 3.52 0 0 1-3.516 3.517z" transform="translate(-140.298 -140.298)" style="fill:#898989"/>
        <path data-name="Path 2352" d="m229.759 193.325-.421-.174a.387.387 0 0 1 .3-.716l.21.087a.391.391 0 0 0 .3-.722l-.211-.087a1.178 1.178 0 0 0-.144-.049v-.214a.391.391 0 0 0-.781 0v.277a1.168 1.168 0 0 0 .031 2.146l.421.174a.387.387 0 0 1-.3.716l-.211-.087a.391.391 0 1 0-.3.722l.211.087a1.18 1.18 0 0 0 .144.049v.214a.391.391 0 0 0 .781 0v-.277a1.168 1.168 0 0 0-.031-2.145z" transform="translate(-219.399 -183.599)" style="fill:#898989"/>
    </g>
</svg>
