<svg xmlns="http://www.w3.org/2000/svg" width="20" height="20" viewBox="0 0 20 20">
    <defs>
        <clipPath id="dfz407499a">
            <path data-name="Rectangle 868" style="fill:#898989" d="M0 0h20v20H0z"/>
        </clipPath>
    </defs>
    <g style="clip-path:url(#dfz407499a)">
        <path data-name="Path 2168" d="M10 6.971a4.7 4.7 0 1 0 4.705 4.7A4.707 4.707 0 0 0 10 6.971zm0 8.614a3.916 3.916 0 1 1 3.924-3.916A3.925 3.925 0 0 1 10 15.584z" style="fill:#898989"/>
        <path data-name="Path 2169" d="M20 3.345a1.334 1.334 0 0 0-1.333-1.333h-.976v-.027a.391.391 0 0 0-.781 0v.027h-2.869v-.027a.391.391 0 0 0-.781 0v.027h-2.869v-.027a.391.391 0 1 0-.781 0v.027H6.74v-.027a.391.391 0 1 0-.781 0v.027H3.09v-.027a.391.391 0 1 0-.781 0v.027h-.976A1.334 1.334 0 0 0 0 3.345v13.728a1.334 1.334 0 0 0 1.333 1.333h17.334A1.334 1.334 0 0 0 20 17.073zM1.333 2.793h.976v.625a.391.391 0 1 0 .781 0v-.625h2.869v.625a.391.391 0 1 0 .781 0v-.625h2.869v.625a.391.391 0 1 0 .781 0v-.625h2.87v.625a.391.391 0 0 0 .781 0v-.625h2.869v.625a.391.391 0 0 0 .781 0v-.625h.976a.552.552 0 0 1 .552.552v1.479H.781V3.345a.552.552 0 0 1 .552-.552zm-.552 14.28V5.605h18.438v8.561h-2.126A1.334 1.334 0 0 0 15.76 15.5v2.125H1.333a.552.552 0 0 1-.552-.552zm17.885-2.125-2.125 2.125V15.5a.552.552 0 0 1 .552-.552zm0 2.677h-1.572l2.125-2.125v1.573a.552.552 0 0 1-.552.551z" style="fill:#898989"/>
        <path data-name="Path 2170" d="M11.461 10.585a.391.391 0 0 0-.551.034l-1.147 1.3-.64-.522a.391.391 0 1 0-.494.6l.931.76a.391.391 0 0 0 .54-.044l1.4-1.58a.391.391 0 0 0-.039-.548z" style="fill:#898989"/>
    </g>
</svg>
