<svg xmlns="http://www.w3.org/2000/svg" width="21.001" height="21.001" viewBox="0 0 21.001 21.001">
    <g data-name="ic_Total Value of Outgoing">
        <path d="M20.045 174.335a3.674 3.674 0 1 1 3.674 3.674 3.674 3.674 0 0 1-3.674-3.674" transform="translate(-19.137 -163.63)" style="fill:none;stroke:#898989;stroke-linecap:round;stroke-linejoin:round;stroke-miterlimit:10"/>
        <path d="M91.746 223.386a.824.824 0 0 0-.868-.156.647.647 0 0 0-.275 1.065 3.119 3.119 0 0 0 .855.4.786.786 0 0 1-.331 1.516 1.165 1.165 0 0 1-.8-.215" transform="translate(-86.565 -214.012)" style="fill:none;stroke:#898989;stroke-linecap:round;stroke-linejoin:round;stroke-miterlimit:10"/>
        <path transform="translate(4.563 12.203)" style="fill:none;stroke:#898989;stroke-linecap:round;stroke-linejoin:round;stroke-miterlimit:10" d="M0 .542V0"/>
        <path transform="translate(4.563 8.664)" style="fill:none;stroke:#898989;stroke-linecap:round;stroke-linejoin:round;stroke-miterlimit:10" d="M0 .505V0"/>
        <path d="M17.147 453.844h-6.123a1.02 1.02 0 0 1-1.02-1.02h0a1.02 1.02 0 0 1 1.02-1.02h6.123a1.02 1.02 0 0 1 1.02 1.02h0a1.02 1.02 0 0 1-1.02 1.02z" transform="translate(-9.504 -433.343)" style="fill:none;stroke:#898989;stroke-linecap:round;stroke-linejoin:round;stroke-miterlimit:10"/>
        <path d="M17.147 403.64h-6.123a1.02 1.02 0 0 1-1.02-1.02h0a1.02 1.02 0 0 1 1.02-1.02h6.123a1.02 1.02 0 0 1 1.02 1.02h0a1.02 1.02 0 0 1-1.02 1.02z" transform="translate(-9.504 -385.18)" style="fill:none;stroke:#898989;stroke-linecap:round;stroke-linejoin:round;stroke-miterlimit:10"/>
        <path d="M308.331 453.844h-6.123a1.02 1.02 0 0 1-1.02-1.02h0a1.02 1.02 0 0 1 1.02-1.02h6.123a1.02 1.02 0 0 1 1.02 1.02h0a1.02 1.02 0 0 1-1.02 1.02z" transform="translate(-288.851 -433.343)" style="fill:none;stroke:#898989;stroke-linecap:round;stroke-linejoin:round;stroke-miterlimit:10"/>
        <path d="M308.331 403.64h-6.123a1.02 1.02 0 0 1-1.02-1.02h0a1.02 1.02 0 0 1 1.02-1.02h6.123a1.02 1.02 0 0 1 1.02 1.02h0a1.02 1.02 0 0 1-1.02 1.02z" transform="translate(-288.851 -385.18)" style="fill:none;stroke:#898989;stroke-linecap:round;stroke-linejoin:round;stroke-miterlimit:10"/>
        <path d="M17.147 353.436h-6.123a1.02 1.02 0 0 1-1.02-1.02h0a1.02 1.02 0 0 1 1.02-1.02h6.123a1.02 1.02 0 0 1 1.02 1.02h0a1.02 1.02 0 0 1-1.02 1.02z" transform="translate(-9.504 -337.017)" style="fill:none;stroke:#898989;stroke-linecap:round;stroke-linejoin:round;stroke-miterlimit:10"/>
        <g>
            <path d="m89.165 18.642-2.035-2.847-.4 1.136-5.321-2.064.678-2.088L75 10l-.6 1.521 5.664 2.218-.679 2.093 6.815 2.642-.4 1.137z" transform="translate(-71.282 -9.5)" style="fill:none;stroke:#898989;stroke-linecap:round;stroke-linejoin:round;stroke-miterlimit:10"/>
        </g>
    </g>
</svg>
