<svg xmlns="http://www.w3.org/2000/svg" width="20" height="20" viewBox="0 0 20 20">
    <defs>
        <clipPath id="hr9hx53c2a">
            <path data-name="Rectangle 899" style="fill:#fff" d="M0 0h20v20H0z"/>
        </clipPath>
    </defs>
    <g style="clip-path:url(#hr9hx53c2a)">
        <path data-name="Path 2401" d="M15.762 4.725V2.8H6.679l-1.4-1.4H.391v12.582H11.6m5.443-6.416.535-2.666H2.207l-1.8 8.993" style="fill:none;stroke:#898989;stroke-linecap:round;stroke-linejoin:round;stroke-miterlimit:22.926"/>
        <path data-name="Path 2402" d="M19.609 7.656H11.8v10.938h7.812z" style="fill:none;stroke:#898989;stroke-linecap:round;stroke-linejoin:round;stroke-miterlimit:22.926"/>
        <path data-name="Path 2403" d="m17.966 13.988-.179-.074a.66.66 0 0 0-.505 1.22l.179.074.179.074a.66.66 0 1 1-.505 1.22l-.179-.074" style="fill:none;stroke:#898989;stroke-linecap:round;stroke-linejoin:round;stroke-miterlimit:22.926"/>
        <path data-name="Path 2404" d="M17.461 13.755v-.37" style="fill:none;stroke:#898989;stroke-linecap:round;stroke-linejoin:round;stroke-miterlimit:22.926"/>
        <path data-name="Path 2405" d="M17.461 17.031v-.4" style="fill:none;stroke:#898989;stroke-linecap:round;stroke-linejoin:round;stroke-miterlimit:22.926"/>
        <path data-name="Path 2406" d="M13.359 9.219h4.688" style="fill:none;stroke:#898989;stroke-linecap:round;stroke-linejoin:round;stroke-miterlimit:22.926"/>
        <path data-name="Path 2407" d="M13.359 10.781h4.688" style="fill:none;stroke:#898989;stroke-linecap:round;stroke-linejoin:round;stroke-miterlimit:22.926"/>
        <path data-name="Path 2408" d="M13.359 12.344H15.7" style="fill:none;stroke:#898989;stroke-linecap:round;stroke-linejoin:round;stroke-miterlimit:22.926"/>
        <path data-name="Path 2409" d="M13.359 13.906h1.172" style="fill:none;stroke:#898989;stroke-linecap:round;stroke-linejoin:round;stroke-miterlimit:22.926"/>
        <path data-name="Path 2410" d="M13.359 17.031h1.172" style="fill:none;stroke:#898989;stroke-linecap:round;stroke-linejoin:round;stroke-miterlimit:22.926"/>
    </g>
</svg>
