<svg xmlns="http://www.w3.org/2000/svg" width="24" height="24" viewBox="0 0 24 24">
    <path data-name="Path 110" d="M0 24V0h23.993v24z" style="fill:none"/>
    <g data-name="Group 21">
        <path data-name="Path 111" d="M24.3 15.008a1.611 1.611 0 0 0-1.614 1.609v17.7a1.617 1.617 0 0 0 1.614 1.611h8.47a7.2 7.2 0 0 1-1.211-4.014 5.444 5.444 0 0 1 .08-1.031 7.055 7.055 0 0 1 1.381-3.314 6.9 6.9 0 0 1 1.654-1.594 7.139 7.139 0 0 1 4.149-1.3h.008v-3.63a.793.793 0 0 0-.233-.57l-5.247-5.23a.8.8 0 0 0-.574-.234zm8.072 1.529 4.928 4.908h-4.118a.808.808 0 0 1-.807-.8zm6.45 9.745c-.089 0-.17.016-.251.016-.178.008-.346.015-.516.039-.141.02-.283.055-.424.088-.029.007-.059.01-.088.017-.128.032-.247.048-.367.088-.145.048-.291.1-.437.154h-.008c-.048.016-.089.039-.129.055a.109.109 0 0 0-.032.017c-.008 0-.009.008-.017.008a.059.059 0 0 0-.039.016c-.04.016-.081.033-.114.049a.028.028 0 0 1-.024.008c-.016.008-.025.016-.033.016s-.008.008-.016.008a.376.376 0 0 0-.041.024l-.386.215a2.457 2.457 0 0 0-.307.193c-.032.024-.056.048-.088.072s-.04.023-.065.039a3.28 3.28 0 0 0-.364.314 1.861 1.861 0 0 0-.194.16c-.016.015-.03.025-.046.041a5.71 5.71 0 0 0-.76.965c-.073.1-.137.21-.2.314s-.1.21-.153.322a3.508 3.508 0 0 0-.186.434 20.89 20.89 0 0 1-.1.273c-.048.169-.1.346-.129.523-.008.056-.033.106-.041.162a.246.246 0 0 0-.008.08l-.024.113c0 .016-.008.039-.008.055a.037.037 0 0 0 0 .041.008.008 0 0 1-.008.008v.057a.1.1 0 0 0-.008.049c-.008.04-.009.088-.017.137a4.367 4.367 0 0 0-.024.459 3.207 3.207 0 0 0 .024.393 3.141 3.141 0 0 0 .041.387 3.209 3.209 0 0 0 .137.684c.024.1.056.21.088.306a1.067 1.067 0 0 0 .082.225v.008a.01.01 0 0 0 .008.009v.016l.008.008a.129.129 0 0 1 .016.039 2.223 2.223 0 0 0 .121.291c0 .016.008.023.024.039a1.09 1.09 0 0 0 .114.242 1.62 1.62 0 0 0 .114.2.369.369 0 0 0 .047.072 2.485 2.485 0 0 0 .259.387 1.2 1.2 0 0 0 .153.2.01.01 0 0 1 .009.008l.008.008c.04.056.089.1.129.152a2.475 2.475 0 0 0 .314.338.1.1 0 0 1 .041.041c.065.048.112.1.177.16 0 .016.009.009.009.009s.016.008.024.016l.049.047a.016.016 0 0 1 .009 0l.014.013c.005.004.016.008.016.016s.017.007.025.024.031.033.047.033a.008.008 0 0 1 .008.008.044.044 0 0 1 .025.016l.008.008c0 .008.008.009.008.017s.008 0 .016.008.009 0 .017.008a.008.008 0 0 1 .008.008 2.924 2.924 0 0 0 .37.273 4.283 4.283 0 0 0 .46.266.379.379 0 0 0 .08.041 2.091 2.091 0 0 0 .274.127.988.988 0 0 0 .137.057c.01 0 .02.007.03.011a.016.016 0 0 1 .011.006h.063a.789.789 0 0 0 .088.031 1.518 1.518 0 0 0 .323.105.032.032 0 0 1 .025.008.032.032 0 0 0 .02.008h.008c.008.008.025.008.041.016a.286.286 0 0 1 .039.009 3.408 3.408 0 0 0 .388.1.223.223 0 0 0 .073.008c.032.008.064.008.1.016.016 0 .041.008.057.008h.017c.1.016.2.025.306.041.024 0 .048.008.073.008h.122a.616.616 0 0 0 .121.008 1.565 1.565 0 0 0 .194.009h.016c.089 0 .185-.009.282-.009s.186-.016.274-.024c.186-.016.363-.04.541-.072a.19.19 0 0 0 .065-.016 5.162 5.162 0 0 0 .985-.3c.065-.024.12-.056.177-.08a.992.992 0 0 0 .162-.072.436.436 0 0 0 .145-.08.027.027 0 0 0 .016-.008c.065-.032.129-.065.194-.105.016-.008.033-.007.041-.024a1.031 1.031 0 0 0 .2-.121c.008 0 .008-.008.016-.008a5.29 5.29 0 0 0 .427-.314l.008-.008a.043.043 0 0 0 .033-.024c.008 0 .008 0 .016-.008l.025-.025.024-.024a.107.107 0 0 0 .032-.025.117.117 0 0 1 .033-.024 1.683 1.683 0 0 0 .178-.16c.048-.04.1-.089.137-.129a6.67 6.67 0 0 0 .386-.427c0-.008.008-.008.008-.016a5.054 5.054 0 0 0 .307-.418c.048-.072.089-.144.137-.217s.1-.162.137-.242a3.1 3.1 0 0 0 .161-.33c.024-.056.05-.1.074-.152a4.271 4.271 0 0 0 .161-.451.463.463 0 0 0 .02-.049 5.616 5.616 0 0 0-1.4-5.656l-.09-.064a3.859 3.859 0 0 0-.564-.467 4.18 4.18 0 0 0-.339-.242 5.773 5.773 0 0 0-.484-.264 5.327 5.327 0 0 0-.489-.215c-.129-.048-.267-.1-.4-.137a6.232 6.232 0 0 0-.645-.152c-.065-.008-.137-.025-.21-.033a1.542 1.542 0 0 0-.2-.024c-.113-.016-.218-.023-.331-.031-.081 0-.17-.008-.251-.008zm-1.606 3.209h.284a1 1 0 0 1 .186.137l1.146 1.143 1.138-1.143a1.171 1.171 0 0 1 .21-.137h.266a.808.808 0 0 1 .807.8v.258a.786.786 0 0 1-.145.217l-1.138 1.139 1.138 1.143a.755.755 0 0 1 .145.211v.256a.808.808 0 0 1-.807.8h-.266a.852.852 0 0 1-.21-.137l-1.138-1.135-1.146 1.135a.687.687 0 0 1-.2.137h-.266a.808.808 0 0 1-.807-.8v-.266a.685.685 0 0 1 .137-.2l.743-.74.4-.4-1.145-1.139a.849.849 0 0 1-.137-.209V30.3a.808.808 0 0 1 .807-.8zm-3.5.03a5.7 5.7 0 0 0-.184.434c.059-.147.122-.291.189-.434zm9.811 5.508c-.1.142-.2.282-.307.416a4.65 4.65 0 0 0 .312-.416z" transform="translate(-20.48 -13.548)" style="fill:#fff"/>
    </g>
</svg>
