<svg xmlns="http://www.w3.org/2000/svg" width="20" height="20" viewBox="0 0 20 20">
    <g data-name="Group 263">
        <path data-name="Path 1177" d="M10 .836A10.028 10.028 0 0 0 0 10.869c.5 13.291 19.5 13.288 20 0A10.028 10.028 0 0 0 10 .836zm8.171 14.313-1.354-.785a7.646 7.646 0 0 0 .83-3.1h.3a.392.392 0 0 0 0-.784h-.3a7.646 7.646 0 0 0-.83-3.1l1.354-.785a9.343 9.343 0 0 1 0 8.554zM10 19.432a.391.391 0 0 0-.391.392v.286a9.131 9.131 0 0 1-3.876-1.043l.782-1.359a7.689 7.689 0 0 0 6.969 0l.782 1.359a9.131 9.131 0 0 1-3.876 1.043v-.286a.391.391 0 0 0-.39-.392zm0-1.666a6.894 6.894 0 0 1-6.875-6.9c.346-9.138 13.406-9.135 13.75 0a6.894 6.894 0 0 1-6.875 6.9zm-7.646-7.289H.789a9.208 9.208 0 0 1 1.04-3.888l1.354.785a7.646 7.646 0 0 0-.829 3.103zM17.779 5.91l-1.354.785a7.655 7.655 0 0 0-6.034-3.5V1.628a9.132 9.132 0 0 1 3.876 1.043l-.142.246a.391.391 0 1 0 .677.392l.141-.245a9.308 9.308 0 0 1 2.836 2.846zm-8.17-4.282V3.2a7.583 7.583 0 0 0-3.094.833l-.152-.264a.391.391 0 0 0-.677.392l.153.265a7.731 7.731 0 0 0-2.264 2.269L2.221 5.91a9.218 9.218 0 0 1 7.388-4.282zm-8.82 9.633h1.565a7.646 7.646 0 0 0 .83 3.1l-.263.152a.392.392 0 0 0 .391.679l.264-.153a7.731 7.731 0 0 0 2.264 2.275l-.782 1.359a9.259 9.259 0 0 1-4.269-7.412zm14.153 7.413-.782-1.359a7.731 7.731 0 0 0 2.264-2.272l1.354.785a9.308 9.308 0 0 1-2.836 2.845z" transform="translate(0 -.836)" style="fill:#898989"/>
        <path data-name="Path 1178" d="M111.091 105.835a6.091 6.091 0 1 0 6.091 6.123 6.114 6.114 0 0 0-6.091-6.123zm0 11.436a5.284 5.284 0 1 1 5.284-5.312 5.3 5.3 0 0 1-5.284 5.312z" transform="translate(-101.091 -101.926)" style="fill:#898989"/>
        <path data-name="Path 1179" d="m216.255 160.337-.58-.155a.828.828 0 0 1 .429-1.6l.725.194a.372.372 0 0 0 .193-.719l-.725-.194-.055-.014v-.581a.372.372 0 0 0-.745 0v.592a1.59 1.59 0 0 0-.392.162 1.572 1.572 0 0 0 .378 2.879l.58.155a.828.828 0 0 1-.429 1.6l-.725-.194a.372.372 0 0 0-.193.719l.725.194.055.014v.581a.372.372 0 0 0 .745 0v-.592a1.573 1.573 0 0 0 .014-3.041z" transform="translate(-205.87 -150.585)" style="fill:#898989"/>
    </g>
</svg>
