<svg xmlns="http://www.w3.org/2000/svg" width="28" height="24" viewBox="0 0 28 24">
    <g data-name="Group 183">
        <g data-name="Group 182">
            <path data-name="Path 757" d="m27.685 110.708-5.25-4.271a.894.894 0 0 0-.931-.118.854.854 0 0 0-.5.774v2.563h-1.469a3.5 3.5 0 0 1-2.968-1.606L10.9 99.2a7 7 0 0 0-5.936-3.212H0V99.4h4.965a3.5 3.5 0 0 1 2.968 1.606l5.667 8.85a7 7 0 0 0 5.936 3.212H21v2.563a.854.854 0 0 0 .5.774.906.906 0 0 0 .371.08.878.878 0 0 0 .56-.2l5.25-4.271a.841.841 0 0 0 0-1.312z" transform="translate(0 -92.49)" style="fill:#fff"/>
        </g>
    </g>
    <g data-name="Group 185">
        <g data-name="Group 184">
            <path data-name="Path 758" d="m257.283 36.588-5.25-4.375a.876.876 0 0 0-1.435.672v2.625h-1.465a6.958 6.958 0 0 0-5.933 3.29l-.317.507 2.063 3.3 1.221-1.955a3.483 3.483 0 0 1 2.968-1.645h1.465v2.625a.874.874 0 0 0 .5.793.888.888 0 0 0 .371.082.875.875 0 0 0 .56-.2l5.25-4.375a.874.874 0 0 0 0-1.344z" transform="translate(-229.597 -32.012)" style="fill:#fff"/>
        </g>
    </g>
    <g data-name="Group 187">
        <g data-name="Group 186">
            <path data-name="Path 759" d="m9.154 286.164-1.22 1.955a3.486 3.486 0 0 1-2.97 1.645H0v3.5h4.965a6.962 6.962 0 0 0 5.936-3.29l.317-.508z" transform="translate(0 -272.764)" style="fill:#fff"/>
        </g>
    </g>
</svg>
