<svg xmlns="http://www.w3.org/2000/svg" width="20" height="20" viewBox="0 0 20 20">
    <defs>
        <clipPath id="0rlwi0n0za">
            <path data-name="Rectangle 1008" style="fill:#898989" d="M0 0h20v20H0z"/>
        </clipPath>
    </defs>
    <g style="clip-path:url(#0rlwi0n0za)">
        <path data-name="Path 2628" d="M14.141 8.513a.392.392 0 0 0 .555 0l1.764-1.765a.392.392 0 0 0-.555-.555l-1.487 1.488-.52-.52a.392.392 0 1 0-.555.555z" style="fill:#898989"/>
        <path data-name="Path 2629" d="M18.431 1.765H1.569A1.57 1.57 0 0 0 0 3.333v10.2A1.57 1.57 0 0 0 1.569 15.1h6.493l-.882 2.353h-.9a.392.392 0 1 0 0 .784h7.451a.392.392 0 0 0 0-.784h-.9l-.893-2.353h6.493A1.57 1.57 0 0 0 20 13.529V3.333a1.57 1.57 0 0 0-1.569-1.568zm-16.862.784h16.862a.785.785 0 0 1 .784.784v8.627H.784V3.333a.785.785 0 0 1 .785-.784zm10.414 14.9H8.017L8.9 15.1h2.2zm6.448-3.137H1.569a.785.785 0 0 1-.784-.784v-.784h18.431v.784a.785.785 0 0 1-.785.786z" style="fill:#898989"/>
        <path data-name="Path 2630" d="M1.961 10.784H10.2a.392.392 0 0 0 .392-.392V7.255a.392.392 0 0 0-.392-.392H1.961a.392.392 0 0 0-.392.392v3.137a.392.392 0 0 0 .392.392zm.392-3.137H9.8V10H2.353zM14.9 10.784a3.529 3.529 0 1 0-3.529-3.529 3.533 3.533 0 0 0 3.529 3.529zm0-6.275a2.745 2.745 0 1 1-2.745 2.745A2.748 2.748 0 0 1 14.9 4.51zM1.961 6.078H10.2a.392.392 0 1 0 0-.784H1.961a.392.392 0 0 0 0 .784zm0-1.569h5.882a.392.392 0 1 0 0-.784H1.961a.392.392 0 0 0 0 .784z" style="fill:#898989"/>
    </g>
</svg>
