<svg xmlns="http://www.w3.org/2000/svg" width="20" height="20" viewBox="0 0 20 20">
    <g data-name="Group 179">
        <g data-name="Group 178">
            <path data-name="Path 755" d="M0 0v17.081a2.5 2.5 0 0 0 .33.9 1.653 1.653 0 0 0 1.52.8 1.664 1.664 0 0 0 1.538-.793 2.342 2.342 0 0 0 .3-.822v-2.5h12.143V0zm2.942 13-1.3-1.472.943-.75.5.569 1.3-1.052.8.889zm0-3.863-1.3-1.472.943-.75.5.569 1.3-1.052.8.889zm0-3.863L1.643 3.8l.943-.75.5.569 1.3-1.052.8.889zm10.91 6.4H6.145V10.5h7.707zm0-3.492H6.145V7.009h7.707zm0-3.493H6.145V3.517h7.707z" transform="translate(0 -.005)" style="fill:#898989"/>
        </g>
    </g>
    <g data-name="Group 181">
        <g data-name="Group 180">
            <path data-name="Path 756" d="M48.022 406.306V407.805a3.821 3.821 0 0 1-.447 1.392 2.683 2.683 0 0 1-2.463 1.443h15.33a2.9 2.9 0 0 0 2.817-2.972v-1.363H48.022z" transform="translate(-43.259 -390.641)" style="fill:#898989"/>
        </g>
    </g>
</svg>
