<svg xmlns="http://www.w3.org/2000/svg" width="20" height="20" viewBox="0 0 20 20">
    <defs>
        <clipPath id="be5uuh2wma">
            <path data-name="Rectangle 465" style="fill:#898989" d="M0 0h20v20H0z"/>
        </clipPath>
    </defs>
    <g style="clip-path:url(#be5uuh2wma)">
        <path data-name="Path 1013" d="M19.882 9.72 17.97 7.864 18.7 5.3a.393.393 0 0 0-.28-.486l-2.583-.651-.651-2.583a.391.391 0 0 0-.486-.28l-2.563.728L10.28.117a.393.393 0 0 0-.561 0L7.864 2.029 5.3 1.3a.391.391 0 0 0-.486.28l-.649 2.585-2.583.651A.393.393 0 0 0 1.3 5.3l.728 2.563L.117 9.72a.393.393 0 0 0 0 .561l1.912 1.855L1.3 14.7a.393.393 0 0 0 .28.486l2.583.651.651 2.583a.391.391 0 0 0 .486.28l2.563-.728 1.857 1.91a.393.393 0 0 0 .561 0l1.855-1.912 2.564.73a.391.391 0 0 0 .486-.28l.651-2.583 2.583-.651a.391.391 0 0 0 .28-.486l-.728-2.563 1.912-1.855a.393.393 0 0 0 0-.561zm-2.623 2.018a.391.391 0 0 0-.1.387l.682 2.4-2.419.61a.391.391 0 0 0-.283.283l-.609 2.419-2.4-.682a.391.391 0 0 0-.387.1L10 19.049l-1.738-1.79a.391.391 0 0 0-.387-.1l-2.4.682-.61-2.42a.391.391 0 0 0-.283-.283l-2.419-.609.682-2.4a.391.391 0 0 0-.1-.387L.95 10l1.79-1.738a.391.391 0 0 0 .1-.387l-.682-2.4 2.419-.61a.391.391 0 0 0 .283-.283l.609-2.419 2.4.682a.391.391 0 0 0 .387-.1L10 .951l1.738 1.79a.391.391 0 0 0 .387.1l2.4-.682.61 2.419a.391.391 0 0 0 .283.283l2.419.609-.682 2.4a.391.391 0 0 0 .1.387L19.049 10z" style="fill:#898989"/>
        <path data-name="Path 1014" d="M13.171 6.448a.391.391 0 0 0-.552 0l-3.79 3.79-1.447-1.446a.393.393 0 0 0-.553 0l-1.243 1.243a.391.391 0 0 0 0 .552l2.965 2.965a.391.391 0 0 0 .553 0l5.309-5.309a.391.391 0 0 0 0-.553zm-4.343 6.276-2.413-2.413.69-.69 1.446 1.446a.391.391 0 0 0 .553 0l3.79-3.79.691.69z" style="fill:#898989"/>
    </g>
</svg>
